<svg viewBox="0 0 53 62" xmlns="http://www.w3.org/2000/svg">
  <title>
    Apple_logo_black
  </title>
  <path d="M51.115 48.102c-.93 2.133-2.03 4.097-3.304 5.903-1.737 2.46-3.16 4.165-4.256 5.11-1.7 1.554-3.52 2.35-5.47 2.394-1.4 0-3.088-.397-5.054-1.2-1.97-.8-3.783-1.194-5.44-1.194-1.737 0-3.6.395-5.594 1.194-1.996.803-3.605 1.222-4.834 1.263-1.87.08-3.734-.74-5.594-2.457-1.188-1.03-2.673-2.793-4.452-5.292-1.91-2.67-3.48-5.764-4.708-9.292C1.09 40.722.43 37.032.43 33.46c0-4.093.89-7.623 2.673-10.58 1.4-2.376 3.265-4.25 5.598-5.626 2.334-1.376 4.854-2.077 7.57-2.122 1.484 0 3.432.457 5.852 1.354 2.414.9 3.963 1.357 4.643 1.357.508 0 2.23-.534 5.148-1.598 2.76-.987 5.09-1.396 6.998-1.235 5.172.415 9.056 2.44 11.64 6.09-4.625 2.783-6.912 6.682-6.867 11.684.042 3.896 1.465 7.14 4.26 9.713 1.268 1.195 2.683 2.118 4.257 2.774-.34.985-.702 1.927-1.085 2.832zM39.255 1.737c0 3.053-1.122 5.905-3.36 8.544-2.702 3.14-5.97 4.952-9.512 4.666-.045-.367-.07-.752-.07-1.158 0-2.93 1.284-6.07 3.565-8.634 1.14-1.3 2.587-2.38 4.344-3.24 1.752-.85 3.41-1.32 4.97-1.4.045.41.064.818.064 1.223z" fill-rule="nonzero" fill="#000"/>
</svg>
