<svg xmlns="http://www.w3.org/2000/svg" width="24" height="16" viewBox="0 0 24 16">
    <path fill="#FF3E3E" fill-rule="evenodd" d="M11.998 8.051l4.733-8.05c.034.074.06.125.081.177 1.825 4.476 3.65 8.953 5.47 13.431.056.136.123.18.27.176.425-.01.85-.003 1.275-.003H24v2.062h-8.471v-2.06h1.269l-1.245-3.46L11.998 16l-3.554-5.675L7.2 13.776h1.264v2.065H0v-2.06h.733c.254 0 .508-.007.762.004.126.005.167-.053.207-.152.743-1.83 1.49-3.658 2.235-5.487L7.192.16c.018-.045.04-.09.073-.161l4.733 8.051"/>
</svg>
