<svg width="30" height="30" xmlns="http://www.w3.org/2000/svg"><g transform="translate(-10 -10)" fill-rule="nonzero" fill="none"><circle fill="#395498" cx="25" cy="25" r="15"/><path d="M26.073 17.04c-1.336.184-2.203 1.046-2.496 2.474-.055.275-.072.528-.086 1.493l-.02 1.167-.727.008-.727.01-.01 1.402L22 25h1.48v8h3.134v-8h2.1l.014-.084c.01-.044.065-.602.124-1.237.058-.635.117-1.233.127-1.332l.021-.173h-2.39l.01-.965c.011-1.093.028-1.163.28-1.34l.137-.098.961-.011.957-.011V17l-1.332.004c-.737.003-1.432.018-1.55.036z" fill="#FFF"/></g></svg>