<svg width="12" height="12" viewBox="0 0 12 12" xmlns="http://www.w3.org/2000/svg">
  <title>
    ic_volume_off
  </title>
  <g fill="none" fill-rule="evenodd">
    <path d="M8.625 6c0-1.032-.595-1.92-1.458-2.35v1.288l1.43 1.43c.016-.117.028-.24.028-.368zm1.458 0c0 .548-.116 1.062-.315 1.54l.88.88c.386-.723.602-1.545.602-2.42 0-2.497-1.744-4.585-4.083-5.116v1.202C8.852 2.588 10.083 4.15 10.083 6zM1.49.75l-.74.74 2.76 2.76H.75v3.5h2.333L6 10.667V6.74l2.48 2.48c-.392.303-.83.542-1.313.688v1.202c.805-.18 1.534-.554 2.152-1.056l1.19 1.196.74-.74L6 5.26 1.49.75zM6 1.333l-1.22 1.22L6 3.772v-2.44z" fill="#000"/>
    <path d="M-1-1h14v14H-1"/>
  </g>
</svg>
