<svg width="29" height="17" xmlns="http://www.w3.org/2000/svg"><path d="M27.792 16.46c-.154.017-.307.039-.464.039-1.52.004-3.043 0-4.561.004a.819.819 0 0 1-.546-.2c-.32-.25-.645-.503-.938-.786-.762-.74-1.5-1.5-2.258-2.25-.234-.234-.487-.452-.73-.667-.13-.121-.292-.146-.455-.142-.225.005-.41.101-.496.304a1.86 1.86 0 0 0-.166.576c-.036.354-.04.714-.05 1.067-.005.398-.019.797-.13 1.181-.05.175-.123.346-.213.498a.818.818 0 0 1-.72.415c-1.327.031-2.656.048-3.98-.034a1.85 1.85 0 0 1-.69-.201 11.152 11.152 0 0 1-3.268-2.378c-1.15-1.202-2.195-2.492-3.237-3.78-1.405-1.735-2.618-3.593-3.71-5.532C.78 3.869.398 3.152.114 2.39a1.738 1.738 0 0 1-.037-1.13c.033-.109.087-.22.15-.318A.468.468 0 0 1 .63.712h.19c1.378 0 2.758.004 4.137-.004a.877.877 0 0 1 .663.265c.338.338.604.727.843 1.13.256.439.514.884.743 1.34.5 1.005 1.114 1.943 1.767 2.857.316.447.659.872.992 1.309.153.205.365.28.608.288.239.005.334-.088.343-.322.004-.06.004-.111.004-.168 0-1.528 0-3.057-.004-4.582 0-.12 0-.24-.01-.36-.026-.27-.175-.43-.45-.482-.126-.022-.252-.036-.38-.052-.387-.049-.548-.209-.589-.594-.059-.577.22-1.028.776-1.232a2.1 2.1 0 0 1 .734-.102h3.683c.251 0 .5-.011.747.009.258.024.523.059.771.13.541.154.847.514.91 1.066.014.133.019.265.019.399.005.924.005 1.855.005 2.78V7.34c0 .093.009.194.035.288.09.297.42.394.695.207.82-.554 1.356-1.322 1.771-2.182.383-.793.712-1.612 1.072-2.417.284-.638.582-1.271.88-1.905.077-.154.184-.296.283-.44.09-.131.212-.183.379-.183 1.785.003 3.565.003 5.35 0 .437 0 .78.172 1.055.5a.803.803 0 0 1 .158.402c.108.692-.13 1.29-.47 1.869-.32.55-.698 1.054-1.108 1.531-.852.992-1.69 1.998-2.42 3.083-.19.278-.348.574-.523.862-.127.209-.109.412.05.597.324.381.635.777.973 1.138.807.87 1.627 1.715 2.438 2.574.261.279.497.575.735.87.081.098.14.21.216.308.608.768-.149 1.915-.91 2.018" fill="#4E7DB2" fill-rule="evenodd"/></svg>