<svg xmlns="http://www.w3.org/2000/svg" width="498" height="498" viewBox="0 0 498 498">
  <style>
    .st0{fill:#fff;}
  </style>
  <path d="M5 249.8C4.9 115.6 115.2 5 249.2 5 384.6 4.9 495 114.8 495 249.7 495 384.8 384.8 495 249.7 495 115.1 495 5.1 384.8 5 249.8zm177.3-.8v78.5c0 7 2.3 12.8 8.9 16 6.3 3.1 12.1 1.6 17.7-2.6 35.4-26 71-51.8 106.5-77.8 11.7-8.5 11.6-19.5 0-28-11.7-8.5-23.4-17-35.1-25.6-24.1-17.6-48.2-35.1-72.3-52.7-6.7-4.9-12.8-5-18.9-.7-5.3 3.8-6.8 9.1-6.8 15.3V249z"/>
  <path class="st0" d="M182.3 249v-77.5c0-6.2 1.5-11.5 6.8-15.3 6.1-4.3 12.2-4.2 18.9.7 24.1 17.5 48.2 35.1 72.3 52.7 11.7 8.5 23.4 17 35.1 25.6 11.7 8.5 11.7 19.5 0 28-35.5 25.9-71.1 51.8-106.5 77.8-5.6 4.1-11.3 5.6-17.7 2.6-6.6-3.2-8.9-9-8.9-16V249z"/>
</svg>
