<svg width="29" height="40" viewBox="0 0 29 40" xmlns="http://www.w3.org/2000/svg" xmlns:xlink="http://www.w3.org/1999/xlink"><title>Page 1</title><defs><path id="a" d="M0 40h28.57V0H0z"/></defs><g fill="none" fill-rule="evenodd"><path d="M21.43 3.57c.39 0 .713.323.713.716 0 .393-.322.714-.714.714-.394 0-.716-.32-.716-.714 0-.393.322-.715.715-.715zM7.143 3.57c.393 0 .714.323.714.716 0 .393-.32.714-.714.714-.393 0-.714-.32-.714-.714 0-.393.32-.715.713-.715M17.857 8.57h-7.143c-.395 0-.714-.318-.714-.713 0-.395.32-.714.714-.714h7.143c.395 0 .714.32.714.714 0 .395-.318.714-.713.714M3.57 40c-.394 0-.713-.32-.713-.714V7.856c0-.394.32-.713.714-.713.396 0 .716.32.716.714v31.43c0 .394-.32.713-.715.713M25 40c-.395 0-.714-.32-.714-.714V7.856c0-.394.32-.713.714-.713.395 0 .714.32.714.714v31.43c0 .394-.32.713-.714.713" fill="#2C2B3A"/><path d="M25 37.143H3.57c-.394 0-.713-.32-.713-.714 0-.396.32-.716.714-.716H25c.395 0 .714.32.714.715 0 .394-.32.713-.714.713M4.286 7.143H10V4.286C10 2.71 8.72 1.43 7.143 1.43c-1.576 0-2.857 1.28-2.857 2.856v2.857zm6.428 1.428H3.57c-.394 0-.713-.318-.713-.713v-3.57C2.857 1.92 4.78 0 7.143 0c2.363 0 4.286 1.922 4.286 4.286v3.57c0 .396-.32.715-.716.715zM18.57 7.143h5.716V4.286c0-1.576-1.282-2.857-2.857-2.857-1.577 0-2.86 1.28-2.86 2.856v2.857zM25 8.57h-7.143c-.395 0-.714-.318-.714-.713v-3.57C17.143 1.92 19.065 0 21.43 0c2.362 0 4.284 1.922 4.284 4.286v3.57c0 .396-.32.715-.714.715z" fill="#2C2B3A"/><path d="M7.143 4.286v.002l.714-.002h-.714zm0 1.428c-.788 0-1.43-.64-1.43-1.428 0-.788.642-1.43 1.43-1.43.787 0 1.428.642 1.428 1.43 0 .787-.64 1.428-1.427 1.428zM21.43 4.286v.002l.713-.002h-.714zm0 1.428c-.79 0-1.43-.64-1.43-1.428 0-.788.64-1.43 1.43-1.43.786 0 1.427.642 1.427 1.43 0 .787-.64 1.428-1.428 1.428zM7.143 11.43v2.14c0 2.758 2.243 5 5 5h4.286c2.755 0 5-2.242 5-5v-2.14H7.142zM16.43 20h-4.287c-3.545 0-6.43-2.884-6.43-6.43v-2.856c0-.395.32-.714.716-.714h15.713c.395 0 .714.32.714.714v2.857c0 3.546-2.883 6.43-6.428 6.43z" fill="#2C2B3A"/><path d="M22.143 14.286H6.43c-.396 0-.716-.32-.716-.715 0-.394.32-.713.715-.713h15.713c.395 0 .714.32.714.714 0 .396-.32.716-.714.716" fill="#2C2B3A"/><mask id="b" fill="#fff"><use xlink:href="#a"/></mask><path d="M7.143 32.857H21.43v-7.143H7.142v7.143zm15 1.43H6.43c-.396 0-.716-.32-.716-.716V25c0-.395.32-.714.715-.714h15.713c.395 0 .714.32.714.714v8.57c0 .396-.32.716-.714.716z" fill="#2C2B3A" mask="url(#b)"/><path d="M10 30h8.57v-1.43H10V30zm9.286 1.43h-10c-.395 0-.715-.32-.715-.716v-2.857c0-.395.32-.714.716-.714h10c.395 0 .714.32.714.714v2.857c0 .395-.32.715-.714.715zM6.43 25.714H3.57c-.394 0-.713-.32-.713-.714 0-.395.32-.714.714-.714h2.86c.394 0 .713.32.713.714 0 .395-.32.714-.714.714M25 25.714h-2.857c-.395 0-.714-.32-.714-.714 0-.395.318-.714.713-.714H25c.395 0 .714.32.714.714 0 .395-.32.714-.714.714M6.43 37.143c-.396 0-.716-.32-.716-.714v-2.86c0-.394.32-.713.715-.713.394 0 .713.32.713.714v2.86c0 .394-.32.713-.714.713M22.143 37.143c-.395 0-.714-.32-.714-.714v-2.86c0-.394.318-.713.713-.713.395 0 .714.32.714.714v2.86c0 .394-.32.713-.714.713" fill="#2C2B3A" mask="url(#b)"/><path d="M9.286 28.57c-.395 0-.715-.318-.715-.713V25c0-.395.32-.714.716-.714.395 0 .714.32.714.714v2.857c0 .395-.32.714-.714.714M19.286 28.57c-.395 0-.715-.318-.715-.713V25c0-.395.32-.714.716-.714.395 0 .714.32.714.714v2.857c0 .395-.32.714-.714.714M3.57 15.714H.715C.32 15.714 0 15.394 0 15v-1.43c0-1.18.96-2.14 2.143-2.14H3.57c.396 0 .716.318.716.713 0 .395-.32.714-.715.714H2.144c-.394 0-.714.32-.714.714v.716h2.14c.396 0 .716.32.716.714 0 .395-.32.714-.715.714M3.57 21.43H.715c-.395 0-.714-.32-.714-.716v-1.428c0-1.182.96-2.143 2.143-2.143H3.57c.396 0 .716.32.716.714 0 .395-.32.714-.715.714H2.144c-.394 0-.714.32-.714.716V20h2.14c.396 0 .716.32.716.714 0 .395-.32.715-.715.715M3.57 27.143H.715c-.395 0-.714-.32-.714-.714V25c0-1.18.96-2.143 2.143-2.143H3.57c.396 0 .716.32.716.714 0 .396-.32.716-.715.716H2.144c-.394 0-.714.32-.714.714v.714h2.14c.396 0 .716.32.716.715 0 .394-.32.713-.715.713M27.857 15.714H25c-.395 0-.714-.32-.714-.714 0-.395.32-.714.714-.714h2.143v-.715c0-.393-.32-.713-.714-.713H25c-.395 0-.714-.32-.714-.714 0-.395.32-.714.714-.714h1.43c1.18 0 2.14.96 2.14 2.14V15c0 .395-.318.714-.713.714M27.857 21.43H25c-.395 0-.714-.32-.714-.716 0-.395.32-.714.714-.714h2.143v-.714c0-.395-.32-.715-.714-.715H25c-.395 0-.714-.318-.714-.713 0-.395.32-.714.714-.714h1.43c1.18 0 2.14.96 2.14 2.143v1.428c0 .395-.318.715-.713.715M27.857 27.143H25c-.395 0-.714-.32-.714-.714 0-.396.32-.716.714-.716h2.143V25c0-.394-.32-.714-.714-.714H25c-.395 0-.714-.32-.714-.715 0-.394.32-.713.714-.713h1.43c1.18 0 2.14.962 2.14 2.143v1.43c0 .394-.318.713-.713.713" fill="#2C2B3A" mask="url(#b)"/></g></svg>