<svg width="30" height="30" xmlns="http://www.w3.org/2000/svg"><path d="M30 15c0-1.845-.35-3.605-.96-5.238-.16 5.374-5.622 9.534-8.828 12.287h8.026A14.926 14.926 0 0 0 30 15zM24.198 3.168A14.918 14.918 0 0 0 15 0C6.716 0 0 6.716 0 15c0 8.284 6.716 15 15 15 3.794 0 7.248-1.42 9.89-3.742H14.03l-.033-3.19C20.54 17.38 24.55 13.534 24.55 9.819c0-1.382-.526-3.124-2.893-3.124-1.874 0-3.683 1.085-3.354 5.622H14.49c-.953-5.26 1.907-9.436 7.365-9.436.846 0 1.629.1 2.343.288z" fill="#91C33F" fill-rule="evenodd"/></svg>