<svg width="38" height="40" viewBox="0 0 38 40" xmlns="http://www.w3.org/2000/svg" xmlns:xlink="http://www.w3.org/1999/xlink"><title>Page 1</title><defs><path id="a" d="M0 40h37.143V0H0z"/></defs><g fill="none" fill-rule="evenodd"><path d="M29.286 40c-.395 0-.715-.32-.715-.714V33.57c0-.394.32-.713.716-.713.395 0 .714.32.714.714v5.716c0 .395-.32.714-.714.714zM7.857 40c-.394 0-.714-.32-.714-.714V33.57c0-.394.32-.713.714-.713.394 0 .714.32.714.714v5.716c0 .395-.32.714-.713.714" fill="#2C2B3A"/><path d="M29.286 37.143H7.856c-.393 0-.713-.32-.713-.714 0-.396.32-.716.714-.716h21.43c.394 0 .713.32.713.715 0 .394-.32.713-.714.713M33.57 17.143c-.394 0-.713-.32-.713-.714v-.716c0-7.877-6.408-14.285-14.286-14.285-7.876 0-14.284 6.407-14.284 14.284v.715c0 .394-.32.713-.715.713-.393 0-.713-.32-.713-.714v-.716C2.857 7.05 9.907 0 18.57 0c8.666 0 15.716 7.05 15.716 15.714v.715c0 .394-.32.713-.715.713M33.57 34.286h-30c-.393 0-.713-.32-.713-.715V22.144c0-.395.32-.714.714-.714.396 0 .716.318.716.713v10.714h28.57V22.143c0-.395.32-.714.715-.714.396 0 .716.318.716.713V33.57c0 .396-.32.716-.715.716" fill="#2C2B3A"/><path d="M3.57 31.43H2.144C.96 31.43 0 30.466 0 29.285V25c0-.395.32-.714.714-.714H3.57c.396 0 .716.32.716.714 0 .395-.32.714-.715.714H1.43v3.572c0 .394.32.714.713.714H3.57c.396 0 .716.32.716.714 0 .395-.32.715-.715.715M35 31.43h-1.43c-.394 0-.713-.32-.713-.716 0-.395.32-.714.714-.714H35c.394 0 .714-.32.714-.714v-3.572H33.57c-.394 0-.713-.32-.713-.714 0-.395.32-.714.714-.714h2.86c.394 0 .713.32.713.714v4.286c0 1.18-.962 2.143-2.143 2.143" fill="#2C2B3A"/><mask id="b" fill="#fff"><use xlink:href="#a"/></mask><path d="M2.857 21.43h31.43v-4.287H2.856v4.286zM35 22.856H2.143c-.394 0-.714-.32-.714-.714V16.43c0-.396.32-.716.713-.716H35c.395 0 .714.32.714.715v5.713c0 .395-.32.714-.714.714zM12.857 25.714c0 1.576 1.282 2.857 2.857 2.857h5.715c1.574 0 2.856-1.28 2.856-2.856h-11.43zM21.43 30h-5.716c-2.363 0-4.285-1.922-4.285-4.286V25c0-.395.32-.714.713-.714H25c.395 0 .714.32.714.714v.714c0 2.364-1.922 4.286-4.285 4.286z" fill="#2C2B3A" mask="url(#b)"/><path d="M32.143 20H5c-.394 0-.714-.32-.714-.714 0-.395.32-.715.714-.715h27.143c.395 0 .714.32.714.716 0 .395-.32.714-.714.714" fill="#2C2B3A" mask="url(#b)"/></g></svg>