<svg width="38" height="40" viewBox="0 0 38 40" xmlns="http://www.w3.org/2000/svg"><title>Page 1</title><g fill="#2C2B3A" fill-rule="evenodd"><path d="M11.43 19.286c.39 0 .713.32.713.714 0 .393-.322.714-.714.714-.394 0-.716-.32-.716-.714 0-.393.322-.714.715-.714M25.714 19.286c.393 0 .715.32.715.714 0 .393-.323.714-.716.714-.393 0-.714-.32-.714-.714 0-.393.32-.714.714-.714M29.286 40c-.395 0-.715-.32-.715-.714V33.57c0-.393.32-.713.716-.713.395 0 .714.32.714.714v5.716c0 .394-.32.714-.714.714M7.857 40c-.395 0-.714-.32-.714-.714V33.57c0-.393.32-.713.714-.713.395 0 .714.32.714.714v5.716c0 .394-.318.714-.713.714"/><path d="M5 1.43c-.394 0-.714.32-.714.713v30c0 .393.32.714.714.714h27.143c.394 0 .714-.32.714-.714v-30c0-.394-.32-.714-.714-.714h-2.857c-.395 0-.715.32-.715.713v10c0 .394-.318.714-.713.714H9.287c-.396 0-.716-.32-.716-.714v-10c0-.394-.32-.714-.713-.714H5zm27.143 32.856H5c-1.18 0-2.143-.962-2.143-2.143v-30C2.857.96 3.82 0 5 0h2.857C9.04 0 10 .96 10 2.143v9.286h17.143V2.142C27.143.96 28.103 0 29.286 0h2.857c1.18 0 2.143.96 2.143 2.143v30c0 1.18-.962 2.143-2.143 2.143z"/><path d="M27.857 4.286H9.287c-.396 0-.716-.32-.716-.715 0-.393.32-.713.716-.713h18.57c.396 0 .715.32.715.714 0 .396-.318.716-.713.716M27.857 8.57H9.287c-.396 0-.716-.32-.716-.713 0-.394.32-.714.716-.714h18.57c.396 0 .715.32.715.714 0 .394-.318.714-.713.714M8.57 17.143v5c0 .393.32.714.716.714h4.285c.396 0 .716-.32.716-.714v-5H8.57zm5 7.143H9.287c-1.182 0-2.143-.962-2.143-2.143V16.43c0-.396.32-.716.714-.716H15c.395 0 .714.32.714.715v5.713c0 1.18-.96 2.143-2.143 2.143z"/><path d="M11.43 20v.002l.713-.002h-.714zm0 1.43c-.79 0-1.43-.642-1.43-1.43 0-.788.64-1.43 1.43-1.43.786 0 1.427.642 1.427 1.43 0 .788-.64 1.43-1.428 1.43zM22.857 17.143v5c0 .393.32.714.714.714h4.287c.394 0 .714-.32.714-.714v-5h-5.713zm5 7.143H23.57c-1.18 0-2.14-.962-2.14-2.143V16.43c0-.396.318-.716.713-.716h7.143c.395 0 .714.32.714.715v5.713c0 1.18-.96 2.143-2.143 2.143z"/><path d="M25.714 20v.002L26.43 20h-.716zm0 1.43c-.788 0-1.428-.642-1.428-1.43 0-.788.64-1.43 1.428-1.43.787 0 1.43.642 1.43 1.43 0 .788-.643 1.43-1.43 1.43zM7.143 27.143v2.143c0 .393.32.714.714.714h21.43c.393 0 .713-.32.713-.714v-2.143H7.143zm22.143 4.286H7.856c-1.18 0-2.142-.963-2.142-2.144V26.43c0-.396.32-.716.715-.716h24.284c.395 0 .715.32.715.715v2.856c0 1.18-.963 2.143-2.144 2.143z"/><path d="M10.714 28.57c-.395 0-.714-.32-.714-.713V26.43c0-.396.32-.716.714-.716.395 0 .715.32.715.715v1.427c0 .394-.32.714-.716.714M26.43 28.57c-.396 0-.716-.32-.716-.713V26.43c0-.396.32-.716.715-.716.394 0 .713.32.713.715v1.427c0 .394-.32.714-.714.714M15 28.57c-.395 0-.714-.32-.714-.713V26.43c0-.396.32-.716.714-.716.395 0 .714.32.714.715v1.427c0 .394-.32.714-.714.714M22.143 28.57c-.395 0-.714-.32-.714-.713V26.43c0-.396.318-.716.713-.716.395 0 .714.32.714.715v1.427c0 .394-.32.714-.714.714M6.43 5.714c-.396 0-.716-.32-.716-.714V3.57c0-.393.32-.713.715-.713.394 0 .713.32.713.714V5c0 .394-.32.714-.714.714M30.714 5.714C30.32 5.714 30 5.394 30 5V3.57c0-.393.32-.713.714-.713.395 0 .715.32.715.714V5c0 .394-.32.714-.716.714M3.57 25.714H2.144C.96 25.714 0 24.754 0 23.57v-2.856c0-1.18.96-2.143 2.143-2.143H3.57c.396 0 .716.32.716.716 0 .394-.32.714-.715.714H2.144c-.394 0-.714.32-.714.714v2.857c0 .395.32.716.713.716H3.57c.396 0 .716.32.716.714 0 .394-.32.714-.715.714M35 25.714h-1.43c-.394 0-.713-.32-.713-.714 0-.394.32-.714.714-.714H35c.394 0 .714-.32.714-.715v-2.856c0-.393-.32-.714-.714-.714h-1.43c-.394 0-.713-.32-.713-.714 0-.395.32-.715.714-.715H35c1.18 0 2.143.963 2.143 2.144v2.857c0 1.183-.962 2.144-2.143 2.144M29.286 37.143H7.856c-.394 0-.713-.32-.713-.714 0-.396.32-.716.714-.716h21.43c.394 0 .713.32.713.715 0 .393-.32.713-.714.713M6.43 12.857c-.396 0-.716-.32-.716-.714V7.857c0-.394.32-.714.715-.714.394 0 .713.32.713.714v4.286c0 .394-.32.714-.714.714M30.714 12.857c-.395 0-.714-.32-.714-.714V7.857c0-.394.32-.714.714-.714.395 0 .715.32.715.714v4.286c0 .394-.32.714-.716.714"/></g></svg>