<svg width="38" height="40" viewBox="0 0 38 40" xmlns="http://www.w3.org/2000/svg" xmlns:xlink="http://www.w3.org/1999/xlink"><title>Page 1</title><defs><path id="a" d="M0 34.286V0h37.143v34.286z"/></defs><g fill="none" fill-rule="evenodd"><path d="M12.857 17.857c.393 0 .714.322.714.714 0 .394-.32.716-.713.716-.393 0-.714-.322-.714-.715 0-.39.32-.713.714-.713M24.286 17.857c.393 0 .714.322.714.714 0 .394-.32.716-.714.716-.393 0-.715-.322-.715-.715 0-.39.323-.713.716-.713M29.286 40c-.395 0-.715-.32-.715-.714V33.57c0-.394.32-.713.716-.713.395 0 .714.32.714.714v5.716c0 .395-.32.714-.714.714M7.857 40c-.395 0-.714-.32-.714-.714V33.57c0-.394.32-.713.714-.713.395 0 .714.32.714.714v5.716c0 .395-.318.714-.713.714" fill="#2C2B3A"/><path d="M29.286 37.143H7.856c-.394 0-.713-.32-.713-.714 0-.396.32-.716.714-.716h21.43c.394 0 .713.32.713.715 0 .394-.32.713-.714.713" fill="#2C2B3A"/><g><mask id="b" fill="#fff"><use xlink:href="#a"/></mask><path d="M8.098 32.857h20.946c4.06-3.156 6.67-8.735 6.67-14.286 0-9.45-7.69-17.14-17.143-17.14C9.12 1.43 1.43 9.12 1.43 18.57c0 5.552 2.612 11.13 6.67 14.287m21.188 1.43H7.856c-.154 0-.305-.05-.428-.144C2.917 30.753 0 24.64 0 18.57 0 8.33 8.33 0 18.57 0c10.242 0 18.573 8.33 18.573 18.57 0 6.07-2.916 12.184-7.428 15.573-.124.093-.274.143-.43.143" fill="#2C2B3A" mask="url(#b)"/></g><path d="M29.286 34.286c-.395 0-.715-.32-.715-.715v-15c0-2.004-.594-3.945-1.72-5.613-1.873-2.745-4.97-4.386-8.28-4.386-2.67 0-5.18 1.043-7.064 2.934-.45.444-.858.932-1.217 1.457-1.124 1.665-1.72 3.606-1.72 5.61v15c0 .396-.318.716-.713.716-.395 0-.714-.32-.714-.715v-15c0-2.29.68-4.507 1.965-6.413.413-.603.88-1.163 1.39-1.666 2.15-2.156 5.02-3.347 8.073-3.347 3.784 0 7.32 1.873 9.463 5.012C29.32 14.063 30 16.28 30 18.57v15c0 .396-.32.716-.714.716M7.143 10v.002L7.858 10h-.714zm0 1.43c-.788 0-1.43-.643-1.43-1.43 0-.788.642-1.43 1.43-1.43.787 0 1.428.642 1.428 1.43 0 .374-.137.72-.4.997-.31.293-.654.432-1.027.432z" fill="#2C2B3A"/><path d="M9.7 13.271c-.183.002-.366-.07-.505-.208l-2.557-2.557c-.28-.28-.28-.73 0-1.01s.73-.28 1.01 0l2.557 2.557c.28.28.28.73 0 1.01-.14.14-.322.21-.505.21M30 11.43c-.374 0-.72-.14-.997-.403-.293-.308-.432-.653-.432-1.027 0-.788.642-1.43 1.43-1.43.787 0 1.43.642 1.43 1.43 0 .787-.643 1.43-1.43 1.43" fill="#2C2B3A"/><path d="M27.443 13.271c-.183.002-.366-.07-.505-.208-.28-.28-.28-.73 0-1.01l2.557-2.557c.28-.28.73-.28 1.01 0s.28.73 0 1.01l-2.557 2.557c-.14.14-.322.21-.505.21M12.857 18.57v.004l.714-.003h-.713zm0 1.43c-.788 0-1.428-.64-1.428-1.43 0-.786.64-1.427 1.427-1.427s1.43.64 1.43 1.428c0 .79-.643 1.43-1.43 1.43zM24.286 18.57v.004L25 18.57h-.714zm0 1.43c-.788 0-1.43-.64-1.43-1.43 0-.786.642-1.427 1.43-1.427.787 0 1.428.64 1.428 1.428 0 .79-.64 1.43-1.428 1.43zM18.57 27.143c-2.362 0-4.284-1.922-4.284-4.286 0-.395.32-.714.714-.714.395 0 .714.32.714.714 0 1.576 1.282 2.857 2.857 2.857 1.577 0 2.86-1.28 2.86-2.857 0-.395.318-.714.713-.714.395 0 .714.32.714.714 0 2.364-1.922 4.286-4.286 4.286M14.286 34.286c-.395 0-.715-.32-.715-.715v-2.14H7.858c-.395 0-.714-.32-.714-.716 0-.395.32-.714.714-.714h6.43c.394 0 .713.32.713.714v2.857c0 .396-.32.716-.714.716M22.857 34.286c-.395 0-.714-.32-.714-.715v-2.856c0-.395.32-.714.714-.714h6.43c.394 0 .713.32.713.714 0 .395-.32.715-.714.715H23.57v2.14c0 .396-.318.716-.713.716M20.714 31.43H16.43c-.396 0-.716-.32-.716-.716 0-.395.32-.714.715-.714h4.284c.395 0 .715.32.715.714 0 .395-.32.715-.716.715" fill="#2C2B3A"/></g></svg>