<svg xmlns="http://www.w3.org/2000/svg" width="414" height="416.2" viewBox="0 0 414 416.2"><path class="st0" d="M2.7 209.4C2.6 115.2 67 32 158 9.4c53.3-13.2 104.4-6.6 152.5 20.5 4.3 2.4 6.7 2 9.5-1.9 5-7.1 10.4-13.9 15.6-20.8 3.8-5 5.2-4.8 7.6.9 16.3 38.8 32.6 77.7 48.7 116.5 1.3 3.1 4.8 6.6 2.3 9.5-2.5 2.9-6.6 0-9.8-.7-38.2-8.7-76.5-17.6-114.7-26.4-7.4-1.7-7.6-2.3-3-8.5 5.4-7.2 10.8-14.4 16.2-21.5 3.8-5 3.5-6.4-1.9-9.1-76.2-39.1-171.7-9.3-211.7 66.1-49.8 93.8 2.3 207.2 105.8 230.6 86.7 19.6 174.3-38.5 190-126 1.6-8.6 4.5-10.6 13.2-8.9 8.3 1.7 16.7 3.2 25 4.9 7.9 1.6 10.1 5.2 8.6 13.3-4.6 23.9-12.9 46.5-25.6 67.2-32.4 52.8-79.1 85.5-139.9 97.4-86.9 17-178.1-27.3-219.5-106-16-30.3-24.3-62.7-24.2-97.1z"/></svg>