<svg width="37" height="40" viewBox="0 0 37 40" xmlns="http://www.w3.org/2000/svg" xmlns:xlink="http://www.w3.org/1999/xlink"><title>Page 1</title><defs><path id="a" d="M8.42 0v8.42H0V0h8.42z"/><path id="c" d="M8.42.022V2.47H0V.022h8.42z"/></defs><g fill="none" fill-rule="evenodd"><path d="M4.21 6.996c.387 0 .702.315.702.7 0 .387-.315.703-.7.703-.387 0-.703-.317-.703-.703 0-.386.315-.7.7-.7M32.28 6.996c.387 0 .703.315.703.7 0 .387-.316.703-.702.703-.385 0-.7-.317-.7-.703 0-.386.315-.7.7-.7" fill="#2C2B3A"/><path d="M4.21 4.89c-1.547 0-2.806 1.26-2.806 2.807 0 1.548 1.26 2.807 2.807 2.807.173 0 .344-.016.51-.05h.01c1.13-.208 2.03-1.107 2.236-2.238.036-.175.052-.345.052-.52 0-1.547-1.26-2.806-2.807-2.806m0 7.018c-2.32 0-4.21-1.89-4.21-4.21 0-2.323 1.89-4.21 4.21-4.21 2.323 0 4.21 1.887 4.21 4.21 0 .265-.025.528-.075.782-.31 1.688-1.66 3.04-3.357 3.353-.254.05-.516.075-.777.075" fill="#2C2B3A"/><path d="M4.21 7.697V7.7l.702-.003h-.7zm0 1.404c-.773 0-1.403-.63-1.403-1.403 0-.774.63-1.403 1.404-1.403.775 0 1.404.63 1.404 1.403 0 .774-.63 1.404-1.403 1.404zM7.72 3.15c-.135 0-.272-.04-.392-.12-1.847-1.24-4.388-1.24-6.235 0-.322.218-.758.13-.974-.19-.217-.323-.13-.758.19-.975 2.31-1.55 5.49-1.55 7.8 0 .322.217.408.652.192.974-.136.2-.357.31-.583.31M20.35 17.522h-4.21c-.185 0-.364-.074-.496-.206L7.167 8.84c-.274-.275-.274-.72 0-.993.275-.275.718-.275.992 0l8.27 8.27h3.63l8.272-8.27c.274-.275.718-.275.992 0 .275.274.275.718 0 .992l-8.477 8.476c-.13.132-.31.206-.496.206" fill="#2C2B3A"/><g transform="translate(28.07 3.487)"><mask id="b" fill="#fff"><use xlink:href="#a"/></mask><path d="M4.21 1.404c-1.547 0-2.806 1.258-2.806 2.807 0 .174.016.344.05.51.21 1.14 1.107 2.04 2.237 2.246l.012.002c.166.033.337.05.51.05 1.547 0 2.806-1.26 2.806-2.807 0-1.548-1.26-2.806-2.807-2.806m0 7.017c-.26 0-.523-.024-.776-.074C1.736 8.032.386 6.68.074 4.983.027 4.74 0 4.476 0 4.21 0 1.89 1.89 0 4.21 0c2.323 0 4.21 1.888 4.21 4.21 0 2.323-1.887 4.21-4.21 4.21" fill="#2C2B3A" mask="url(#b)"/></g><path d="M32.28 7.695l-.7.002h.7v-.002m0 1.406c-.773 0-1.403-.63-1.403-1.403 0-.774.63-1.403 1.404-1.403.775 0 1.404.63 1.404 1.403 0 .774-.63 1.404-1.403 1.404" fill="#2C2B3A"/><g transform="translate(28.07 .68)"><mask id="d" fill="#fff"><use xlink:href="#c"/></mask><path d="M7.72 2.47c-.135 0-.272-.04-.392-.12-1.847-1.24-4.388-1.24-6.235 0-.322.218-.758.13-.974-.19-.217-.322-.13-.758.19-.974 2.31-1.552 5.49-1.552 7.8 0 .322.216.408.652.192.974-.136.2-.357.31-.583.31" fill="#2C2B3A" mask="url(#d)"/></g><path d="M28.772 39.978c-.387 0-.702-.314-.702-.702V32.26c0-.39.315-.703.702-.703h2.105v-6.025l-6.812-6.812c-.274-.275-.274-.718 0-.992l7.074-7.074c.273-.275.717-.275.99 0 .276.274.276.718 0 .992l-6.576 6.578 6.52 6.52c.133.132.207.31.207.497v7.02c0 .387-.314.7-.7.7h-2.106v6.316c0 .388-.315.702-.702.702M7.72 39.978c-.388 0-.702-.314-.702-.702V32.96H4.912c-.387 0-.7-.313-.7-.7v-7.02c0-.185.072-.364.204-.495l6.522-6.52-6.578-6.58c-.274-.273-.274-.717 0-.99.275-.276.718-.276.992 0l7.074 7.073c.274.274.274.717 0 .992l-6.812 6.812v6.025H7.72c.387 0 .7.314.7.702v7.016c0 .388-.313.702-.7.702" fill="#2C2B3A"/><path d="M28.772 37.17H7.72c-.388 0-.702-.313-.702-.7 0-.39.314-.702.7-.702h21.054c.387 0 .702.313.702.7 0 .39-.315.703-.702.703M8.42 28.75h19.65v-1.815l-2.395-2.396H10.817L8.42 26.934v1.815zm20.352 1.403H7.72c-.388 0-.702-.313-.702-.7v-2.808c0-.187.073-.365.205-.496l2.807-2.808c.132-.132.31-.206.496-.206h15.44c.185 0 .364.074.495.206l2.808 2.807c.132.13.206.308.206.495v2.807c0 .388-.315.7-.702.7z" fill="#2C2B3A"/><path d="M28.772 27.346H7.72c-.388 0-.702-.313-.702-.7 0-.39.314-.703.7-.703h21.054c.387 0 .702.314.702.702 0 .388-.315.7-.702.7M23.158 21.732c-.18 0-.36-.068-.496-.205l-1.198-1.198h-6.436l-1.198 1.197c-.275.274-.718.274-.993 0-.274-.275-.274-.718 0-.992l1.404-1.404c.132-.13.31-.205.497-.205h7.018c.185 0 .364.074.496.206l1.404 1.405c.275.274.275.717 0 .992-.137.137-.316.205-.496.205M25.965 34.364h-15.44c-.386 0-.7-.314-.7-.702 0-.388.314-.702.7-.702h15.44c.387 0 .702.314.702.702 0 .388-.315.702-.702.702M4.912 31.557H3.51c-1.162 0-2.106-.945-2.106-2.105v-1.404c0-1.16.944-2.105 2.105-2.105H4.91c.388 0 .702.314.702.702 0 .388-.314.7-.702.7H3.51c-.388 0-.703.316-.703.703v1.404c0 .387.315.7.702.7H4.91c.388 0 .702.315.702.703 0 .388-.314.702-.702.702M32.983 31.557H31.58c-.388 0-.703-.314-.703-.702 0-.388.315-.702.702-.702h1.403c.386 0 .7-.314.7-.7v-1.405c0-.387-.314-.702-.7-.702H31.58c-.388 0-.703-.313-.703-.7 0-.39.315-.703.702-.703h1.403c1.16 0 2.105.945 2.105 2.105v1.404c0 1.16-.945 2.105-2.105 2.105" fill="#2C2B3A"/></g></svg>