<svg viewBox="0 0 49 100" xmlns="http://www.w3.org/2000/svg">
  <title>
    img-samsung
  </title>
  <path d="M7.333 0h34.334C45.717 0 49 3.283 49 7.333v85.334c0 4.05-3.283 7.333-7.333 7.333H7.333C3.283 100 0 96.717 0 92.667V7.333C0 3.283 3.283 0 7.333 0zm13.73 2c-.51 0-.926.415-.926.926 0 .51.415.926.926.926h6.874c.51 0 .926-.415.926-.926 0-.51-.415-.926-.926-.926h-6.874zm-5.377 0c-.508 0-.92.41-.92.92v.013c0 .508.412.92.92.92.507 0 .92-.412.92-.92V2.92c0-.51-.413-.92-.92-.92zm21.48 0c-.508 0-.92.41-.92.92v.013c0 .508.412.92.92.92.507 0 .918-.412.918-.92V2.92c0-.51-.41-.92-.92-.92zM34.48 2c-.507 0-.918.41-.918.92v.013c0 .508.41.92.918.92s.92-.412.92-.92V2.92c0-.51-.412-.92-.92-.92zM8.676 5.333c-4.05 0-7.334 3.284-7.334 7.334v76c0 4.05 3.284 7.333 7.334 7.333h31.648c4.05 0 7.334-3.283 7.334-7.333v-76c0-4.05-3.284-7.334-7.334-7.334H8.676z" fill="#1F7ADC" fill-rule="evenodd"/>
</svg>
