<svg viewBox="0 0 68 99" xmlns="http://www.w3.org/2000/svg" xmlns:xlink="http://www.w3.org/1999/xlink">
  <title>
    img-ipad
  </title>
  <defs>
    <path id="a" d="M0 98.578h67.08V.278H0z"/>
  </defs>
  <g fill="none" fill-rule="evenodd">
    <path d="M33.544 93.39c-.742 0-1.346.618-1.346 1.375s.604 1.377 1.346 1.377c.742 0 1.347-.62 1.347-1.377s-.604-1.374-1.346-1.374" fill="#0B6ED9"/>
    <g transform="translate(0 .078)">
      <mask id="b" fill="#fff">
        <use xlink:href="#a"/>
      </mask>
      <path d="M64.52 90.273c0 .253-.2.458-.45.458H3.01c-.246 0-.446-.204-.446-.457V8.583c0-.25.2-.454.446-.454h61.06c.25 0 .45.204.45.454v81.69zm-30.975 6.82c-1.3 0-2.36-1.077-2.36-2.405 0-1.328 1.06-2.406 2.36-2.406 1.3 0 2.355 1.078 2.355 2.406s-1.056 2.405-2.355 2.405zm-.018-93.647c.496 0 .897.41.897.915 0 .51-.4.915-.897.915s-.897-.405-.897-.914c0-.505.4-.914.897-.914zM63.27.28H3.808C1.707.28 0 2.022 0 4.166V94.69c0 2.144 1.707 3.89 3.807 3.89H63.27c2.1 0 3.81-1.746 3.81-3.89V4.167c0-2.144-1.71-3.888-3.81-3.888z" fill="#1F7ADC" mask="url(#b)"/>
    </g>
  </g>
</svg>
