<?xml version="1.0" encoding="UTF-8" standalone="no"?>
<svg width="184px" height="26px" viewBox="0 0 184 26" version="1.1" xmlns="http://www.w3.org/2000/svg" xmlns:xlink="http://www.w3.org/1999/xlink">
    <!-- Generator: Sketch 47.1 (45422) - http://www.bohemiancoding.com/sketch -->
    <title>logo text</title>
    <desc>Created with Sketch.</desc>
    <defs></defs>
    <g id="DESKTOP" stroke="none" stroke-width="1" fill="none" fill-rule="evenodd">
        <g id="INDEX" transform="translate(-178.000000, -4395.000000)">
            <g id="CONTENT" transform="translate(107.000000, 270.000000)">
                <g id="SEO-text" transform="translate(28.000000, 3929.000000)">
                    <g id="logo" transform="translate(43.000000, 196.000000)">
                        <g id="logo-text">
                            <path d="M6.82215385,3.8982069 C6.82215385,4.30703653 6.74253926,4.68896374 6.58330769,5.044 C6.42407613,5.39903626 6.21177056,5.70565388 5.94638462,5.96386207 C5.68099867,6.22207026 5.36254032,6.42648201 4.991,6.57710345 C4.61945968,6.72772489 4.23200202,6.80303448 3.82861538,6.80303448 C2.97938037,6.80303448 2.26815671,6.51793389 1.69492308,5.94772414 C1.12168944,5.37751439 0.835076923,4.69434881 0.835076923,3.8982069 C0.835076923,3.51089462 0.909383872,3.13972591 1.058,2.78468966 C1.20661613,2.4296534 1.4189217,2.12303577 1.69492308,1.86482759 C1.97092446,1.6066194 2.28938281,1.39682839 2.65030769,1.23544828 C3.01123257,1.07406816 3.40399788,0.99337931 3.82861538,0.99337931 C4.23200202,0.99337931 4.61945968,1.0686889 4.991,1.21931034 C5.36254032,1.36993179 5.68099867,1.57434354 5.94638462,1.83255172 C6.21177056,2.09075991 6.42407613,2.39737754 6.58330769,2.75241379 C6.74253926,3.10745005 6.82215385,3.48937727 6.82215385,3.8982069 Z M1.21723077,25.1034483 L1.21723077,9.03006897 L6.44,9.03006897 L6.44,25.1034483 L1.21723077,25.1034483 Z M86.4693846,8.19089655 C86.0023054,7.58841078 85.3919268,7.10965695 84.6382308,6.75462069 C83.8845347,6.39958443 83.1573881,6.22206897 82.4567692,6.22206897 C82.0958443,6.22206897 81.7296172,6.2543445 81.3580769,6.31889655 C80.9865366,6.3834486 80.6521553,6.5071715 80.3549231,6.69006897 C80.0576908,6.87296643 79.8082318,7.10965372 79.6065385,7.40013793 C79.4048451,7.69062214 79.304,8.06179084 79.304,8.51365517 C79.304,8.90096745 79.3836146,9.22372285 79.5428462,9.48193103 C79.7020777,9.74013922 79.9356138,9.966068 80.2434615,10.1597241 C80.5513092,10.3533803 80.9175363,10.5308957 81.3421538,10.6922759 C81.7667714,10.853656 82.2444589,11.0204129 82.7752308,11.1925517 C83.5395423,11.4507599 84.3356882,11.7358605 85.1636923,12.0478621 C85.9916964,12.3598636 86.7453812,12.7740664 87.4247692,13.2904828 C88.1041572,13.8068991 88.666767,14.4470307 89.1126154,15.2108966 C89.5584638,15.9747624 89.7813846,16.9268908 89.7813846,18.0673103 C89.7813846,19.3798686 89.5425409,20.5148918 89.0648462,21.4724138 C88.5871515,22.4299358 87.9449271,23.2206865 87.1381538,23.8446897 C86.3313806,24.4686928 85.4078514,24.9313088 84.3675385,25.2325517 C83.3272256,25.5337946 82.2550824,25.6844138 81.1510769,25.6844138 C79.5375304,25.6844138 77.9770845,25.3993132 76.4696923,24.8291034 C74.9623002,24.2588937 73.7096973,23.446626 72.7118462,22.3922759 L76.2786154,18.7128276 C76.8306181,19.4013828 77.5577647,19.9769632 78.4600769,20.4395862 C79.3623891,20.9022092 80.2593802,21.1335172 81.1510769,21.1335172 C81.5544636,21.1335172 81.9472289,21.0904832 82.3293846,21.0044138 C82.7115404,20.9183444 83.0459216,20.7784837 83.3325385,20.5848276 C83.6191553,20.3911714 83.8473838,20.1329671 84.0172308,19.8102069 C84.1870778,19.4874467 84.272,19.1001402 84.272,18.6482759 C84.272,18.2179289 84.1658472,17.8521394 83.9535385,17.5508966 C83.7412297,17.2496537 83.4386943,16.9753116 83.0459231,16.7278621 C82.6531519,16.4804126 82.1648491,16.2544838 81.581,16.050069 C80.9971509,15.8456542 80.333696,15.6251046 79.5906154,15.3884138 C78.8687656,15.151723 78.1628496,14.8720016 77.4728462,14.5492414 C76.7828427,14.2264811 76.1671566,13.8122784 75.6257692,13.3066207 C75.0843819,12.800963 74.6491555,12.1877277 74.3200769,11.4668966 C73.9909984,10.7460654 73.8264615,9.86924654 73.8264615,8.83641379 C73.8264615,7.5668902 74.0812282,6.48028038 74.5907692,5.57655172 C75.1003102,4.67282307 75.7690728,3.93048566 76.5970769,3.34951724 C77.4250811,2.76854882 78.3592256,2.34358755 79.3995385,2.07462069 C80.4398514,1.80565383 81.4907639,1.67117241 82.5523077,1.67117241 C83.8261602,1.67117241 85.1265318,1.9078597 86.4534615,2.38124138 C87.7803913,2.85462306 88.9427642,3.55392641 89.9406154,4.47917241 L86.4693846,8.19089655 Z M104.016615,15.2270345 C104.016615,14.3878579 103.756541,13.6670375 103.236385,13.0645517 C102.716228,12.462066 101.936005,12.1608276 100.895692,12.1608276 C100.386151,12.1608276 99.919079,12.2415164 99.4944615,12.4028966 C99.069844,12.5642767 98.6983093,12.7848262 98.3798462,13.0645517 C98.061383,13.3442773 97.8066163,13.6724119 97.6155385,14.0489655 C97.4244606,14.4255191 97.3183078,14.8182049 97.2970769,15.2270345 L104.016615,15.2270345 Z M108.825385,17.2604138 L108.825385,17.905931 C108.825385,18.1211045 108.814769,18.3255163 108.793538,18.5191724 L97.2970769,18.5191724 C97.3395387,18.9710367 97.4722297,19.3798602 97.6951538,19.7456552 C97.918078,20.1114501 98.2046906,20.4288262 98.555,20.6977931 C98.9053094,20.96676 99.2980747,21.176551 99.7333077,21.3271724 C100.168541,21.4777939 100.61969,21.5531034 101.086769,21.5531034 C101.914773,21.5531034 102.615382,21.397105 103.188615,21.0851034 C103.761849,20.7731019 104.228921,20.3696576 104.589846,19.8747586 L108.220308,22.1986207 C107.477227,23.2960055 106.495314,24.1405488 105.274538,24.7322759 C104.053763,25.324003 102.636623,25.6198621 101.023077,25.6198621 C99.8341479,25.6198621 98.7089284,25.4315881 97.6473846,25.0550345 C96.5858408,24.6784809 95.657004,24.1297967 94.8608462,23.4089655 C94.0646883,22.6881343 93.4383869,21.800557 92.9819231,20.7462069 C92.5254593,19.6918568 92.2972308,18.4869033 92.2972308,17.1313103 C92.2972308,15.8187521 92.5201516,14.6299364 92.966,13.5648276 C93.4118484,12.4997188 94.0169193,11.5960037 94.7812308,10.8536552 C95.5455423,10.1113066 96.447841,9.53572618 97.4881538,9.12689655 C98.5284667,8.71806692 99.6536863,8.51365517 100.863846,8.51365517 C102.031544,8.51365517 103.103687,8.71268766 104.080308,9.11075862 C105.056928,9.50882958 105.895535,10.08441 106.596154,10.8375172 C107.296773,11.5906245 107.84346,12.5050981 108.236231,13.5809655 C108.629002,14.656833 108.825385,15.8833035 108.825385,17.2604138 Z M122.36,13.3550345 C122.12646,13.2904824 121.898232,13.2474484 121.675308,13.225931 C121.452384,13.2044137 121.23477,13.1936552 121.022462,13.1936552 C120.321843,13.1936552 119.732695,13.3227573 119.255,13.5809655 C118.777305,13.8391737 118.395155,14.1511706 118.108538,14.5169655 C117.821922,14.8827604 117.614924,15.2808254 117.487538,15.7111724 C117.360153,16.1415194 117.296462,16.5180674 117.296462,16.8408276 L117.296462,25.1034483 L112.073692,25.1034483 L112.073692,9.03006897 L117.105385,9.03006897 L117.105385,11.353931 L117.169077,11.353931 C117.572464,10.5362718 118.145689,9.86924396 118.888769,9.35282759 C119.63185,8.83641121 120.491687,8.5782069 121.468308,8.5782069 C121.680616,8.5782069 121.887614,8.58896541 122.089308,8.61048276 C122.291001,8.63200011 122.455538,8.66427565 122.582923,8.70731034 L122.36,13.3550345 Z M134.493385,25.1034483 L128.856615,25.1034483 L122.614769,9.03006897 L128.378923,9.03006897 L131.722769,19.4551724 L131.818308,19.4551724 L135.162154,9.03006897 L140.735231,9.03006897 L134.493385,25.1034483 Z M148.410154,3.8982069 C148.410154,4.30703653 148.330539,4.68896374 148.171308,5.044 C148.012076,5.39903626 147.799771,5.70565388 147.534385,5.96386207 C147.268999,6.22207026 146.95054,6.42648201 146.579,6.57710345 C146.20746,6.72772489 145.820002,6.80303448 145.416615,6.80303448 C144.56738,6.80303448 143.856157,6.51793389 143.282923,5.94772414 C142.709689,5.37751439 142.423077,4.69434881 142.423077,3.8982069 C142.423077,3.51089462 142.497384,3.13972591 142.646,2.78468966 C142.794616,2.4296534 143.006922,2.12303577 143.282923,1.86482759 C143.558924,1.6066194 143.877383,1.39682839 144.238308,1.23544828 C144.599233,1.07406816 144.991998,0.99337931 145.416615,0.99337931 C145.820002,0.99337931 146.20746,1.0686889 146.579,1.21931034 C146.95054,1.36993179 147.268999,1.57434354 147.534385,1.83255172 C147.799771,2.09075991 148.012076,2.39737754 148.171308,2.75241379 C148.330539,3.10745005 148.410154,3.48937727 148.410154,3.8982069 Z M142.805231,25.1034483 L142.805231,9.03006897 L148.028,9.03006897 L148.028,25.1034483 L142.805231,25.1034483 Z M163.091231,14.2264828 C162.793999,13.8391705 162.390618,13.5271736 161.881077,13.2904828 C161.371536,13.0537919 160.851387,12.9354483 160.320615,12.9354483 C159.768613,12.9354483 159.269695,13.0484127 158.823846,13.2743448 C158.377998,13.500277 157.995848,13.8015154 157.677385,14.178069 C157.358921,14.5546226 157.109462,14.9903424 156.929,15.4852414 C156.748538,15.9801404 156.658308,16.5073075 156.658308,17.0667586 C156.658308,17.6262097 156.74323,18.1533768 156.913077,18.6482759 C157.082924,19.1431749 157.332383,19.5788947 157.661462,19.9554483 C157.99054,20.3320019 158.383305,20.627861 158.839769,20.8430345 C159.296233,21.058208 159.811074,21.1657931 160.384308,21.1657931 C160.91508,21.1657931 161.440536,21.0635872 161.960692,20.8591724 C162.480849,20.6547576 162.900152,20.3588985 163.218615,19.9715862 L166.116615,23.5542069 C165.458458,24.1997274 164.609236,24.7053775 163.568923,25.0711724 C162.52861,25.4369673 161.424621,25.6198621 160.256923,25.6198621 C159.004301,25.6198621 157.836621,25.4262088 156.753846,25.0388966 C155.671072,24.6515843 154.731619,24.0867623 153.935462,23.3444138 C153.139304,22.6020653 152.513002,21.7037294 152.056538,20.6493793 C151.600075,19.5950292 151.371846,18.4008343 151.371846,17.0667586 C151.371846,15.7542003 151.600075,14.5707639 152.056538,13.5164138 C152.513002,12.4620637 153.139304,11.5637278 153.935462,10.8213793 C154.731619,10.0790308 155.671072,9.50882958 156.753846,9.11075862 C157.836621,8.71268766 158.993686,8.51365517 160.225077,8.51365517 C160.798311,8.51365517 161.366228,8.56744774 161.928846,8.67503448 C162.491464,8.78262123 163.032844,8.92786115 163.553,9.11075862 C164.073156,9.29365609 164.550844,9.51958486 164.986077,9.78855172 C165.42131,10.0575186 165.798152,10.3533777 166.116615,10.6761379 L163.091231,14.2264828 Z M179.109846,15.2270345 C179.109846,14.3878579 178.849772,13.6670375 178.329615,13.0645517 C177.809459,12.462066 177.029236,12.1608276 175.988923,12.1608276 C175.479382,12.1608276 175.01231,12.2415164 174.587692,12.4028966 C174.163075,12.5642767 173.79154,12.7848262 173.473077,13.0645517 C173.154614,13.3442773 172.899847,13.6724119 172.708769,14.0489655 C172.517691,14.4255191 172.411539,14.8182049 172.390308,15.2270345 L179.109846,15.2270345 Z M183.918615,17.2604138 L183.918615,17.905931 C183.918615,18.1211045 183.908,18.3255163 183.886769,18.5191724 L172.390308,18.5191724 C172.432769,18.9710367 172.56546,19.3798602 172.788385,19.7456552 C173.011309,20.1114501 173.297921,20.4288262 173.648231,20.6977931 C173.99854,20.96676 174.391306,21.176551 174.826538,21.3271724 C175.261771,21.4777939 175.712921,21.5531034 176.18,21.5531034 C177.008004,21.5531034 177.708613,21.397105 178.281846,21.0851034 C178.85508,20.7731019 179.322152,20.3696576 179.683077,19.8747586 L183.313538,22.1986207 C182.570458,23.2960055 181.588545,24.1405488 180.367769,24.7322759 C179.146994,25.324003 177.729854,25.6198621 176.116308,25.6198621 C174.927379,25.6198621 173.802159,25.4315881 172.740615,25.0550345 C171.679072,24.6784809 170.750235,24.1297967 169.954077,23.4089655 C169.157919,22.6881343 168.531618,21.800557 168.075154,20.7462069 C167.61869,19.6918568 167.390462,18.4869033 167.390462,17.1313103 C167.390462,15.8187521 167.613382,14.6299364 168.059231,13.5648276 C168.505079,12.4997188 169.11015,11.5960037 169.874462,10.8536552 C170.638773,10.1113066 171.541072,9.53572618 172.581385,9.12689655 C173.621698,8.71806692 174.746917,8.51365517 175.957077,8.51365517 C177.124775,8.51365517 178.196918,8.71268766 179.173538,9.11075862 C180.150159,9.50882958 180.988766,10.08441 181.689385,10.8375172 C182.390004,11.5906245 182.93669,12.5050981 183.329462,13.5809655 C183.722233,14.656833 183.918615,15.8833035 183.918615,17.2604138 Z" id="i-Service" fill="#2C2B3A"></path>
                            <path d="M11.1709231,25.1034483 L11.1709231,2.25213793 L16.6484615,2.25213793 L16.6484615,20.2943448 L25.3743077,20.2943448 L25.3743077,25.1034483 L11.1709231,25.1034483 Z M33.304,3.8982069 C33.304,4.30703653 33.2243854,4.68896374 33.0651538,5.044 C32.9059223,5.39903626 32.6936167,5.70565388 32.4282308,5.96386207 C32.1628448,6.22207026 31.8443865,6.42648201 31.4728462,6.57710345 C31.1013058,6.72772489 30.7138482,6.80303448 30.3104615,6.80303448 C29.4612265,6.80303448 28.7500029,6.51793389 28.1767692,5.94772414 C27.6035356,5.37751439 27.3169231,4.69434881 27.3169231,3.8982069 C27.3169231,3.51089462 27.39123,3.13972591 27.5398462,2.78468966 C27.6884623,2.4296534 27.9007679,2.12303577 28.1767692,1.86482759 C28.4527706,1.6066194 28.771229,1.39682839 29.1321538,1.23544828 C29.4930787,1.07406816 29.885844,0.99337931 30.3104615,0.99337931 C30.7138482,0.99337931 31.1013058,1.0686889 31.4728462,1.21931034 C31.8443865,1.36993179 32.1628448,1.57434354 32.4282308,1.83255172 C32.6936167,2.09075991 32.9059223,2.39737754 33.0651538,2.75241379 C33.2243854,3.10745005 33.304,3.48937727 33.304,3.8982069 Z M27.6990769,25.1034483 L27.6990769,9.03006897 L32.9218462,9.03006897 L32.9218462,25.1034483 L27.6990769,25.1034483 Z M54.0995385,25.1034483 L47.6347692,25.1034483 L42.4438462,17.3895172 L42.3483077,17.3895172 L42.3483077,25.1034483 L37.0936923,25.1034483 L37.0936923,0.702896552 L42.3483077,0.702896552 L42.3483077,15.5497931 L42.4438462,15.5497931 L47.5073846,9.03006897 L53.8447692,9.03006897 L47.7303077,16.2921379 L54.0995385,25.1034483 Z M66.3603077,15.2270345 C66.3603077,14.3878579 66.1002334,13.6670375 65.5800769,13.0645517 C65.0599205,12.462066 64.2796975,12.1608276 63.2393846,12.1608276 C62.7298436,12.1608276 62.2627714,12.2415164 61.8381538,12.4028966 C61.4135363,12.5642767 61.0420016,12.7848262 60.7235385,13.0645517 C60.4050753,13.3442773 60.1503086,13.6724119 59.9592308,14.0489655 C59.7681529,14.4255191 59.6620001,14.8182049 59.6407692,15.2270345 L66.3603077,15.2270345 Z M71.1690769,17.2604138 L71.1690769,17.905931 C71.1690769,18.1211045 71.1584616,18.3255163 71.1372308,18.5191724 L59.6407692,18.5191724 C59.683231,18.9710367 59.815922,19.3798602 60.0388462,19.7456552 C60.2617703,20.1114501 60.5483829,20.4288262 60.8986923,20.6977931 C61.2490018,20.96676 61.6417671,21.176551 62.077,21.3271724 C62.5122329,21.4777939 62.9633823,21.5531034 63.4304615,21.5531034 C64.2584657,21.5531034 64.9590741,21.397105 65.5323077,21.0851034 C66.1055413,20.7731019 66.5726136,20.3696576 66.9335385,19.8747586 L70.564,22.1986207 C69.8209194,23.2960055 68.8390061,24.1405488 67.6182308,24.7322759 C66.3974554,25.324003 64.9803158,25.6198621 63.3667692,25.6198621 C62.1778402,25.6198621 61.0526207,25.4315881 59.9910769,25.0550345 C58.9295332,24.6784809 58.0006963,24.1297967 57.2045385,23.4089655 C56.4083806,22.6881343 55.7820792,21.800557 55.3256154,20.7462069 C54.8691516,19.6918568 54.6409231,18.4869033 54.6409231,17.1313103 C54.6409231,15.8187521 54.8638439,14.6299364 55.3096923,13.5648276 C55.7555407,12.4997188 56.3606116,11.5960037 57.1249231,10.8536552 C57.8892346,10.1113066 58.7915333,9.53572618 59.8318462,9.12689655 C60.872159,8.71806692 61.9973786,8.51365517 63.2075385,8.51365517 C64.3752366,8.51365517 65.4473797,8.71268766 66.424,9.11075862 C67.4006203,9.50882958 68.2392273,10.08441 68.9398462,10.8375172 C69.640465,11.5906245 70.1871519,12.5050981 70.5799231,13.5809655 C70.9726943,14.656833 71.1690769,15.8833035 71.1690769,17.2604138 Z" id="Like" fill="#0092FF"></path>
                        </g>
                    </g>
                </g>
            </g>
        </g>
    </g>
</svg>