<?xml version="1.0" encoding="UTF-8" standalone="no"?>
<svg width="175px" height="24px" viewBox="0 0 175 24" version="1.1" xmlns="http://www.w3.org/2000/svg" xmlns:xlink="http://www.w3.org/1999/xlink">
    <!-- Generator: Sketch 47.1 (45422) - http://www.bohemiancoding.com/sketch -->
    <title>logo text</title>
    <desc>Created with Sketch.</desc>
    <defs></defs>
    <g id="Symbols" stroke="none" stroke-width="1" fill="none" fill-rule="evenodd">
        <g id="header/desktop-2" transform="translate(-141.000000, -90.000000)">
            <g id="HEADER">
                <g id="middel-panel" transform="translate(141.000000, 70.000000)">
                    <g id="logo" transform="translate(0.000000, 12.000000)">
                        <g id="logo-text" transform="translate(0.000000, 8.000000)">
                            <path d="M6.48846154,3.59834483 C6.48846154,3.97572602 6.41274114,4.32827422 6.26129808,4.656 C6.10985501,4.98372578 5.90793395,5.26675743 5.65552885,5.50510345 C5.40312374,5.74344947 5.10024215,5.93213724 4.746875,6.07117241 C4.39350785,6.21020759 4.02500192,6.27972414 3.64134615,6.27972414 C2.83364981,6.27972414 2.15721426,6.01655436 1.61201923,5.4902069 C1.0668242,4.96385944 0.794230769,4.33324505 0.794230769,3.59834483 C0.794230769,3.2408258 0.864903139,2.89820854 1.00625,2.57048276 C1.14759686,2.24275698 1.34951792,1.95972533 1.61201923,1.72137931 C1.87452054,1.48303329 2.17740213,1.28938006 2.52067308,1.14041379 C2.86394402,0.991447531 3.23749798,0.916965517 3.64134615,0.916965517 C4.02500192,0.916965517 4.39350785,0.986482063 4.746875,1.12551724 C5.10024215,1.26455242 5.40312374,1.45324019 5.65552885,1.69158621 C5.90793395,1.92993223 6.10985501,2.21296388 6.26129808,2.54068966 C6.41274114,2.86841543 6.48846154,3.22096363 6.48846154,3.59834483 Z M1.15769231,23.1724138 L1.15769231,8.33544828 L6.125,8.33544828 L6.125,23.1724138 L1.15769231,23.1724138 Z M82.2399038,7.56082759 C81.7956709,7.00468687 81.2151478,6.56276026 80.4983173,6.23503448 C79.7814868,5.90730871 79.0899072,5.74344828 78.4235577,5.74344828 C78.0802867,5.74344828 77.7319729,5.77324108 77.3786058,5.83282759 C77.0252386,5.89241409 76.707213,6.00661985 76.4245192,6.17544828 C76.1418255,6.34427671 75.9045683,6.56275728 75.7127404,6.83089655 C75.5209125,7.09903582 75.425,7.44165309 75.425,7.85875862 C75.425,8.21627765 75.5007204,8.5142057 75.6521635,8.75255172 C75.8036065,8.99089774 76.0257197,9.19944738 76.3185096,9.3782069 C76.6112995,9.55696641 76.9596134,9.72082684 77.3634615,9.8697931 C77.7673097,10.0187594 78.2216321,10.1726889 78.7264423,10.3315862 C79.453369,10.5699322 80.210573,10.833102 80.9980769,11.1211034 C81.7855809,11.4091049 82.5024006,11.7914459 83.1485577,12.2681379 C83.7947148,12.74483 84.3298056,13.3357206 84.7538462,14.0408276 C85.1778867,14.7459346 85.3899038,15.6248223 85.3899038,16.6775172 C85.3899038,17.8891095 85.1627427,18.9368232 84.7084135,19.8206897 C84.2540843,20.7045561 83.6432731,21.4344799 82.8759615,22.0104828 C82.10865,22.5864856 81.2302934,23.0135159 80.2408654,23.2915862 C79.2514374,23.5696566 78.231736,23.7086897 77.1817308,23.7086897 C75.6471077,23.7086897 74.1629879,23.4455199 72.7293269,22.9191724 C71.2956659,22.392825 70.1043317,21.6430393 69.1552885,20.6697931 L72.5475962,17.2733793 C73.0725988,17.9089687 73.7641784,18.4402737 74.6223558,18.8673103 C75.4805331,19.294347 76.3336496,19.5078621 77.1817308,19.5078621 C77.5653865,19.5078621 77.9389405,19.4681383 78.3024038,19.3886897 C78.6658672,19.309241 78.9838929,19.1801388 79.2564904,19.0013793 C79.5290879,18.8226198 79.746153,18.5842774 79.9076923,18.2863448 C80.0692316,17.9884123 80.15,17.6308986 80.15,17.2137931 C80.15,16.8165497 80.0490395,16.4788979 79.8471154,16.2008276 C79.6451913,15.9227572 79.3574538,15.6695184 78.9838942,15.4411034 C78.6103347,15.2126885 78.1459162,15.0041389 77.590625,14.8154483 C77.0353338,14.6267577 76.4043305,14.4231735 75.6975962,14.2046897 C75.0110543,13.9862058 74.3396667,13.7280015 73.6834135,13.430069 C73.0271602,13.1321364 72.4415891,12.7497954 71.9266827,12.2830345 C71.4117763,11.8162735 70.9978381,11.2502102 70.6848558,10.5848276 C70.3718734,9.91944495 70.2153846,9.11007373 70.2153846,8.15668966 C70.2153846,6.98482173 70.4576899,5.98179727 70.9423077,5.14758621 C71.4269255,4.31337514 72.0629768,3.62814061 72.8504808,3.09186207 C73.6379847,2.55558353 74.5264374,2.16331159 75.5158654,1.91503448 C76.5052934,1.66675738 77.5048026,1.54262069 78.5144231,1.54262069 C79.7259676,1.54262069 80.9627341,1.76110126 82.2247596,2.19806897 C83.4867852,2.63503667 84.5923029,3.28054745 85.5413462,4.13462069 L82.2399038,7.56082759 Z M98.9288462,14.0557241 C98.9288462,13.2810996 98.6814929,12.6157269 98.1867788,12.0595862 C97.6920648,11.5034455 96.9500049,11.2253793 95.9605769,11.2253793 C95.4759591,11.2253793 95.0317328,11.2998613 94.6278846,11.4488276 C94.2240364,11.5977938 93.8706746,11.801378 93.5677885,12.0595862 C93.2649023,12.3177944 93.0225971,12.6206879 92.8408654,12.9682759 C92.6591337,13.3158638 92.5581732,13.6783429 92.5379808,14.0557241 L98.9288462,14.0557241 Z M103.502404,15.9326897 L103.502404,16.5285517 C103.502404,16.7271734 103.492308,16.9158612 103.472115,17.0946207 L92.5379808,17.0946207 C92.5783656,17.5117262 92.7045662,17.8891018 92.9165865,18.2267586 C93.1286068,18.5644155 93.4012003,18.8573781 93.734375,19.1056552 C94.0675497,19.3539323 94.4411037,19.5475855 94.8550481,19.6866207 C95.2689925,19.8256559 95.6980747,19.8951724 96.1423077,19.8951724 C96.9298116,19.8951724 97.5961511,19.7511739 98.1413462,19.4631724 C98.6865412,19.175171 99.1307675,18.8027609 99.4740385,18.345931 L102.926923,20.4910345 C102.220189,21.5040051 101.286304,22.2835835 100.12524,22.8297931 C98.9641769,23.3760027 97.6163538,23.6491034 96.0817308,23.6491034 C94.9509559,23.6491034 93.8807743,23.4753121 92.8711538,23.1277241 C91.8615334,22.7801362 90.9781288,22.2736585 90.2209135,21.6082759 C89.4636981,20.9428932 88.868031,20.1235911 88.4338942,19.1503448 C87.9997574,18.1770986 87.7826923,17.0648338 87.7826923,15.8135172 C87.7826923,14.601925 87.9947094,13.5045566 88.41875,12.5213793 C88.8427906,11.538202 89.4182656,10.7040034 90.1451923,10.0187586 C90.872119,9.33351382 91.7302835,8.80220878 92.7197115,8.42482759 C93.7091396,8.04744639 94.7793212,7.85875862 95.9302885,7.85875862 C97.0408709,7.85875862 98.0605723,8.04248092 98.9894231,8.40993103 C99.9182739,8.77738115 100.715862,9.30868618 101.382212,10.0038621 C102.048561,10.699038 102.568508,11.5431674 102.942067,12.5362759 C103.315627,13.5293843 103.502404,14.6615109 103.502404,15.9326897 Z M116.375,12.3277241 C116.152884,12.2681376 115.935818,12.2284139 115.723798,12.2085517 C115.511778,12.1886896 115.304809,12.1787586 115.102885,12.1787586 C114.436535,12.1787586 113.876204,12.2979298 113.421875,12.5362759 C112.967546,12.7746219 112.604088,13.062619 112.33149,13.4002759 C112.058893,13.7379327 111.86202,14.1053773 111.740865,14.5026207 C111.619711,14.8998641 111.559135,15.2474468 111.559135,15.5453793 L111.559135,23.1724138 L106.591827,23.1724138 L106.591827,8.33544828 L111.377404,8.33544828 L111.377404,10.4805517 L111.437981,10.4805517 C111.821637,9.72578933 112.366823,9.11007135 113.073558,8.63337931 C113.780292,8.15668727 114.598072,7.91834483 115.526923,7.91834483 C115.728847,7.91834483 115.92572,7.92827576 116.117548,7.94813793 C116.309376,7.9680001 116.465865,7.9977929 116.587019,8.03751724 L116.375,12.3277241 Z M127.914904,23.1724138 L122.553846,23.1724138 L116.617308,8.33544828 L122.099519,8.33544828 L125.279808,17.9586207 L125.370673,17.9586207 L128.550962,8.33544828 L133.851442,8.33544828 L127.914904,23.1724138 Z M141.150962,3.59834483 C141.150962,3.97572602 141.075241,4.32827422 140.923798,4.656 C140.772355,4.98372578 140.570434,5.26675743 140.318029,5.50510345 C140.065624,5.74344947 139.762742,5.93213724 139.409375,6.07117241 C139.056008,6.21020759 138.687502,6.27972414 138.303846,6.27972414 C137.49615,6.27972414 136.819714,6.01655436 136.274519,5.4902069 C135.729324,4.96385944 135.456731,4.33324505 135.456731,3.59834483 C135.456731,3.2408258 135.527403,2.89820854 135.66875,2.57048276 C135.810097,2.24275698 136.012018,1.95972533 136.274519,1.72137931 C136.537021,1.48303329 136.839902,1.28938006 137.183173,1.14041379 C137.526444,0.991447531 137.899998,0.916965517 138.303846,0.916965517 C138.687502,0.916965517 139.056008,0.986482063 139.409375,1.12551724 C139.762742,1.26455242 140.065624,1.45324019 140.318029,1.69158621 C140.570434,1.92993223 140.772355,2.21296388 140.923798,2.54068966 C141.075241,2.86841543 141.150962,3.22096363 141.150962,3.59834483 Z M135.820192,23.1724138 L135.820192,8.33544828 L140.7875,8.33544828 L140.7875,23.1724138 L135.820192,23.1724138 Z M155.113942,13.1321379 C154.831249,12.7746189 154.447599,12.4866218 153.962981,12.2681379 C153.478363,12.0496541 152.983656,11.9404138 152.478846,11.9404138 C151.953844,11.9404138 151.479329,12.0446886 151.055288,12.2532414 C150.631248,12.4617941 150.26779,12.7398603 149.964904,13.0874483 C149.662018,13.4350362 149.42476,13.8372391 149.253125,14.294069 C149.08149,14.7508988 148.995673,15.2375147 148.995673,15.753931 C148.995673,16.2703474 149.076442,16.7569632 149.237981,17.2137931 C149.39952,17.670623 149.636777,18.0728258 149.94976,18.4204138 C150.262742,18.7680017 150.636296,19.0411025 151.070433,19.2397241 C151.504569,19.4383458 151.994228,19.5376552 152.539423,19.5376552 C153.044233,19.5376552 153.543988,19.4433113 154.038702,19.2546207 C154.533416,19.0659301 154.93221,18.7928294 155.235096,18.4353103 L157.991346,21.7423448 C157.365381,22.3382099 156.557697,22.8049638 155.568269,23.1426207 C154.578841,23.4802776 153.528852,23.6491034 152.418269,23.6491034 C151.226917,23.6491034 150.116351,23.4703466 149.086538,23.1128276 C148.056726,22.7553086 147.163225,22.2339345 146.40601,21.5486897 C145.648794,20.8634448 145.053127,20.0342118 144.61899,19.0609655 C144.184854,18.0877193 143.967788,16.9853855 143.967788,15.753931 C143.967788,14.5423388 144.184854,13.4499359 144.61899,12.4766897 C145.053127,11.5034434 145.648794,10.6742103 146.40601,9.98896552 C147.163225,9.30372071 148.056726,8.77738115 149.086538,8.40993103 C150.116351,8.04248092 151.216821,7.85875862 152.387981,7.85875862 C152.933176,7.85875862 153.473315,7.9084133 154.008413,8.00772414 C154.543512,8.10703498 155.058411,8.2411026 155.553125,8.40993103 C156.047839,8.57875946 156.502161,8.7873091 156.916106,9.03558621 C157.33005,9.28386331 157.68846,9.55696403 157.991346,9.85489655 L155.113942,13.1321379 Z M170.349038,14.0557241 C170.349038,13.2810996 170.101685,12.6157269 169.606971,12.0595862 C169.112257,11.5034455 168.370197,11.2253793 167.380769,11.2253793 C166.896151,11.2253793 166.451925,11.2998613 166.048077,11.4488276 C165.644229,11.5977938 165.290867,11.801378 164.987981,12.0595862 C164.685095,12.3177944 164.442789,12.6206879 164.261058,12.9682759 C164.079326,13.3158638 163.978365,13.6783429 163.958173,14.0557241 L170.349038,14.0557241 Z M174.922596,15.9326897 L174.922596,16.5285517 C174.922596,16.7271734 174.9125,16.9158612 174.892308,17.0946207 L163.958173,17.0946207 C163.998558,17.5117262 164.124759,17.8891018 164.336779,18.2267586 C164.548799,18.5644155 164.821393,18.8573781 165.154567,19.1056552 C165.487742,19.3539323 165.861296,19.5475855 166.27524,19.6866207 C166.689185,19.8256559 167.118267,19.8951724 167.5625,19.8951724 C168.350004,19.8951724 169.016343,19.7511739 169.561538,19.4631724 C170.106733,19.175171 170.55096,18.8027609 170.894231,18.345931 L174.347115,20.4910345 C173.640381,21.5040051 172.706496,22.2835835 171.545433,22.8297931 C170.384369,23.3760027 169.036546,23.6491034 167.501923,23.6491034 C166.371148,23.6491034 165.300967,23.4753121 164.291346,23.1277241 C163.281726,22.7801362 162.398321,22.2736585 161.641106,21.6082759 C160.88389,20.9428932 160.288223,20.1235911 159.854087,19.1503448 C159.41995,18.1770986 159.202885,17.0648338 159.202885,15.8135172 C159.202885,14.601925 159.414902,13.5045566 159.838942,12.5213793 C160.262983,11.538202 160.838458,10.7040034 161.565385,10.0187586 C162.292311,9.33351382 163.150476,8.80220878 164.139904,8.42482759 C165.129332,8.04744639 166.199513,7.85875862 167.350481,7.85875862 C168.461063,7.85875862 169.480765,8.04248092 170.409615,8.40993103 C171.338466,8.77738115 172.136054,9.30868618 172.802404,10.0038621 C173.468753,10.699038 173.9887,11.5431674 174.36226,12.5362759 C174.735819,13.5293843 174.922596,14.6615109 174.922596,15.9326897 Z" id="i-Service" fill="#FFFFFF"></path>
                            <path d="M10.6245192,23.1724138 L10.6245192,2.07889655 L15.8341346,2.07889655 L15.8341346,18.7332414 L24.1331731,18.7332414 L24.1331731,23.1724138 L10.6245192,23.1724138 Z M31.675,3.59834483 C31.675,3.97572602 31.5992796,4.32827422 31.4478365,4.656 C31.2963935,4.98372578 31.0944724,5.26675743 30.8420673,5.50510345 C30.5896622,5.74344947 30.2867806,5.93213724 29.9334135,6.07117241 C29.5800463,6.21020759 29.2115404,6.27972414 28.8278846,6.27972414 C28.0201883,6.27972414 27.3437527,6.01655436 26.7985577,5.4902069 C26.2533627,4.96385944 25.9807692,4.33324505 25.9807692,3.59834483 C25.9807692,3.2408258 26.0514416,2.89820854 26.1927885,2.57048276 C26.3341353,2.24275698 26.5360564,1.95972533 26.7985577,1.72137931 C27.061059,1.48303329 27.3639406,1.28938006 27.7072115,1.14041379 C28.0504825,0.991447531 28.4240364,0.916965517 28.8278846,0.916965517 C29.2115404,0.916965517 29.5800463,0.986482063 29.9334135,1.12551724 C30.2867806,1.26455242 30.5896622,1.45324019 30.8420673,1.69158621 C31.0944724,1.92993223 31.2963935,2.21296388 31.4478365,2.54068966 C31.5992796,2.86841543 31.675,3.22096363 31.675,3.59834483 Z M26.3442308,23.1724138 L26.3442308,8.33544828 L31.3115385,8.33544828 L31.3115385,23.1724138 L26.3442308,23.1724138 Z M51.4533654,23.1724138 L45.3048077,23.1724138 L40.3677885,16.0518621 L40.2769231,16.0518621 L40.2769231,23.1724138 L35.2793269,23.1724138 L35.2793269,0.648827586 L40.2769231,0.648827586 L40.2769231,14.3536552 L40.3677885,14.3536552 L45.1836538,8.33544828 L51.2110577,8.33544828 L45.3956731,15.0388966 L51.4533654,23.1724138 Z M63.1144231,14.0557241 C63.1144231,13.2810996 62.8670698,12.6157269 62.3723558,12.0595862 C61.8776418,11.5034455 61.1355819,11.2253793 60.1461538,11.2253793 C59.661536,11.2253793 59.2173097,11.2998613 58.8134615,11.4488276 C58.4096134,11.5977938 58.0562515,11.801378 57.7533654,12.0595862 C57.4504793,12.3177944 57.208174,12.6206879 57.0264423,12.9682759 C56.8447106,13.3158638 56.7437501,13.6783429 56.7235577,14.0557241 L63.1144231,14.0557241 Z M67.6879808,15.9326897 L67.6879808,16.5285517 C67.6879808,16.7271734 67.6778847,16.9158612 67.6576923,17.0946207 L56.7235577,17.0946207 C56.7639425,17.5117262 56.8901432,17.8891018 57.1021635,18.2267586 C57.3141838,18.5644155 57.5867772,18.8573781 57.9199519,19.1056552 C58.2531267,19.3539323 58.6266806,19.5475855 59.040625,19.6866207 C59.4545694,19.8256559 59.8836516,19.8951724 60.3278846,19.8951724 C61.1153886,19.8951724 61.781728,19.7511739 62.3269231,19.4631724 C62.8721181,19.175171 63.3163444,18.8027609 63.6596154,18.345931 L67.1125,20.4910345 C66.4057657,21.5040051 65.4718808,22.2835835 64.3108173,22.8297931 C63.1497538,23.3760027 61.8019307,23.6491034 60.2673077,23.6491034 C59.1365328,23.6491034 58.0663512,23.4753121 57.0567308,23.1277241 C56.0471103,22.7801362 55.1637057,22.2736585 54.4064904,21.6082759 C53.6492751,20.9428932 53.0536079,20.1235911 52.6194712,19.1503448 C52.1853344,18.1770986 51.9682692,17.0648338 51.9682692,15.8135172 C51.9682692,14.601925 52.1802863,13.5045566 52.6043269,12.5213793 C53.0283675,11.538202 53.6038425,10.7040034 54.3307692,10.0187586 C55.0576959,9.33351382 55.9158604,8.80220878 56.9052885,8.42482759 C57.8947165,8.04744639 58.9648981,7.85875862 60.1158654,7.85875862 C61.2264479,7.85875862 62.2461492,8.04248092 63.175,8.40993103 C64.1038508,8.77738115 64.901439,9.30868618 65.5677885,10.0038621 C66.2341379,10.699038 66.7540847,11.5431674 67.1276442,12.5362759 C67.5012038,13.5293843 67.6879808,14.6615109 67.6879808,15.9326897 Z" id="Like" fill="#0092FF"></path>
                        </g>
                    </g>
                </g>
            </g>
        </g>
    </g>
</svg>