<?xml version="1.0" encoding="utf-8"?><svg xmlns="http://www.w3.org/2000/svg" xmlns:xlink="http://www.w3.org/1999/xlink"><symbol viewBox="0 0 7 12" id="arrow-left" xmlns="http://www.w3.org/2000/svg"><title>arrow copy</title><path d="M.306 6.864l4.506 4.806c.413.44 1.09.44 1.502 0l.376-.402c.413-.44.413-1.16 0-1.6L3.252 6 6.69 2.333a1.188 1.188 0 0 0 0-1.6L6.314.33a1.02 1.02 0 0 0-1.502 0L.306 5.137c-.222.236-.32.553-.304.864-.017.31.082.627.304.864z"/></symbol><symbol viewBox="0 0 6 9" id="arrow-pagination" xmlns="http://www.w3.org/2000/svg"><title>Shape</title><path d="M5.28 5.076L2.064 8.28a.765.765 0 0 1-1.073 0l-.27-.268a.756.756 0 0 1 0-1.067L3.178 4.5.72 2.055a.757.757 0 0 1 0-1.067L.99.72a.765.765 0 0 1 1.073 0L4.44 3.088l.84.836c.16.158.23.37.22.576a.752.752 0 0 1-.22.576z"/></symbol><symbol viewBox="0 0 7 12" id="arrow-right" xmlns="http://www.w3.org/2000/svg"><title>arrow</title><path d="M6.694 6.864L2.188 11.67a1.02 1.02 0 0 1-1.502 0l-.376-.402a1.188 1.188 0 0 1 0-1.6L3.748 6 .31 2.333a1.188 1.188 0 0 1 0-1.6L.686.33a1.02 1.02 0 0 1 1.502 0l4.506 4.807c.222.236.32.553.304.864.017.31-.082.627-.304.864z"/></symbol><symbol viewBox="0 0 7 4" id="arrow-up-down" xmlns="http://www.w3.org/2000/svg"><title>if_arrow-up-01_186407</title><path d="M2.996 3.825L.193 1.25a.574.574 0 0 1 0-.858L.427.177a.705.705 0 0 1 .934 0L3.5 2.142 5.64.177a.703.703 0 0 1 .933 0l.234.215a.574.574 0 0 1 0 .858L4.004 3.825a.691.691 0 0 1-.504.174.698.698 0 0 1-.504-.175z"/></symbol><symbol viewBox="0 0 20 20" id="icon-access-time" xmlns="http://www.w3.org/2000/svg"><g fill-rule="evenodd"><path d="M9.99 0C4.47 0 0 4.48 0 10s4.47 10 9.99 10C15.52 20 20 15.52 20 10S15.52 0 9.99 0zM10 18c-4.42 0-8-3.58-8-8s3.58-8 8-8 8 3.58 8 8-3.58 8-8 8z"/><path d="M10.5 5H9v6l5.25 3.15.75-1.23-4.5-2.67z"/></g></symbol><symbol viewBox="0 0 20.813 13.313" id="icon-arrow-short" xmlns="http://www.w3.org/2000/svg"><path d="M20.8 6.3l-5 7-1.6-1.16 3.14-4.42H0v-2h.5l16.8-.3-4-4 1.4-1.4 6 6-.12.12z"/></symbol><symbol viewBox="0 0 89 92" id="icon-battery_grey" xmlns="http://www.w3.org/2000/svg"><path class="agst0" d="M50 69H35"/><path class="agst1" d="M50 70H35c-.6 0-1-.4-1-1s.4-1 1-1h15c.6 0 1 .4 1 1s-.4 1-1 1z"/><path class="agst0" d="M35 69l7 7"/><path class="agst1" d="M42 77c-.3 0-.5-.1-.7-.3l-7-7c-.4-.4-.4-1 0-1.4s1-.4 1.4 0l7 7c.4.4.4 1 0 1.4-.2.2-.4.3-.7.3z"/><path class="agst0" d="M42 62l-7 7"/><path class="agst1" d="M35 70c-.3 0-.5-.1-.7-.3-.4-.4-.4-1 0-1.4l7-7c.4-.4 1-.4 1.4 0s.4 1 0 1.4l-7 7c-.2.2-.4.3-.7.3z"/><path class="agst0" d="M35 49h15"/><path class="agst1" d="M50 50H35c-.6 0-1-.4-1-1s.4-1 1-1h15c.6 0 1 .4 1 1s-.4 1-1 1z"/><path class="agst0" d="M50 49l-7-7"/><path class="agst1" d="M50 50c-.3 0-.5-.1-.7-.3l-7-7c-.4-.4-.4-1 0-1.4s1-.4 1.4 0l7 7c.4.4.4 1 0 1.4-.2.2-.4.3-.7.3z"/><path class="agst0" d="M43 56l7-7"/><path class="agst1" d="M43 57c-.3 0-.5-.1-.7-.3-.4-.4-.4-1 0-1.4l7-7c.4-.4 1-.4 1.4 0s.4 1 0 1.4l-7 7c-.2.2-.4.3-.7.3z"/><path class="agst0" d="M55.6 19.9c-.8 0-1.5-.7-1.5-1.5s.7-1.5 1.5-1.5 1.5.7 1.5 1.5-.7 1.5-1.5 1.5zm0-5c-.8 0-1.5-.7-1.5-1.5s.7-1.5 1.5-1.5 1.5.7 1.5 1.5-.7 1.5-1.5 1.5z"/><path class="agst1" d="M55.5 7.5c2.5 0 4.5 2 4.5 4.5v7c0 2.5-2 4.5-4.5 4.5S51 21.5 51 19v-7c0-2.5 2-4.5 4.5-4.5m0-2C51.9 5.5 49 8.4 49 12v7c0 3.6 2.9 6.5 6.5 6.5S62 22.6 62 19v-7c0-3.6-2.9-6.5-6.5-6.5zM69 38c-.3 0-.5-.1-.7-.3-.4-.4-.4-1 0-1.4l3-3c.4-.4 1-.4 1.4 0s.4 1 0 1.4l-3 3c-.2.2-.4.3-.7.3zm1 20c-1.5 0-2.2-.5-2.6-.8-.3-.2-.3-.2-.4-.2s-.1 0-.4.2c-.4.3-1.1.8-2.6.8-3.8 0-7-6.7-7-10 0-2.7 1.4-7 5-7 1.2 0 2 .3 2.8.6.7.2 1.3.4 2.2.4.9 0 1.8-.2 2.8-.5 1-.3 2.1-.5 3.2-.5 1.3 0 2 1 2 2 0 1.5-.9 2.6-1.5 3.3-.2.3-.5.6-.5.7 0 .8.9 1.8 1.6 2.6.8.9 1.4 1.6 1.4 2.3 0 2.5-2.3 6.1-6 6.1zm-3-3c.7 0 1.2.3 1.5.6.3.2.6.4 1.5.4 2.4 0 4-2.5 4-3.9-.1-.2-.6-.7-.9-1.1-.9-1.1-2.1-2.4-2.1-4 0-.8.5-1.4 1-2 .5-.6 1-1.2 1-2-.9 0-1.8.2-2.8.5-1 .3-2.1.5-3.2.5-1.2 0-2-.3-2.8-.6-.7-.2-1.4-.4-2.2-.4-2.2 0-3 3.4-3 5 0 2.6 2.8 8 5 8 .9 0 1.1-.2 1.5-.4.3-.3.8-.6 1.5-.6z"/><path class="agst0" d="M83 0H49c-3.3 0-6 2.7-6 6v30h2V7.1C45 3.5 46.5 2 50 2h32c3.5 0 5 1.5 5 5v78c0 3.6-1.5 5-5 5H50c-3.4 0-5-1.5-5-5v-1h-2v2c0 3.3 2.7 6 6 6h34c3.3 0 6-2.7 6-6V6c0-3.3-2.7-6-6-6z"/><path class="agst1" d="M25 29H3c-1.7 0-3 1.3-3 3v51c0 1.7 1.3 3 3 3h22c1.7 0 3-1.3 3-3V32c0-1.7-1.3-3-3-3zm1 53.9c0 .6-.5 1.1-1.1 1.1H3.1c-.6 0-1.1-.5-1.1-1.1V32c0-.6.4-1 1-1h22c.6 0 1 .4 1 1v50.9z"/><path class="agst0" d="M19.1 46.5l-6.7 1.2-4 10.9 4.2-.6-4.8 11.5 13-14.9-5.6.5"/></symbol><symbol viewBox="0 0 80 92" id="icon-button_grey" xmlns="http://www.w3.org/2000/svg"><path class="ahst0" d="M34.9 10v2h44v-2h-44zm0 62l1 2h43l-1-2h-43zm22 6c-2.2 0-4 1.8-4 4s1.8 4 4 4 4-1.8 4-4-1.7-4-4-4zm0 6c-1.1 0-2-.9-2-2s.9-2 2-2 2 .9 2 2-.9 2-2 2z"/><path class="ahst0" d="M74 0H40c-3.3 0-6 2.7-6 6v12.1h2V7c0-3.4 1.5-5 5-5h32c3.5 0 5 1.7 5 5v78c0 3.5-1.5 5-5 5H41c-3.5 0-5-1.5-5-5V66h-2v20c0 3.3 2.7 6 6 6h34c3.3 0 6-2.7 6-6V6c0-3.3-2.7-6-6-6z"/><circle class="ahst0" cx="49.9" cy="6" r="1"/><path class="ahst0" d="M64.9 6c0 .6-.4 1-1 1h-9c-.6 0-1-.4-1-1s.4-1 1-1h9c.6 0 1 .4 1 1z"/><path class="ahst1" d="M65 58c-.6 0-1-.4-1-1V41H44c-.6 0-1-.4-1-1s.4-1 1-1h22v18c0 .6-.4 1-1 1z"/><path class="ahst1" d="M51 48c-.3 0-.5-.1-.7-.3l-7-7c-.4-.4-.4-1 0-1.4s1-.4 1.4 0l7 7c.4.4.4 1 0 1.4-.2.2-.4.3-.7.3z"/><path class="ahst1" d="M44 41c-.3 0-.5-.1-.7-.3-.4-.4-.4-1 0-1.4l7-7c.4-.4 1-.4 1.4 0s.4 1 0 1.4l-7 7c-.2.2-.4.3-.7.3zM26 82H4V64c0-.6.4-1 1-1s1 .4 1 1v16h20c.6 0 1 .4 1 1s-.4 1-1 1z"/><path class="ahst1" d="M26 82c-.3 0-.5-.1-.7-.3l-7-7c-.4-.4-.4-1 0-1.4s1-.4 1.4 0l7 7c.4.4.4 1 0 1.4-.2.2-.4.3-.7.3z"/><path class="ahst1" d="M19 89c-.3 0-.5-.1-.7-.3-.4-.4-.4-1 0-1.4l7-7c.4-.4 1-.4 1.4 0s.4 1 0 1.4l-7 7c-.2.2-.4.3-.7.3z"/><g><path class="ahst0" d="M20 21C9 21 0 30 0 41s9 20 20 20 20-9 20-20-9-20-20-20zm0 38c-9.9 0-18-8.1-18-18s8.1-18 18-18 18 8.1 18 18-8.1 18-18 18z"/><path class="ahst1" d="M25.4 33H14.7c-1.5 0-2.7 1.2-2.7 2.7v10.7c0 1.5 1.2 2.7 2.7 2.7h10.7c1.5 0 2.7-1.2 2.7-2.7V35.7c-.1-1.5-1.3-2.7-2.7-2.7zm.7 13.5c0 .3-.2.5-.5.5h-11c-.3 0-.5-.2-.5-.5v-11c0-.3.2-.5.5-.5h11c.3 0 .5.2.5.5v11z"/></g></symbol><symbol viewBox="0 0 78.1 92" id="icon-camera_grey" xmlns="http://www.w3.org/2000/svg"><path class="aist0" d="M44.6 19.9c-.8 0-1.5-.7-1.5-1.5s.7-1.5 1.5-1.5 1.5.7 1.5 1.5-.7 1.5-1.5 1.5zm0-5c-.8 0-1.5-.7-1.5-1.5s.7-1.5 1.5-1.5 1.5.7 1.5 1.5-.7 1.5-1.5 1.5zM11 44.9c-2.8 0-5-2.2-5-5s2.2-5 5-5 5 2.2 5 5-2.2 5-5 5zm0-8c-1.7 0-3 1.3-3 3s1.3 3 3 3 3-1.3 3-3c0-1.6-1.3-3-3-3zm0 11c2.8 0 5 2.2 5 5s-2.2 5-5 5-5-2.2-5-5c0-2.7 2.2-5 5-5zm0 8c1.7 0 3-1.3 3-3s-1.3-3-3-3-3 1.3-3 3 1.4 3 3 3z"/><path class="aist0" d="M72.1 92h-34c-3.3 0-6-2.7-6-6V6c0-3.3 2.7-6 6-6h34c3.3 0 6 2.7 6 6v80c0 3.3-2.7 6-6 6zm4-85c0-3.4-1.6-5-5-5h-32c-3.5 0-5 1.6-5 5v78c0 3.4 1.5 5 5 5h32c3.5 0 5-1.4 5-5V7zM11 64C4.9 64 0 59 0 53V40c0-6.1 4.9-11 11-11s11 4.9 11 11v13c0 6-4.9 11-11 11zm9.1-24c0-4.4-4.6-9-9-9s-9 4.6-9 9v13c0 4.4 4.6 9 9 9s9-4.6 9-9V40z"/><path class="aist1" d="M44.6 7.5c2.5 0 4.5 2 4.5 4.5v7c0 2.5-2 4.5-4.5 4.5s-4.5-2-4.5-4.5v-7c0-2.5 2-4.5 4.5-4.5m0-2c-3.6 0-6.5 2.9-6.5 6.5v7c0 3.6 2.9 6.5 6.5 6.5s6.5-2.9 6.5-6.5v-7c0-3.6-3-6.5-6.5-6.5zM11.1 24c-.6 0-1-.4-1-1V11h18c.6 0 1 .4 1 1s-.4 1-1 1h-16v10c0 .6-.5 1-1 1z"/><path class="aist1" d="M21.1 20c-.3 0-.5-.1-.7-.3-.4-.4-.4-1 0-1.4l7-7c.4-.4 1-.4 1.4 0s.4 1 0 1.4l-7 7c-.2.2-.5.3-.7.3z"/><path class="aist1" d="M28.1 13c-.3 0-.5-.1-.7-.3l-7-7c-.4-.4-.4-1 0-1.4s1-.4 1.4 0l7 7c.4.4.4 1 0 1.4-.2.2-.5.3-.7.3zm30 25c-.3 0-.5-.1-.7-.3-.4-.4-.4-1 0-1.4l3-3c.4-.4 1-.4 1.4 0s.4 1 0 1.4l-3 3c-.2.2-.5.3-.7.3zm1 20c-1.5 0-2.2-.5-2.6-.8-.3-.2-.4-.2-.4-.2s-.1 0-.4.2c-.5.3-1.1.8-2.6.8-3.8 0-7-6.7-7-10 0-2.7 1.4-7 5-7 1.2 0 2 .3 2.8.6.7.2 1.3.4 2.2.4.9 0 1.8-.2 2.8-.5 1-.3 2.1-.5 3.2-.5 1.3 0 2 1 2 2 0 1.5-.9 2.6-1.5 3.3-.2.2-.5.6-.5.7 0 .8.9 1.8 1.6 2.6.8.9 1.4 1.6 1.4 2.3 0 2.5-2.4 6.1-6 6.1zm-3-3c.7 0 1.2.3 1.5.6.3.2.6.4 1.5.4 2.4 0 4-2.5 4-3.9-.1-.2-.6-.7-.9-1.1-.9-1.1-2.1-2.4-2.1-4 0-.8.5-1.4 1-2 .5-.6 1-1.2 1-2-.9 0-1.8.2-2.8.5-1 .3-2.1.5-3.2.5-1.2 0-2-.3-2.8-.6-.7-.2-1.3-.4-2.2-.4-2.2 0-3 3.4-3 5 0 2.6 2.8 8 5 8 .9 0 1.1-.2 1.5-.4.3-.3.7-.6 1.5-.6z"/></symbol><symbol viewBox="0 0 16 12" id="icon-catalog" xmlns="http://www.w3.org/2000/svg"><title>Combined Shape</title><path d="M2.5 0h2a2.5 2.5 0 0 1 0 5h-2a2.5 2.5 0 0 1 0-5zm9 0h2a2.5 2.5 0 0 1 0 5h-2a2.5 2.5 0 0 1 0-5zm-9 7h2a2.5 2.5 0 0 1 0 5h-2a2.5 2.5 0 0 1 0-5zm9 0h2a2.5 2.5 0 0 1 0 5h-2a2.5 2.5 0 0 1 0-5z" fill-rule="evenodd"/></symbol><symbol viewBox="0 0 33 24" id="icon-check" xmlns="http://www.w3.org/2000/svg"><path d="M31.756 2.154L30.28.74c-1.03-.986-2.7-.988-3.727-.006L11.544 15.09 5.98 9.766c-1.027-.982-2.696-.98-3.727.006L.775 11.185a2.444 2.444 0 0 0-.006 3.565l8.903 8.515a2.68 2.68 0 0 0 1.874.735 2.68 2.68 0 0 0 1.87-.736L31.763 5.718a2.443 2.443 0 0 0-.006-3.564z"/></symbol><symbol viewBox="0 0 86.6 92" id="icon-clean_grey" xmlns="http://www.w3.org/2000/svg"><path class="alst0" d="M63.5 78c-2.2 0-4 1.8-4 4s1.8 4 4 4 4-1.8 4-4-1.8-4-4-4zm0 6c-1.1 0-2-.9-2-2s.9-2 2-2 2 .9 2 2-.9 2-2 2zm-22-74v2h44v-2h-44zm0 62l1 2h43l-1-2h-43z"/><path class="alst1" d="M72.1 45.4l-7-9.8c-.2-.4-.7-.6-1.2-.6s-.9.2-1.2.6l-7 9.8s0 .1-.1.1c-1.5 2.7-1.5 6 0 8.7 1.7 3 4.8 4.8 8.2 4.8s6.5-1.8 8.2-4.8c1.6-2.8 1.6-6 0-8.7.1 0 .1 0 .1-.1zm-1.6 8.4c-1.2 1.7-4 3.2-6.6 3.2-2.3 0-5.2-1.1-6.5-3.3-1-1.7-1.7-4.7-.4-6.8l6.9-9.9 6.9 9.9c1.3 2.2 1 5-.3 6.9z"/><path class="alst1" d="M69.5 48.7c-.6 0-1.1.5-1.1 1.1 0 1.2-.9 2.1-2.1 2.1-.6 0-1.1.5-1.1 1.1 0 .6.5 1.1 1.1 1.1 2.3 0 4.3-1.9 4.3-4.3 0-.7-.5-1.1-1.1-1.1zM15.6 20c-1.9 0-3.5 2.3-3.5 4.2v18c-4.4 1.5-7.6 5.5-7.7 10.3-.1.1-.1.2-.1.3L.1 69.4c-.1.4 0 .8.2 1.1.3.3.6.5 1 .5h29.3c.4 0 .8-.2 1-.5.3-.3.3-.7.2-1.1L27 52.8c0-.1-.1-.2-.1-.3-.2-4.8-3.3-8.9-7.7-10.3v-18c-.1-1.9-1.7-4.2-3.6-4.2zm-1.4 3.2c0-.5.6-1.2 1.4-1.2.8 0 1.5.7 1.5 1.2v18.5c-.3 0-1-.2-1.5-.2s-1.1.1-1.4.2V23.2zM29.6 69h-6l-1.5-9c-.1-.4-.6-.8-1.3-.8-.6 0-.7.4-.6.8l1.5 9h-5v-8c0-.5-.3-1-1-1-.6 0-1 .5-1 1v8h-4.2l.8-9c0-.4-.1-.7-.8-.8-.7-.1-1 .4-1.1.8l-.9 9H2.3l3.6-14.5h19.6L29.6 69zm-4.8-17H6.4c.5-4.4 4.2-8.1 9.2-8.1 4.9-.1 8.7 3.7 9.2 8.1z"/><path class="alst0" d="M80.6 92h-34c-3.3 0-6-2.7-6-6V6c0-3.3 2.7-6 6-6h34c3.3 0 6 2.7 6 6v80c0 3.3-2.7 6-6 6zm4-85c0-3.4-1.5-5-5-5h-32c-3.4 0-5 1.6-5 5v78c0 3.5 1.5 5 5 5h32c3.5 0 5-1.4 5-5V7z"/><circle class="alst0" cx="56.5" cy="6" r="1"/><path class="alst0" d="M71.5 6c0 .6-.4 1-1 1h-9c-.6 0-1-.4-1-1s.4-1 1-1h9c.6 0 1 .4 1 1z"/></symbol><symbol viewBox="0 0 33 26" id="icon-coffee" xmlns="http://www.w3.org/2000/svg"><path fill-rule="evenodd" d="M.07 19.221c0 3.733 3.065 6.755 6.851 6.755h11.271c3.787 0 6.851-3.022 6.851-6.755v-1.35c2.788-2.09 7.424-3.613 7.424-7.865 0-2.941-2.416-5.324-5.4-5.324-.715 0-1.396.133-2.024.386V2.686c0-1.47-1.208-2.662-2.7-2.662H2.77C1.28.024.07 1.215.07 2.686v16.535zm24.973-5.156v-4.06c0-1.104.904-1.996 2.025-1.996 1.12 0 2.025.892 2.025 1.997 0 2.056-2.106 2.854-4.05 4.059zM6.145 4.682v13.309c0 .731-.608 1.33-1.35 1.33-.742 0-1.35-.599-1.35-1.33V4.682c0-.731.608-1.33 1.35-1.33.742 0 1.35.599 1.35 1.33z"/></symbol><symbol viewBox="0 0 16 16" id="icon-contacts" xmlns="http://www.w3.org/2000/svg"><title>icon-contacts</title><path d="M2 0C.9 0 0 .9 0 2s.9 2 2 2 2-.9 2-2-.9-2-2-2zm0 6C.9 6 0 6.9 0 8s.9 2 2 2 2-.9 2-2-.9-2-2-2zm0 6c-1.1 0-2 .9-2 2s.9 2 2 2 2-.9 2-2-.9-2-2-2zm12-8c1.1 0 2-.9 2-2s-.9-2-2-2-2 .9-2 2 .9 2 2 2zm-6 8c-1.1 0-2 .9-2 2s.9 2 2 2 2-.9 2-2-.9-2-2-2zm6 0c-1.1 0-2 .9-2 2s.9 2 2 2 2-.9 2-2-.9-2-2-2zm0-6c-1.1 0-2 .9-2 2s.9 2 2 2 2-.9 2-2-.9-2-2-2zM8 6c-1.1 0-2 .9-2 2s.9 2 2 2 2-.9 2-2-.9-2-2-2zm0-6C6.9 0 6 .9 6 2s.9 2 2 2 2-.9 2-2-.9-2-2-2z"/></symbol><symbol viewBox="0 0 21 23" id="icon-device" xmlns="http://www.w3.org/2000/svg"><title>icon-device</title><g fill-rule="evenodd"><path d="M13.663 19.827v-.002c-.526 0-1.053-.003-1.58 0-.518.005-.885.325-.898.778-.013.463.363.81.9.814 1.04.005 2.08.006 3.122-.002.514-.004.853-.32.86-.773.006-.463-.348-.805-.86-.813-.515-.01-1.03-.003-1.544-.003m5.2-1.38V3.725H8.342c0 .767-.01 1.527.008 2.287.007.256-.09.39-.284.55-.594.495-1.155 1.028-1.724 1.542v-.995c0-1.55 0-3.102.003-4.653.004-1.45.95-2.383 2.424-2.384 3.282-.003 6.564-.003 9.846 0 1.345.002 2.348.98 2.344 2.302-.02 6.102-.042 12.205-.07 18.307-.006 1.313-.985 2.287-2.32 2.29-3.327.013-6.654.01-9.982 0-1.047 0-1.922-.647-2.178-1.583a.491.491 0 0 1 .103-.403c.788-.798 1.59-1.585 2.4-2.36a.715.715 0 0 1 .45-.168c2.972-.01 5.945-.007 8.918-.008h.586"/><path d="M13.168 7.445l-2.624 2.568 2.49 2.43c.84-.83 1.715-1.69 2.62-2.584.472 1.25.432 2.434-.146 3.59-.975 1.95-3.22 2.903-5.382 2.277-.295-.085-.466-.04-.68.172-2.134 2.113-4.28 4.218-6.425 6.322-.717.703-1.65.77-2.375.183a1.696 1.696 0 0 1-.138-2.54c.84-.842 1.7-1.668 2.55-2.5 1.32-1.293 2.64-2.59 3.968-3.874.185-.178.23-.32.152-.578-.522-1.722-.162-3.26 1.148-4.518 1.31-1.26 2.89-1.544 4.633-1.045.063.017.12.053.21.095"/></g></symbol><symbol viewBox="0 0 22 22" id="icon-instagram" xmlns="http://www.w3.org/2000/svg"><title>Shape</title><path d="M11 21.89H2.596c-.697 0-1.282-.254-1.773-.745-.49-.49-.728-1.092-.728-1.788V2.597c0-.698.253-1.3.744-1.79A2.49 2.49 0 0 1 2.405.08c.08 0 .142-.017.22-.017h16.747c.712 0 1.313.254 1.804.744.475.49.728 1.076.728 1.757v16.793c0 1.22-.886 2.263-2.09 2.47-.142.03-.284.03-.427.03-2.8.032-5.602.032-8.388.032zM4.495 9.32h-1.9v9.243c.017.35.19.618.507.76.127.063.253.063.396.063H18.55a.886.886 0 0 0 .65-.316.878.878 0 0 0 .188-.554v-9.18h-1.9a6.57 6.57 0 0 1-.205 4.02c-.49 1.314-1.33 2.374-2.484 3.182a6.718 6.718 0 0 1-7.36.174c-1.14-.713-1.995-1.662-2.55-2.88-.648-1.473-.775-2.976-.395-4.512zM11 15.178c2.31 0 4.194-1.867 4.194-4.178A4.194 4.194 0 0 0 11 6.79c-2.342 0-4.194 1.915-4.194 4.194A4.18 4.18 0 0 0 11 15.178zm6.283-8.388h1.267a.825.825 0 0 0 .838-.84v-2.5c0-.047 0-.095-.015-.142a.823.823 0 0 0-.84-.696H16.05a.832.832 0 0 0-.856.854V5.95c0 .492.396.872.855.856.41-.016.822-.016 1.233-.016z"/></symbol><symbol viewBox="0 0 8 13" id="icon-left" xmlns="http://www.w3.org/2000/svg"><title>icon-left</title><path d="M.5 6.5c0-.256.098-.512.293-.707l5.1-5.1a1 1 0 1 1 1.413 1.415L2.914 6.5l4.392 4.392a1 1 0 0 1-1.414 1.414l-5.1-5.1A1.001 1.001 0 0 1 .5 6.5z"/></symbol><symbol viewBox="0 0 20 16" id="icon-mail-outline" xmlns="http://www.w3.org/2000/svg"><path fill-rule="evenodd" d="M18 0H2C.9 0 .01.9.01 2L0 14c0 1.1.9 2 2 2h16c1.1 0 2-.9 2-2V2c0-1.1-.9-2-2-2zm0 14H2V4l8 5 8-5v10zm-8-7L2 2h16l-8 5z"/></symbol><symbol viewBox="0 0 24 16" id="icon-metro" xmlns="http://www.w3.org/2000/svg"><path fill-rule="evenodd" d="M11.998 8.051l4.733-8.05c.034.074.06.125.081.177 1.825 4.476 3.65 8.953 5.47 13.431.056.136.123.18.27.176.425-.01.85-.003 1.275-.003H24v2.062h-8.471v-2.06h1.269l-1.245-3.46L11.998 16l-3.554-5.675L7.2 13.776h1.264v2.065H0v-2.06h.733c.254 0 .508-.007.762.004.126.005.167-.053.207-.152.743-1.83 1.49-3.658 2.235-5.487L7.192.16c.018-.045.04-.09.073-.161l4.733 8.051"/></symbol><symbol viewBox="0 0 93 92" id="icon-microphone_grey" xmlns="http://www.w3.org/2000/svg"><path class="atst0" d="M27.5 72c-3.3 0-6-2.7-6-5.9V57c0-3.3 2.7-5.9 6-5.9s6 2.7 6 5.9v9c0 3.3-2.7 6-6 6zm3.9-15.1c0-2-1.7-3.9-3.8-3.9-2 0-3.9 1.8-3.9 3.9V66c0 2.3 1.7 4 3.9 4s3.8-1.7 3.8-4v-9.1zm-3.9 16.6c3.7 0 7.5-3 7.5-6.1 0-.5.4-.9 1-.9s1 .5 1 .9c0 4.2-3.9 7.7-8.5 8.3V79h2c.6 0 1.1.4 1.1 1 0 .5-.4 1.1-1.1 1.1h-6c-.5 0-1.1-.4-1.1-1.1 0-.6.6-1 1.1-1h2v-3.3c-4.6-.6-8.5-4.1-8.5-8.3 0-.5.4-1 1-1 .7 0 1 .5 1 1 0 3.1 3.8 6.1 7.5 6.1zm32.1-53.6c-.8 0-1.5-.7-1.5-1.5s.7-1.5 1.5-1.5 1.5.7 1.5 1.5-.7 1.5-1.5 1.5zm0-5c-.8 0-1.5-.7-1.5-1.5s.7-1.5 1.5-1.5 1.5.7 1.5 1.5-.7 1.5-1.5 1.5z"/><path class="atst1" d="M59.5 7.5c2.5 0 4.5 2 4.5 4.5v7c0 2.5-2 4.5-4.5 4.5S55 21.5 55 19v-7c0-2.5 2-4.5 4.5-4.5m0-2C55.9 5.5 53 8.4 53 12v7c0 3.6 2.9 6.5 6.5 6.5S66 22.6 66 19v-7c0-3.6-2.9-6.5-6.5-6.5zM73 38c-.3 0-.5-.1-.7-.3-.4-.4-.4-1 0-1.4l3-3c.4-.4 1-.4 1.4 0s.4 1 0 1.4l-3 3c-.2.2-.4.3-.7.3zm1 20c-1.5 0-2.2-.5-2.6-.8-.3-.2-.3-.2-.4-.2s-.1 0-.4.2c-.4.3-1.1.8-2.6.8-3.8 0-7-6.7-7-10 0-2.7 1.4-7 5-7 1.2 0 2 .3 2.8.6.7.2 1.3.4 2.2.4.9 0 1.8-.2 2.8-.5 1-.3 2.1-.5 3.2-.5 1.3 0 2 1 2 2 0 1.5-.9 2.6-1.5 3.3-.2.2-.5.6-.5.7 0 .8.9 1.8 1.6 2.6.8.9 1.4 1.6 1.4 2.3 0 2.5-2.3 6.1-6 6.1zm-3-3c.7 0 1.2.3 1.5.6.3.2.6.4 1.5.4 2.4 0 4-2.5 4-3.9-.1-.2-.6-.7-.9-1.1-.9-1.1-2.1-2.4-2.1-4 0-.8.5-1.4 1-2 .5-.6 1-1.2 1-2-.9 0-1.8.2-2.8.5-1 .3-2.1.5-3.2.5-1.2 0-2-.3-2.8-.6-.7-.2-1.3-.4-2.2-.4-2.2 0-3 3.4-3 5 0 2.6 2.8 8 5 8 .9 0 1.1-.2 1.5-.4.3-.3.8-.6 1.5-.6z"/><path class="atst0" d="M87 0H53c-3.3 0-6 2.7-6 6v29.9h2V7c0-3.4 1.5-5 5-5h32c3.5 0 5 1.5 5 5v78c0 3.5-1.5 5-5 5H54c-3.5 0-5-1.6-5-5v-1.1h-2V86c0 3.3 2.7 6 6 6h34c3.3 0 6-2.7 6-6V6c0-3.3-2.7-6-6-6z"/><path class="atst1" d="M34 90H7V58.1c0-.6.4-1 1-1s1 .4 1 1V88h25c.6 0 1 .4 1 1s-.4 1-1 1z"/><path class="atst1" d="M15 66.1c-.3 0-.5-.1-.7-.3l-7-7c-.4-.4-.4-1 0-1.4s1-.4 1.4 0l7 7c.4.4.4 1 0 1.4-.2.2-.4.3-.7.3z"/><path class="atst1" d="M1 66.1c-.3 0-.5-.1-.7-.3-.4-.4-.4-1 0-1.4l7-7c.4-.4 1-.4 1.4 0s.4 1 0 1.4l-7 7c-.2.2-.4.3-.7.3zM48 73c-.6 0-1-.4-1-1V42.1H22c-.6 0-1-.4-1-1s.4-1 1-1h27V72c0 .6-.4 1-1 1z"/><path class="atst1" d="M48 73c-.3 0-.5-.1-.7-.3l-7-7c-.4-.4-.4-1 0-1.4s1-.4 1.4 0l7 7c.4.4.4 1 0 1.4-.2.2-.4.3-.7.3z"/><path class="atst1" d="M48 73c-.3 0-.5-.1-.7-.3-.4-.4-.4-1 0-1.4l7-7c.4-.4 1-.4 1.4 0s.4 1 0 1.4l-7 7c-.2.2-.4.3-.7.3z"/></symbol><symbol viewBox="0 0 18 18" id="icon-phone" xmlns="http://www.w3.org/2000/svg"><path fill-rule="evenodd" d="M3.62 7.79c1.44 2.83 3.76 5.14 6.59 6.59l2.2-2.2c.27-.27.67-.36 1.02-.24 1.12.37 2.33.57 3.57.57.55 0 1 .45 1 1V17c0 .55-.45 1-1 1C7.61 18 0 10.39 0 1c0-.55.45-1 1-1h3.5c.55 0 1 .45 1 1 0 1.25.2 2.45.57 3.57.11.35.03.74-.25 1.02l-2.2 2.2z"/></symbol><symbol viewBox="0 0 49 87" id="icon-phone-slider" xmlns="http://www.w3.org/2000/svg"><title>icon-phone-slider</title><path d="M18.875 8h11.25C31.162 8 32 8.896 32 10s-.838 2-1.875 2h-11.25C17.838 12 17 11.104 17 10s.838-2 1.875-2zM34 38h4a2 2 0 0 1 2 2v4c0 1.106-.894 2-2 2h-4c-1.106 0-2-.894-2-2v-4a2 2 0 0 1 2-2zm0-14h4a2 2 0 0 1 2 2v4a2 2 0 0 1-2 2h-4a2 2 0 0 1-2-2v-4a2 2 0 0 1 2-2zM23 51h4c1.106 0 2 .894 2 2v4c0 1.106-.894 2-2 2h-4c-1.106 0-2-.894-2-2v-4c0-1.106.894-2 2-2zm0-13h4a2 2 0 0 1 2 2v4c0 1.106-.894 2-2 2h-4c-1.106 0-2-.894-2-2v-4a2 2 0 0 1 2-2zm0-14h4a2 2 0 0 1 2 2v4a2 2 0 0 1-2 2h-4a2 2 0 0 1-2-2v-4a2 2 0 0 1 2-2zM11 51h4c1.106 0 2 .894 2 2v4c0 1.106-.894 2-2 2h-4c-1.106 0-2-.894-2-2v-4c0-1.106.894-2 2-2zm0-13h4a2 2 0 0 1 2 2v4c0 1.106-.894 2-2 2h-4c-1.106 0-2-.894-2-2v-4a2 2 0 0 1 2-2zm0-14h4a2 2 0 0 1 2 2v4a2 2 0 0 1-2 2h-4a2 2 0 0 1-2-2v-4a2 2 0 0 1 2-2zm14 57c-2.208 0-4-1.792-4-4s1.792-4 4-4 4 1.792 4 4-1.792 4-4 4zm20-9H4v7.333C4 81.357 5.67 83 7.727 83h33.546C43.33 83 45 81.357 45 79.333V72zM4 68h41V19H4v49zM45 7.667C45 5.643 43.33 4 41.273 4H7.727C5.67 4 4 5.643 4 7.667V15h41V7.667zM41.462 87H7.538C3.375 87 0 83.613 0 79.435V7.565C0 3.387 3.375 0 7.538 0h33.924C45.625 0 49 3.387 49 7.565v71.87C49 83.613 45.625 87 41.462 87z" fill-rule="evenodd"/></symbol><symbol viewBox="0 0 16 13" id="icon-photo" xmlns="http://www.w3.org/2000/svg"><path d="M13.09 2.889h-.29c-.29 0-.51-.145-.655-.433L11.273.794C11.055.29 10.545 0 9.963 0h-4c-.508 0-1.018.289-1.308.794l-.8 1.662c-.146.288-.364.433-.655.433h-.29c-1.6 0-2.91 1.3-2.91 2.889v4.333C0 11.7 1.31 13 2.91 13h10.18c1.6 0 2.91-1.3 2.91-2.889V5.778c0-1.59-1.31-2.89-2.91-2.89zM8 10.11c-1.6 0-2.91-1.3-2.91-2.889C5.09 5.633 6.4 4.333 8 4.333s2.91 1.3 2.91 2.89C10.91 8.81 9.6 10.11 8 10.11z"/></symbol><symbol viewBox="0 0 14 20" id="icon-place" xmlns="http://www.w3.org/2000/svg"><path fill-rule="evenodd" d="M7 0C3.13 0 0 3.13 0 7c0 5.25 7 13 7 13s7-7.75 7-13c0-3.87-3.13-7-7-7zm0 9.5a2.5 2.5 0 0 1 0-5 2.5 2.5 0 0 1 0 5z"/></symbol><symbol viewBox="0 0 76 92" id="icon-screen_grey" xmlns="http://www.w3.org/2000/svg"><path class="ayst0" d="M43.9 72H.9l1 2h43l-1-2zm-6.2-62H.9v2h36.8v-2zM22.9 78c-2.2 0-4 1.8-4 4s1.8 4 4 4 4-1.8 4-4-1.7-4-4-4zm0 6c-1.1 0-2-.9-2-2s.9-2 2-2 2 .9 2 2-.8 2-2 2z"/><circle class="ayst0" cx="15.9" cy="6" r="1"/><path class="ayst0" d="M30.9 6c0 .6-.4 1-1 1h-9c-.6 0-1-.4-1-1s.4-1 1-1h9c.6 0 1 .4 1 1zM72 5H40c-2.2 0-4 1.8-4 4v56c0 2.2 1.8 4 4 4h32c2.2 0 4-1.8 4-4V9c0-2.2-1.8-4-4-4zm2 60c0 1.2-.9 2.1-2.1 2.1H40.1c-1.2 0-2.1-.9-2.1-2.1V9.1c0-1.2.9-2.1 2.1-2.1h31.8c1.2 0 2.1.9 2.1 2.1V65zM18 38h15"/><path class="ayst1" d="M33 39H18c-.6 0-1-.4-1-1s.4-1 1-1h15c.6 0 1 .4 1 1s-.4 1-1 1z"/><path class="ayst0" d="M33 38l-7-7"/><path class="ayst1" d="M33 39c-.3 0-.5-.1-.7-.3l-7-7c-.4-.4-.4-1 0-1.4s1-.4 1.4 0l7 7c.4.4.4 1 0 1.4-.2.2-.4.3-.7.3z"/><path class="ayst0" d="M26 45l7-7"/><path class="ayst1" d="M26 46c-.3 0-.5-.1-.7-.3-.4-.4-.4-1 0-1.4l7-7c.4-.4 1-.4 1.4 0s.4 1 0 1.4l-7 7c-.2.2-.4.3-.7.3z"/><path class="ayst0" d="M44 67.6V85c0 3.6-1.5 5-5 5H7c-3.5 0-5-1.5-5-5V7c0-3.4 1.6-5 5-5h32c3.4 0 4.9 1.5 5 4.6h2V6c0-3.3-2.7-6-6-6H6C2.7 0 0 2.7 0 6v80c0 3.3 2.7 6 6 6h34c3.3 0 6-2.7 6-6V67.6h-2z"/></symbol><symbol viewBox="0 0 49 93" id="icon-screwdriver" xmlns="http://www.w3.org/2000/svg"><title>icon-screwdriver</title><g fill-rule="evenodd"><path d="M14.55 40.93c-2.464-1.37-4.79-3.424-6.434-5.887-5.614-7.8-4.937-18.88 1.762-25.853 1.504-1.504 3.144-2.87 5.06-3.964l.146 16.28c0 2.735.96 5.06 2.877 6.977 1.917 1.916 4.243 2.875 6.98 2.877a9.793 9.793 0 0 0 9.842-9.843l-.147-16.28c1.916 1.097 3.832 2.74 5.475 4.382 6.707 7.527 6.85 19.428.017 27.084-1.504 1.778-3.28 3.28-5.333 4.238-6.153 3.416-13.814 3.41-19.972-.013-.136.136-.136.136-.273 0m23.14 39l-.016-27.36c0-1.093-.822-1.915-1.916-1.915-1.095 0-1.915.82-1.914 1.914l.017 27.357c.004 4.925-4.097 9.026-9.022 9.023-2.462 0-4.788-.96-6.43-2.603-1.643-1.642-2.602-3.97-2.604-6.43l-.158-34.063c6.842 2.74 14.502 2.198 21.066-1.354 2.46-1.367 4.512-3.144 6.29-5.195 7.927-9.023 7.918-23.25-.02-32.283-2.74-3.01-6.024-5.202-9.718-6.71-.547 0-1.094 0-1.778.41-.547.273-.82.82-.683 1.505l-.125 19.287a5.832 5.832 0 0 1-5.878 5.88c-3.147-.14-5.884-2.877-5.886-5.887L19.04 2.22c-.14-.685-.412-1.232-.96-1.506-.684-.41-1.23-.41-1.915-.275C12.745 1.667 9.6 3.717 7.14 6.45c-8.065 8.34-8.878 21.745-2.17 30.914.822 1.095 1.644 2.19 2.602 3.148a25.835 25.835 0 0 0 4.243 3.423l.16 35.977c0 3.556 1.234 6.703 3.698 9.167 2.464 2.465 5.748 3.835 9.168 3.7a12.822 12.822 0 0 0 12.85-12.85"/><path d="M26.143 74.387c-.82-.82-1.914-.82-2.735 0-.82.82-.82 1.915 0 2.736.82.82 1.915.82 2.735 0 .82-.82.82-1.915 0-2.736m-5.47 5.47c-2.325-2.324-2.325-5.88 0-8.205s5.88-2.325 8.205 0 2.325 5.88 0 8.206c-2.188 2.188-5.88 2.325-8.205 0"/></g></symbol><symbol viewBox="0 0 16 16" id="icon-search" xmlns="http://www.w3.org/2000/svg"><title>if_search_126577</title><path d="M15.7 14.3l-3.105-3.105A6.966 6.966 0 0 0 14 7a7 7 0 1 0-7 7 6.96 6.96 0 0 0 4.194-1.405L14.3 15.7c.184.184.38.3.7.3a1 1 0 0 0 1-1 .925.925 0 0 0-.3-.7zM2 7c0-2.762 2.238-5 5-5s5 2.238 5 5-2.238 5-5 5-5-2.238-5-5z"/></symbol><symbol viewBox="0 0 42 33" id="icon-smile" xmlns="http://www.w3.org/2000/svg"><title>icon-smile</title><g transform="translate(2)" fill-rule="evenodd"><circle cx="8.5" cy="3.5" r="3.5"/><circle cx="25.5" cy="3.5" r="3.5"/><path d="M0 24c6.333 4.667 12.667 7 19 7s12.667-2.333 19-7"/></g></symbol><symbol viewBox="0 0 32 30" id="icon-star-check" xmlns="http://www.w3.org/2000/svg"><g fill-rule="evenodd"><path d="M6.953 14.988c-.019 4.765 4.01 8.694 8.933 8.71 5.1.016 9.138-3.822 9.157-8.704.018-4.7-4.051-8.61-8.979-8.626-5.023-.016-9.093 3.834-9.111 8.62M7.205 2.84l1.479.224c1.067.16 1.503-.028 2.056-.91.278-.443.517-.91.812-1.342.573-.84 1.122-.953 2.008-.423.494.296.965.625 1.447.937.662.43 1.323.437 1.985-.001.48-.317.95-.649 1.445-.942.891-.527 1.435-.41 2.007.43.279.41.505.851.766 1.272.594.964 1.03 1.149 2.185.97.56-.088 1.123-.184 1.688-.213.8-.04 1.199.27 1.319 1.03.095.603.13 1.217.167 1.828.047.787.441 1.298 1.236 1.521.504.142 1.009.28 1.507.438 1.167.37 1.426.88 1.005 1.986-.17.447-.367.885-.56 1.323-.343.774-.19 1.43.476 1.983.386.322.77.648 1.134.991.832.783.837 1.378.013 2.164-.423.403-.877.776-1.31 1.17-.479.439-.623.965-.393 1.566.216.561.464 1.11.669 1.675.366 1.009.118 1.507-.93 1.858-.535.18-1.084.32-1.629.474-.777.22-1.166.722-1.217 1.492-.04.597-.076 1.196-.161 1.789-.12.825-.516 1.14-1.39 1.09-.551-.031-1.098-.133-1.644-.217-1.132-.174-1.577.016-2.155.956-.267.434-.498.888-.784 1.31-.557.818-1.107.935-1.979.423-.46-.27-.896-.576-1.333-.88-.75-.518-1.49-.535-2.242-.007-.39.274-.785.541-1.189.794-1.032.646-1.593.523-2.243-.491-.23-.36-.428-.737-.649-1.102-.599-.99-1.042-1.18-2.21-.998-.574.09-1.151.187-1.73.212-.758.033-1.147-.276-1.261-.995-.098-.617-.136-1.245-.175-1.87-.05-.788-.45-1.293-1.243-1.517-.517-.146-1.037-.283-1.548-.45-1.12-.364-1.368-.863-.967-1.936.191-.512.407-1.016.618-1.52.277-.663.12-1.227-.411-1.706-.435-.392-.89-.765-1.31-1.17-.75-.721-.752-1.317-.004-2.046.358-.35.74-.678 1.13-.995.722-.587.911-1.275.516-2.114-.21-.445-.398-.902-.56-1.366-.357-1.014-.11-1.494.947-1.847.535-.18 1.082-.326 1.626-.482.781-.223 1.154-.738 1.206-1.502.04-.583.073-1.17.158-1.748.126-.853.51-1.138 1.622-1.116"/><path d="M14.81 15.887c1.478-1.465 2.9-2.873 4.32-4.282.334-.332.73-.524 1.22-.469.54.061.928.341 1.125.823.197.482.11.936-.247 1.328-.177.194-.38.368-.572.549l-5.602 5.255c-.11.104-.226.203-.385.346-.708-.684-1.404-1.358-2.103-2.03-.552-.529-1.109-1.054-1.661-1.583-.61-.585-.645-1.387-.087-1.92.559-.531 1.41-.504 2.018.075.613.583 1.217 1.175 1.975 1.908"/></g></symbol><symbol viewBox="0 0 512 482" id="icon-tel" xmlns="http://www.w3.org/2000/svg"><path class="bdst0" d="M388.2 481c-16.3-.6-31.9-4.8-47.2-9.7-91-29.4-169.9-78.2-234.8-148.7-44.2-48-76.4-103.3-99-164.4-7.4-20.1-5.8-38.8 2.3-57.6 10.7-25 27.3-46 45.8-65.6 8.9-9.5 18.5-18.3 28.5-26.6 9-7.6 19.5-7.3 27.7 1 29.3 29.5 55.7 61.5 80.2 95 5.1 6.9 3.7 16.5-3 22-18.3 14.8-34.7 31.6-49.4 50.1-6.4 8.1-5.2 15-.9 21.1 40.5 58.5 88.6 109 151.1 144.5 7.8 4.4 15.8 8.6 23.9 12.5 9.1 4.4 13.4 3.4 20.6-3.7 15.6-15.5 26.6-34.5 38.8-52.6 4.8-7.2 12.5-10.1 20.8-7.6 3.2 1 6 2.8 8.8 4.6 26.2 17.1 52.4 34.3 78.7 51.3 7.3 4.7 14.7 9.2 22 13.9 7.9 5 10.5 15.7 5.4 23.1-26.5 38.3-58.5 70.8-100.1 92.9-6.4 3.5-13.1 4.6-20.2 4.5z"/></symbol><symbol viewBox="0 0 21 18" id="icon-telegram" xmlns="http://www.w3.org/2000/svg"><title>Page 1</title><g fill-rule="evenodd"><path d="M20.958.703l-3.315 16.51s-.464 1.146-1.738.596l-7.65-5.794-2.78-1.33L.79 9.13s-.72-.252-.788-.8c-.07-.55.81-.85.81-.85L19.43.27s1.53-.665 1.53.435"/><path d="M7.668 17.03s-.224-.022-.502-.892-1.692-5.45-1.692-5.45l11.242-7.054s.65-.39.626 0c0 0 .116.07-.232.39-.348.32-8.83 7.854-8.83 7.854"/><path d="M11.188 14.237l-3.025 2.726s-.237.177-.495.066l.58-5.064"/></g></symbol><symbol viewBox="0 0 13 13" id="icon-time" xmlns="http://www.w3.org/2000/svg"><title>Icon 24px</title><g fill-rule="evenodd"><path d="M6.494 0C2.905 0 0 2.912 0 6.5S2.905 13 6.494 13C10.088 13 13 10.088 13 6.5S10.088 0 6.494 0zM6.5 11.7c-2.873 0-5.2-2.327-5.2-5.2s2.327-5.2 5.2-5.2 5.2 2.327 5.2 5.2-2.327 5.2-5.2 5.2z"/><path d="M6.825 3.25H5.85v3.9l3.412 2.047.488-.8-2.925-1.735"/></g></symbol><symbol viewBox="0 0 27 16" id="icon-vk" xmlns="http://www.w3.org/2000/svg"><title>Page 1</title><path d="M13.21 15.933h1.614s.488-.056.737-.334c.23-.257.222-.738.222-.738s-.03-2.25.974-2.58c.99-.327 2.263 2.174 3.61 3.135 1.02.728 1.796.568 1.796.568l3.606-.052s1.886-.12.99-1.66c-.072-.127-.52-1.14-2.68-3.223-2.26-2.18-1.958-1.828.766-5.598 1.658-2.296 2.32-3.698 2.114-4.3-.197-.57-1.417-.42-1.417-.42L21.48.76s-.3-.044-.523.095c-.218.135-.36.452-.36.452s-.64 1.777-1.498 3.288c-1.81 3.19-2.532 3.357-2.827 3.16-.688-.462-.516-1.854-.516-2.844 0-3.09.45-4.377-.88-4.71-.44-.11-.765-.185-1.894-.196-1.448-.016-2.674.004-3.368.357-.462.236-.818.76-.6.79.267.037.875.17 1.197.626.416.588.4 1.908.4 1.908s.24 3.637-.557 4.09c-.547.31-1.298-.324-2.91-3.216-.825-1.482-1.45-3.12-1.45-3.12s-.12-.306-.333-.47c-.26-.2-.624-.262-.624-.262L.88.733S.3.75.088 1.01c-.19.234-.015.715-.015.715s3.02 7.34 6.44 11.04c3.137 3.39 6.697 3.168 6.697 3.168" fill-rule="evenodd"/></symbol><symbol viewBox="0 0 15 15" id="icon-web" xmlns="http://www.w3.org/2000/svg"><title>web icon</title><path d="M15 7.5c0 4.175-3.402 7.5-7.5 7.5S0 11.675 0 7.5 3.325 0 7.5 0 15 3.325 15 7.5zm-7.577 3.557c0-.155-.078-.232-.232-.31-.463-.154-.927-.154-1.314-.54-.077-.155-.077-.31-.154-.465-.155-.154-.542-.232-.774-.31H3.403c-.233-.076-.388-.386-.542-.618 0-.077 0-.232-.154-.232-.154-.077-.31.078-.464 0-.077-.077-.077-.154-.077-.23 0-.233.155-.465.31-.62.23-.155.463.077.695.077.077 0 .077 0 .155.077.232.077.31.386.31.618v.155c0 .077.076.077.154.077.076-.386.076-.773.153-1.16 0-.464.464-.928.85-1.082.155-.077.233.077.387 0 .464-.155 1.624-.62 1.392-1.237-.154-.542-.618-1.083-1.237-1.005-.155.077-.232.154-.387.232-.232.154-.695.618-.927.618-.386-.077-.386-.618-.31-.85.08-.31.775-1.315 1.238-1.16l.31.31c.154.076.386.076.618.076.078 0 .155 0 .232-.078.078-.077.078-.077.078-.155 0-.232-.232-.463-.387-.618a1.694 1.694 0 0 0-.62-.388c-.773-.232-2.01.078-2.628.62C1.932 3.4 1.47 4.33 1.16 5.1a9.96 9.96 0 0 0-.387 1.625c-.077.386-.154.696.078 1.082.232.463.696.927 1.16 1.236.31.232.928.232 1.237.62.232.308.155.695.155 1.08 0 .465.31.852.464 1.24.077.23.155.54.232.772 0 .077.077.54.077.618.464.232.85.464 1.392.62.077 0 .387-.465.387-.542.232-.232.386-.542.618-.696.155-.078.31-.155.464-.31.155-.154.232-.463.31-.695.077-.155.154-.464.077-.696zm.154-7.114c.078 0 .155-.077.31-.154.232-.156.464-.388.695-.543.232-.154.464-.386.62-.54.23-.155.386-.465.463-.697.077-.154.31-.464.232-.696-.077-.154-.464-.232-.62-.31A7.153 7.153 0 0 0 7.5.775c-.232 0-.54.077-.62.308-.076.387.233.31.543.387 0 0 .077.618.077.695.077.387-.155.62-.155 1.005 0 .232 0 .62.155.773h.077zm6.495 5.413c.077-.155.077-.387.155-.542.077-.386.077-.773.077-1.16 0-.773-.077-1.546-.31-2.242-.154-.232-.23-.464-.308-.696a3.255 3.255 0 0 0-.696-1.082c-.31-.387-.696-1.47-1.392-1.16-.232.078-.387.387-.54.54l-.465.697c-.078.08-.155.233-.078.31 0 .078.078.078.155.078.155.077.232.077.387.155.077 0 .154.077.077.154 0 0 0 .078-.077.078-.387.386-.773.695-1.16 1.082-.077.077-.155.232-.155.31 0 .077.078.077.078.154 0 .078-.078.078-.155.156-.155.077-.31.154-.387.232-.077.154 0 .386-.077.54-.076.387-.308.697-.463 1.083-.155.233-.232.465-.386.697 0 .31-.077.54.078.773.386.542 1.082.232 1.624.464.154.078.31.078.386.232.232.232.232.62.31.85.077.31.154.62.31.93.076.385.23.772.308 1.08.696-.54 1.314-1.16 1.778-1.932.464-.54.696-1.16.928-1.778z"/><path d="M7.5 0C3.375 0 0 3.375 0 7.5S3.375 15 7.5 15 15 11.625 15 7.5 11.625 0 7.5 0zm0 13.8c-3.45 0-6.3-2.85-6.3-6.3 0-3.45 2.85-6.3 6.3-6.3 3.45 0 6.3 2.85 6.3 6.3 0 3.45-2.85 6.3-6.3 6.3z"/></symbol><symbol viewBox="0 0 50 93" id="icon-wrench" xmlns="http://www.w3.org/2000/svg"><title>wrench</title><g fill-rule="evenodd"><path d="M14.773 41c-2.463-1.37-4.79-3.424-6.433-5.887-5.613-7.8-4.936-18.88 1.762-25.853 1.504-1.504 3.145-2.87 5.06-3.964l.146 16.279c.002 2.736.96 5.062 2.877 6.978 1.916 1.916 4.243 2.875 6.978 2.877a9.793 9.793 0 0 0 9.843-9.843L34.86 5.308c1.916 1.096 3.832 2.739 5.475 4.381 6.708 7.528 6.852 19.43.017 27.085-1.504 1.778-3.281 3.281-5.332 4.238-6.154 3.416-13.814 3.411-19.972-.013-.137.137-.137.137-.274 0m23.143 39L37.9 52.641c-.001-1.094-.822-1.916-1.917-1.916-1.094-.001-1.914.82-1.914 1.914l.017 27.358c.003 4.925-4.098 9.026-9.022 9.023-2.463-.001-4.789-.96-6.431-2.603-1.643-1.642-2.602-3.969-2.603-6.43l-.159-34.063c6.842 2.74 14.502 2.198 21.066-1.354 2.461-1.367 4.512-3.144 6.29-5.195 7.928-9.023 7.919-23.25-.021-32.283-2.738-3.011-6.022-5.202-9.717-6.709-.547 0-1.094 0-1.778.41-.547.273-.82.82-.683 1.504l-.124 19.287a5.83 5.83 0 0 1-5.879 5.879c-3.146-.139-5.884-2.876-5.886-5.886l.125-19.288c-.137-.684-.411-1.231-.958-1.505-.685-.41-1.232-.411-1.916-.275-3.419 1.23-6.564 3.279-9.024 6.013-8.066 8.34-8.878 21.745-2.17 30.914.822 1.095 1.643 2.19 2.601 3.148a25.833 25.833 0 0 0 4.243 3.423l.16 35.977c.002 3.556 1.235 6.703 3.699 9.167 2.463 2.464 5.747 3.834 9.167 3.7A12.824 12.824 0 0 0 37.915 80"/><path d="M26.368 74.458c-.821-.821-1.915-.821-2.736 0-.82.82-.82 1.914 0 2.735.821.82 1.915.82 2.736 0 .82-.82.82-1.915 0-2.735m-5.47 5.47c-2.326-2.325-2.326-5.88 0-8.206 2.324-2.325 5.88-2.325 8.205 0s2.325 5.881 0 8.206c-2.188 2.188-5.88 2.325-8.206 0"/></g></symbol><symbol viewBox="0 0 18 18" id="icon-zoom-out-map" xmlns="http://www.w3.org/2000/svg"><defs><path id="bja" d="M0 0h24v24H0z"/><path id="bjc" d="M0 0h24v24H0z"/></defs><g fill-rule="evenodd" transform="translate(-3 -3)"><mask id="bjb"><use xlink:href="#bja"/></mask><path d="M15 3l2.3 2.3-2.89 2.87 1.42 1.42L18.7 6.7 21 9V3h-6zM3 9l2.3-2.3 2.87 2.89 1.42-1.42L6.7 5.3 9 3H3v6zm6 12l-2.3-2.3 2.89-2.87-1.42-1.42L5.3 17.3 3 15v6h6zm12-6l-2.3 2.3-2.87-2.89-1.42 1.42 2.89 2.87L15 21h6v-6z" mask="url(#bjb)"/><g><mask id="bjd"><use xlink:href="#bjc"/></mask><path d="M0 0h24v24H0z" mask="url(#bjd)"/></g></g></symbol></svg>