<svg width="22" height="22" viewBox="0 0 22 22" xmlns="http://www.w3.org/2000/svg">
  <title>
    Shape
  </title>
  <path d="M11 21.89H2.596c-.697 0-1.282-.254-1.773-.745-.49-.49-.728-1.092-.728-1.788V2.597c0-.698.253-1.3.744-1.79C1.265.38 1.787.142 2.405.08c.08 0 .142-.017.22-.017h16.747c.712 0 1.313.254 1.804.744.475.49.728 1.076.728 1.757v16.793c0 1.22-.886 2.263-2.09 2.47-.142.03-.284.03-.427.03-2.8.032-5.602.032-8.388.032zM4.495 9.32h-1.9v9.243c.017.35.19.618.507.76.127.063.253.063.396.063H18.55c.253-.015.474-.11.65-.316.125-.158.188-.348.188-.554v-9.18h-1.9c.35 1.36.286 2.707-.205 4.02-.49 1.314-1.33 2.374-2.484 3.182-2.2 1.52-5.098 1.582-7.36.174-1.14-.713-1.995-1.662-2.55-2.88-.648-1.473-.775-2.976-.395-4.512zM11 15.178c2.31 0 4.194-1.867 4.194-4.178 0-2.327-1.867-4.21-4.194-4.21-2.342 0-4.194 1.915-4.194 4.194 0 2.327 1.867 4.194 4.194 4.194zm6.283-8.388h1.267c.474 0 .838-.364.838-.84v-2.5c0-.047 0-.095-.015-.142-.08-.427-.412-.696-.84-.696H16.05c-.492 0-.856.364-.856.854V5.95c0 .492.396.872.855.856.41-.016.822-.016 1.233-.016z" fill-rule="nonzero" fill="#FFF"/>
</svg>
