<svg xmlns="http://www.w3.org/2000/svg" width="512" height="482" viewBox="0 0 512 482"><path class="st0" d="M388.2 481c-16.3-.6-31.9-4.8-47.2-9.7-91-29.4-169.9-78.2-234.8-148.7-44.2-48-76.4-103.3-99-164.4-7.4-20.1-5.8-38.8 2.3-57.6 10.7-25 27.3-46 45.8-65.6 8.9-9.5 18.5-18.3 28.5-26.6 9-7.6 19.5-7.3 27.7 1 29.3 29.5 55.7 61.5 80.2 95 5.1 6.9 3.7 16.5-3 22-18.3 14.8-34.7 31.6-49.4 50.1-6.4 8.1-5.2 15-.9 21.1 40.5 58.5 88.6 109 151.1 144.5 7.8 4.4 15.8 8.6 23.9 12.5 9.1 4.4 13.4 3.4 20.6-3.7 15.6-15.5 26.6-34.5 38.8-52.6 4.8-7.2 12.5-10.1 20.8-7.6 3.2 1 6 2.8 8.8 4.6 26.2 17.1 52.4 34.3 78.7 51.3 7.3 4.7 14.7 9.2 22 13.9 7.9 5 10.5 15.7 5.4 23.1-26.5 38.3-58.5 70.8-100.1 92.9-6.4 3.5-13.1 4.6-20.2 4.5z"/></svg>