<svg xmlns="http://www.w3.org/2000/svg" width="86.6" height="92" viewBox="0 0 86.6 92">
   <path class="st0" d="M63.5 78c-2.2 0-4 1.8-4 4s1.8 4 4 4 4-1.8 4-4-1.8-4-4-4zm0 6c-1.1 0-2-.9-2-2s.9-2 2-2 2 .9 2 2-.9 2-2 2zm-22-74v2h44v-2h-44zm0 62l1 2h43l-1-2h-43z" id="Smartphone_1_"/>
  <path class="st1" d="M72.1 45.4l-7-9.8c-.2-.4-.7-.6-1.2-.6s-.9.2-1.2.6l-7 9.8s0 .1-.1.1c-1.5 2.7-1.5 6 0 8.7 1.7 3 4.8 4.8 8.2 4.8s6.5-1.8 8.2-4.8c1.6-2.8 1.6-6 0-8.7.1 0 .1 0 .1-.1zm-1.6 8.4c-1.2 1.7-4 3.2-6.6 3.2-2.3 0-5.2-1.1-6.5-3.3-1-1.7-1.7-4.7-.4-6.8l6.9-9.9 6.9 9.9c1.3 2.2 1 5-.3 6.9z"/>
  <path class="st1" d="M69.5 48.7c-.6 0-1.1.5-1.1 1.1 0 1.2-.9 2.1-2.1 2.1-.6 0-1.1.5-1.1 1.1 0 .6.5 1.1 1.1 1.1 2.3 0 4.3-1.9 4.3-4.3 0-.7-.5-1.1-1.1-1.1zM15.6 20c-1.9 0-3.5 2.3-3.5 4.2v18c-4.4 1.5-7.6 5.5-7.7 10.3-.1.1-.1.2-.1.3L.1 69.4c-.1.4 0 .8.2 1.1.3.3.6.5 1 .5h29.3c.4 0 .8-.2 1-.5.3-.3.3-.7.2-1.1L27 52.8c0-.1-.1-.2-.1-.3-.2-4.8-3.3-8.9-7.7-10.3v-18c-.1-1.9-1.7-4.2-3.6-4.2zm-1.4 3.2c0-.5.6-1.2 1.4-1.2.8 0 1.5.7 1.5 1.2v18.5c-.3 0-1-.2-1.5-.2s-1.1.1-1.4.2V23.2zM29.6 69h-6l-1.5-9c-.1-.4-.6-.8-1.3-.8-.6 0-.7.4-.6.8l1.5 9h-5v-8c0-.5-.3-1-1-1-.6 0-1 .5-1 1v8h-4.2l.8-9c0-.4-.1-.7-.8-.8-.7-.1-1 .4-1.1.8l-.9 9H2.3l3.6-14.5h19.6L29.6 69zm-4.8-17H6.4c.5-4.4 4.2-8.1 9.2-8.1 4.9-.1 8.7 3.7 9.2 8.1z"/>
  <path class="st0" d="M80.6 92h-34c-3.3 0-6-2.7-6-6V6c0-3.3 2.7-6 6-6h34c3.3 0 6 2.7 6 6v80c0 3.3-2.7 6-6 6zm4-85c0-3.4-1.5-5-5-5h-32c-3.4 0-5 1.6-5 5v78c0 3.5 1.5 5 5 5h32c3.5 0 5-1.4 5-5V7z"/>
  <circle class="st0" cx="56.5" cy="6" r="1"/>
  <path class="st0" d="M71.5 6c0 .6-.4 1-1 1h-9c-.6 0-1-.4-1-1s.4-1 1-1h9c.6 0 1 .4 1 1z"/>
</svg>
