<svg width="49" height="93" viewBox="0 0 49 93" xmlns="http://www.w3.org/2000/svg"><title>icon-screwdriver</title><g fill="#2C2B3A" fill-rule="evenodd"><path d="M14.55 40.93c-2.464-1.37-4.79-3.424-6.434-5.887-5.614-7.8-4.937-18.88 1.762-25.853 1.504-1.504 3.144-2.87 5.06-3.964l.146 16.28c0 2.735.96 5.06 2.877 6.977 1.917 1.916 4.243 2.875 6.98 2.877 5.47.003 9.845-4.37 9.842-9.843l-.147-16.28c1.916 1.097 3.832 2.74 5.475 4.382 6.707 7.527 6.85 19.428.017 27.084-1.504 1.778-3.28 3.28-5.333 4.238-6.153 3.416-13.814 3.41-19.972-.013-.136.136-.136.136-.273 0m23.14 39l-.016-27.36c0-1.093-.822-1.915-1.916-1.915-1.095 0-1.915.82-1.914 1.914l.017 27.357c.004 4.925-4.097 9.026-9.022 9.023-2.462 0-4.788-.96-6.43-2.603-1.643-1.642-2.602-3.97-2.604-6.43l-.158-34.063c6.842 2.74 14.502 2.198 21.066-1.354 2.46-1.367 4.512-3.144 6.29-5.195 7.927-9.023 7.918-23.25-.02-32.283-2.74-3.01-6.024-5.202-9.718-6.71-.547 0-1.094 0-1.778.41-.547.273-.82.82-.683 1.505l-.125 19.287c.002 3.283-2.595 5.88-5.878 5.88-3.147-.14-5.884-2.877-5.886-5.887L19.04 2.22c-.14-.685-.412-1.232-.96-1.506-.684-.41-1.23-.41-1.915-.275C12.745 1.667 9.6 3.717 7.14 6.45c-8.065 8.34-8.878 21.745-2.17 30.914.822 1.095 1.644 2.19 2.602 3.148 1.232 1.232 2.737 2.464 4.243 3.423l.16 35.977c0 3.556 1.234 6.703 3.698 9.167 2.464 2.465 5.748 3.835 9.168 3.7 7.114.005 12.856-5.737 12.85-12.85"/><path d="M26.143 74.387c-.82-.82-1.914-.82-2.735 0-.82.82-.82 1.915 0 2.736.82.82 1.915.82 2.735 0 .82-.82.82-1.915 0-2.736m-5.47 5.47c-2.325-2.324-2.325-5.88 0-8.205s5.88-2.325 8.205 0 2.325 5.88 0 8.206c-2.188 2.188-5.88 2.325-8.205 0"/></g></svg>