<svg xmlns="http://www.w3.org/2000/svg" width="93" height="92" viewBox="0 0 93 92">
 <path class="st0" d="M27.5 72c-3.3 0-6-2.7-6-5.9V57c0-3.3 2.7-5.9 6-5.9s6 2.7 6 5.9v9c0 3.3-2.7 6-6 6zm3.9-15.1c0-2-1.7-3.9-3.8-3.9-2 0-3.9 1.8-3.9 3.9V66c0 2.3 1.7 4 3.9 4s3.8-1.7 3.8-4v-9.1zm-3.9 16.6c3.7 0 7.5-3 7.5-6.1 0-.5.4-.9 1-.9s1 .5 1 .9c0 4.2-3.9 7.7-8.5 8.3V79h2c.6 0 1.1.4 1.1 1 0 .5-.4 1.1-1.1 1.1h-6c-.5 0-1.1-.4-1.1-1.1 0-.6.6-1 1.1-1h2v-3.3c-4.6-.6-8.5-4.1-8.5-8.3 0-.5.4-1 1-1 .7 0 1 .5 1 1 0 3.1 3.8 6.1 7.5 6.1zM59.6 19.9c-.8 0-1.5-.7-1.5-1.5s.7-1.5 1.5-1.5 1.5.7 1.5 1.5-.7 1.5-1.5 1.5zm0-5c-.8 0-1.5-.7-1.5-1.5s.7-1.5 1.5-1.5 1.5.7 1.5 1.5-.7 1.5-1.5 1.5z"/>
  <path class="st1" d="M59.5 7.5c2.5 0 4.5 2 4.5 4.5v7c0 2.5-2 4.5-4.5 4.5S55 21.5 55 19v-7c0-2.5 2-4.5 4.5-4.5m0-2C55.9 5.5 53 8.4 53 12v7c0 3.6 2.9 6.5 6.5 6.5S66 22.6 66 19v-7c0-3.6-2.9-6.5-6.5-6.5zM73 38c-.3 0-.5-.1-.7-.3-.4-.4-.4-1 0-1.4l3-3c.4-.4 1-.4 1.4 0s.4 1 0 1.4l-3 3c-.2.2-.4.3-.7.3zM74 58c-1.5 0-2.2-.5-2.6-.8-.3-.2-.3-.2-.4-.2s-.1 0-.4.2c-.4.3-1.1.8-2.6.8-3.8 0-7-6.7-7-10 0-2.7 1.4-7 5-7 1.2 0 2 .3 2.8.6.7.2 1.3.4 2.2.4.9 0 1.8-.2 2.8-.5 1-.3 2.1-.5 3.2-.5 1.3 0 2 1 2 2 0 1.5-.9 2.6-1.5 3.3-.2.2-.5.6-.5.7 0 .8.9 1.8 1.6 2.6.8.9 1.4 1.6 1.4 2.3 0 2.5-2.3 6.1-6 6.1zm-3-3c.7 0 1.2.3 1.5.6.3.2.6.4 1.5.4 2.4 0 4-2.5 4-3.9-.1-.2-.6-.7-.9-1.1-.9-1.1-2.1-2.4-2.1-4 0-.8.5-1.4 1-2 .5-.6 1-1.2 1-2-.9 0-1.8.2-2.8.5-1 .3-2.1.5-3.2.5-1.2 0-2-.3-2.8-.6-.7-.2-1.3-.4-2.2-.4-2.2 0-3 3.4-3 5 0 2.6 2.8 8 5 8 .9 0 1.1-.2 1.5-.4.3-.3.8-.6 1.5-.6z"/>
  <path class="st0" d="M87 0H53c-3.3 0-6 2.7-6 6v29.9h2V7c0-3.4 1.5-5 5-5h32c3.5 0 5 1.5 5 5v78c0 3.5-1.5 5-5 5H54c-3.5 0-5-1.6-5-5v-1.1h-2V86c0 3.3 2.7 6 6 6h34c3.3 0 6-2.7 6-6V6c0-3.3-2.7-6-6-6z"/>
  <g id="Arrow_4_">
    <path class="st1" d="M34 90H7V58.1c0-.6.4-1 1-1s1 .4 1 1V88h25c.6 0 1 .4 1 1s-.4 1-1 1z"/>
    <path class="st1" d="M15 66.1c-.3 0-.5-.1-.7-.3l-7-7c-.4-.4-.4-1 0-1.4s1-.4 1.4 0l7 7c.4.4.4 1 0 1.4-.2.2-.4.3-.7.3z"/>
    <path class="st1" d="M1 66.1c-.3 0-.5-.1-.7-.3-.4-.4-.4-1 0-1.4l7-7c.4-.4 1-.4 1.4 0s.4 1 0 1.4l-7 7c-.2.2-.4.3-.7.3z"/>
  </g>
  <g id="Arrow_3_">
    <path class="st1" d="M48 73c-.6 0-1-.4-1-1V42.1H22c-.6 0-1-.4-1-1s.4-1 1-1h27V72c0 .6-.4 1-1 1z"/>
    <path class="st1" d="M48 73c-.3 0-.5-.1-.7-.3l-7-7c-.4-.4-.4-1 0-1.4s1-.4 1.4 0l7 7c.4.4.4 1 0 1.4-.2.2-.4.3-.7.3z"/>
    <path class="st1" d="M48 73c-.3 0-.5-.1-.7-.3-.4-.4-.4-1 0-1.4l7-7c.4-.4 1-.4 1.4 0s.4 1 0 1.4l-7 7c-.2.2-.4.3-.7.3z"/>
  </g>
</svg>
