<svg xmlns="http://www.w3.org/2000/svg" width="33" height="26" viewBox="0 0 33 26">
    <path fill="#1F7ADC" fill-rule="evenodd" d="M.07 19.221c0 3.733 3.065 6.755 6.851 6.755h11.271c3.787 0 6.851-3.022 6.851-6.755v-1.35c2.788-2.09 7.424-3.613 7.424-7.865 0-2.941-2.416-5.324-5.4-5.324-.715 0-1.396.133-2.024.386V2.686c0-1.47-1.208-2.662-2.7-2.662H2.77C1.28.024.07 1.215.07 2.686v16.535zm24.973-5.156v-4.06c0-1.104.904-1.996 2.025-1.996 1.12 0 2.025.892 2.025 1.997 0 2.056-2.106 2.854-4.05 4.059zM6.145 4.682v13.309c0 .731-.608 1.33-1.35 1.33-.742 0-1.35-.599-1.35-1.33V4.682c0-.731.608-1.33 1.35-1.33.742 0 1.35.599 1.35 1.33z"/>
</svg>
