<svg width="21" height="18" viewBox="0 0 21 18" xmlns="http://www.w3.org/2000/svg">
  <title>
    Page 1
  </title>
  <g fill="none" fill-rule="evenodd">
    <path d="M20.958.703l-3.315 16.51s-.464 1.146-1.738.596l-7.65-5.794-2.78-1.33L.79 9.13s-.72-.252-.788-.8c-.07-.55.81-.85.81-.85L19.43.27s1.53-.665 1.53.435" fill="#FEFEFE"/>
    <path d="M7.668 17.03s-.224-.022-.502-.892-1.692-5.45-1.692-5.45l11.242-7.054s.65-.39.626 0c0 0 .116.07-.232.39-.348.32-8.83 7.854-8.83 7.854" fill="#D2E5F1"/>
    <path d="M11.188 14.237l-3.025 2.726s-.237.177-.495.066l.58-5.064" fill="#B5D0E4"/>
  </g>
</svg>
