<svg width="27" height="16" viewBox="0 0 27 16" xmlns="http://www.w3.org/2000/svg">
  <title>
    Page 1
  </title>
  <path d="M13.21 15.933h1.614s.488-.056.737-.334c.23-.257.222-.738.222-.738s-.03-2.25.974-2.58c.99-.327 2.263 2.174 3.61 3.135 1.02.728 1.796.568 1.796.568l3.606-.052s1.886-.12.99-1.66c-.072-.127-.52-1.14-2.68-3.223-2.26-2.18-1.958-1.828.766-5.598 1.658-2.296 2.32-3.698 2.114-4.3-.197-.57-1.417-.42-1.417-.42L21.48.76s-.3-.044-.523.095c-.218.135-.36.452-.36.452s-.64 1.777-1.498 3.288c-1.81 3.19-2.532 3.357-2.827 3.16-.688-.462-.516-1.854-.516-2.844 0-3.09.45-4.377-.88-4.71-.44-.11-.765-.185-1.894-.196-1.448-.016-2.674.004-3.368.357-.462.236-.818.76-.6.79.267.037.875.17 1.197.626.416.588.4 1.908.4 1.908s.24 3.637-.557 4.09c-.547.31-1.298-.324-2.91-3.216-.825-1.482-1.45-3.12-1.45-3.12s-.12-.306-.333-.47c-.26-.2-.624-.262-.624-.262L.88.733S.3.75.088 1.01c-.19.234-.015.715-.015.715s3.02 7.34 6.44 11.04c3.137 3.39 6.697 3.168 6.697 3.168" fill="#FFF" fill-rule="evenodd"/>
</svg>
