<?xml version="1.0" encoding="UTF-8" standalone="no"?>
<svg width="49px" height="87px" viewBox="0 0 49 87" version="1.1" xmlns="http://www.w3.org/2000/svg" xmlns:xlink="http://www.w3.org/1999/xlink">
    <!-- Generator: Sketch 47.1 (45422) - http://www.bohemiancoding.com/sketch -->
    <title>icon-phone-slider</title>
    <desc>Created with Sketch.</desc>
    <defs></defs>
    <g id="-All-in-One" stroke="none" stroke-width="1" fill="none" fill-rule="evenodd">
        <g id="INDEX-desk" transform="translate(-685.000000, -327.000000)" fill="#2C2B3A">
            <g id="CONTENT" transform="translate(107.000000, 270.000000)">
                <g id="slider" transform="translate(28.000000, 0.000000)">
                    <g id="slide-1">
                        <path d="M568.875,65 L580.125,65 C581.161875,65 582,65.896 582,67 C582,68.104 581.161875,69 580.125,69 L568.875,69 C567.838125,69 567,68.104 567,67 C567,65.896 567.838125,65 568.875,65 L568.875,65 Z M584,95 L588,95 C589.106,95 590,95.896 590,97 L590,101 C590,102.106 589.106,103 588,103 L584,103 C582.894,103 582,102.106 582,101 L582,97 C582,95.896 582.894,95 584,95 L584,95 Z M584,81 L588,81 C589.106,81 590,81.896 590,83 L590,87 C590,88.104 589.106,89 588,89 L584,89 C582.894,89 582,88.104 582,87 L582,83 C582,81.896 582.894,81 584,81 L584,81 Z M573,108 L577,108 C578.106,108 579,108.894 579,110 L579,114 C579,115.106 578.106,116 577,116 L573,116 C571.894,116 571,115.106 571,114 L571,110 C571,108.894 571.894,108 573,108 L573,108 Z M573,95 L577,95 C578.106,95 579,95.896 579,97 L579,101 C579,102.106 578.106,103 577,103 L573,103 C571.894,103 571,102.106 571,101 L571,97 C571,95.896 571.894,95 573,95 L573,95 Z M573,81 L577,81 C578.106,81 579,81.896 579,83 L579,87 C579,88.104 578.106,89 577,89 L573,89 C571.894,89 571,88.104 571,87 L571,83 C571,81.896 571.894,81 573,81 L573,81 Z M561,108 L565,108 C566.106,108 567,108.894 567,110 L567,114 C567,115.106 566.106,116 565,116 L561,116 C559.894,116 559,115.106 559,114 L559,110 C559,108.894 559.894,108 561,108 L561,108 Z M561,95 L565,95 C566.106,95 567,95.896 567,97 L567,101 C567,102.106 566.106,103 565,103 L561,103 C559.894,103 559,102.106 559,101 L559,97 C559,95.896 559.894,95 561,95 L561,95 Z M561,81 L565,81 C566.106,81 567,81.896 567,83 L567,87 C567,88.104 566.106,89 565,89 L561,89 C559.894,89 559,88.104 559,87 L559,83 C559,81.896 559.894,81 561,81 L561,81 Z M575,138 C572.792,138 571,136.208 571,134 C571,131.792 572.792,130 575,130 C577.208,130 579,131.792 579,134 C579,136.208 577.208,138 575,138 L575,138 Z M595,129 L554,129 L554,136.333333 C554,138.357333 555.669818,140 557.727273,140 L591.272727,140 C593.330182,140 595,138.357333 595,136.333333 L595,129 Z M554,125 L595,125 L595,76 L554,76 L554,125 Z M595,64.6666667 C595,62.6426667 593.330182,61 591.272727,61 L557.727273,61 C555.669818,61 554,62.6426667 554,64.6666667 L554,72 L595,72 L595,64.6666667 Z M591.461538,144 L557.538462,144 C553.375346,144 550,140.612674 550,136.434783 L550,64.5652174 C550,60.3873261 553.375346,57 557.538462,57 L591.461538,57 C595.624654,57 599,60.3873261 599,64.5652174 L599,136.434783 C599,140.612674 595.624654,144 591.461538,144 L591.461538,144 Z" id="icon-phone-slider"></path>
                    </g>
                </g>
            </g>
        </g>
    </g>
</svg>