<?xml version="1.0" encoding="UTF-8" standalone="no"?>
<svg width="50px" height="93px" viewBox="0 0 50 93" version="1.1" xmlns="http://www.w3.org/2000/svg" xmlns:xlink="http://www.w3.org/1999/xlink">
    <!-- Generator: Sketch 47.1 (45422) - http://www.bohemiancoding.com/sketch -->
    <title>wrench</title>
    <desc>Created with Sketch.</desc>
    <defs></defs>
    <g id="Symbols" stroke="none" stroke-width="1" fill="none" fill-rule="evenodd">
        <g id="masterzen-banner/desktop" transform="translate(-252.000000, 0.000000)" fill="#2C2B3A">
            <g id="wrench" transform="translate(277.000000, 44.000000) rotate(45.000000) translate(-277.000000, -44.000000) translate(238.000000, 5.000000)">
                <path d="M29.6465005,44.1095838 C26.9364238,44.8829239 23.8391932,45.0762589 20.9355395,44.4962538 C11.4502709,42.9495736 4.09434822,34.6361672 3.90077131,24.9694156 C3.90077131,22.8427303 4.09434822,20.7160449 4.67507895,18.5893596 L16.2896936,29.9961265 C18.2254628,31.9294768 20.5483857,32.8961519 23.2584625,32.8961519 C25.9685392,32.8961519 28.2914622,31.9294768 30.2272313,29.9961265 C34.0987695,26.1294258 34.0987695,19.9427048 30.2272313,16.0760042 L18.6126166,4.66923731 C20.7419626,4.08923221 23.2584625,3.89589718 25.5813854,3.89589718 C35.6473848,4.47590228 44.1647689,12.7893086 44.7454996,23.0360653 C44.9390765,25.3560857 44.7454996,27.6761061 43.971192,29.8027914 C42.0354229,36.5695175 36.6152694,41.9828984 29.8400774,43.9162487 C29.8400774,44.1095838 29.8400774,44.1095838 29.6465005,44.1095838 M73.5884595,55.3230156 L54.2307683,35.9895124 C53.4564607,35.2161723 52.2949992,35.2161723 51.5206915,35.9895124 C50.7463839,36.7628526 50.7463839,37.9228628 51.5206915,38.6962029 L70.8783827,58.0297061 C74.3627671,61.5097366 74.3627671,67.3097876 70.8783827,70.7898181 C69.1361905,72.5298334 66.8132675,73.4965086 64.4903446,73.4965086 C62.1674217,73.4965086 59.8444987,72.5298334 58.1023065,70.7898181 L33.9051926,46.8162742 C40.6803845,43.9162487 45.7133842,38.1161978 47.8427302,30.9628016 C48.6170379,28.2561112 48.8106148,25.5494207 48.6170379,22.8427303 C47.8427302,10.8559583 37.7767308,0.802536676 25.7749623,0.0291965492 C21.7098472,-0.164138482 17.8383089,0.609201644 14.1603476,2.1558819 C13.7731938,2.54255196 13.38604,2.92922202 13.1924631,3.70256215 C12.9988861,4.28256725 13.1924631,4.86257234 13.7731938,5.2492424 L27.3235776,18.9760297 C29.6465005,21.29605 29.6465005,24.9694156 27.3235776,27.289436 C25.0006547,29.4161214 21.1291164,29.4161214 18.9997704,27.289436 L5.4493866,13.5626488 C4.86865586,13.1759787 4.28792513,12.9826437 3.7071944,13.1759787 C2.93288675,13.3693137 2.54573293,13.7559838 2.1585791,14.3359889 C0.609963811,17.6226844 -0.164343835,21.29605 0.0292330768,24.9694156 C0.222809988,36.5695175 9.12734792,46.6229392 20.3548088,48.3629545 C21.7098472,48.5562895 23.0648855,48.7496245 24.4199239,48.7496245 C26.1621161,48.7496245 28.0978852,48.5562895 29.8400774,48.1696194 L55.3922298,73.4965086 C57.9087296,76.009864 61.0059602,77.3632092 64.4903446,77.3632092 C67.974729,77.3632092 71.2655365,76.009864 73.5884595,73.4965086 C78.6214592,68.4697978 78.6214592,60.3497264 73.5884595,55.3230156" id="Fill-1"></path>
                <path d="M61.5037513,59.5696711 C60.3433032,59.5696711 59.5696711,60.3433032 59.5696711,61.5037513 C59.5696711,62.6641995 60.3433032,63.4378316 61.5037513,63.4378316 C62.6641995,63.4378316 63.4378316,62.6641995 63.4378316,61.5037513 C63.4378316,60.3433032 62.6641995,59.5696711 61.5037513,59.5696711 M61.5037513,67.305992 C58.2158149,67.305992 55.7015106,64.7916877 55.7015106,61.5037513 C55.7015106,58.2158149 58.2158149,55.7015106 61.5037513,55.7015106 C64.7916877,55.7015106 67.305992,58.2158149 67.305992,61.5037513 C67.305992,64.5982797 64.7916877,67.305992 61.5037513,67.305992" id="Fill-4"></path>
            </g>
        </g>
    </g>
</svg>