<svg width="16" height="12" viewBox="0 0 16 12" xmlns="http://www.w3.org/2000/svg">
  <title>
    Combined Shape
  </title>
  <path d="M2.5 0h2C5.88 0 7 1.12 7 2.5S5.88 5 4.5 5h-2C1.12 5 0 3.88 0 2.5S1.12 0 2.5 0zm9 0h2C14.88 0 16 1.12 16 2.5S14.88 5 13.5 5h-2C10.12 5 9 3.88 9 2.5S10.12 0 11.5 0zm-9 7h2C5.88 7 7 8.12 7 9.5S5.88 12 4.5 12h-2C1.12 12 0 10.88 0 9.5S1.12 7 2.5 7zm9 0h2C14.88 7 16 8.12 16 9.5S14.88 12 13.5 12h-2C10.12 12 9 10.88 9 9.5S10.12 7 11.5 7z" fill="#FFF" fill-rule="evenodd"/>
</svg>
