<svg xmlns="http://www.w3.org/2000/svg" width="16" height="16" viewBox="0 0 16 16">
    <g fill="#757887" fill-rule="evenodd">
        <path d="M14.582 5.236c-.625-.164-2.095-.162-4.244-.219.102-.469.125-.892.125-1.643C10.463 1.58 9.156 0 8 0a1.51 1.51 0 0 0-1.5 1.488c-.011 1.007-.322 2.746-2 3.628-.123.066-.475.239-.526.262L4 5.4c-.263-.227-.627-.4-1-.4H1.5C.673 5 0 5.673 0 6.5v8c0 .827.673 1.5 1.5 1.5H3c.595 0 1.093-.36 1.334-.864a.161.161 0 0 0 .024.007l.119.03.023.007c.288.071.843.204 2.027.476.255.058 1.596.344 2.987.344h2.733c.833 0 1.434-.32 1.791-.964.005-.01.12-.234.214-.538.07-.228.096-.552.011-.88.537-.369.71-.927.823-1.29.188-.595.132-1.043.001-1.364.302-.284.56-.719.668-1.383a1.879 1.879 0 0 0-.195-1.185c.284-.319.412-.719.428-1.089l.005-.104c.004-.066.007-.106.007-.25 0-.631-.438-1.437-1.418-1.717zM3.5 14.5a.5.5 0 0 1-.5.5H1.5a.5.5 0 0 1-.5-.5v-8a.5.5 0 0 1 .5-.5H3a.5.5 0 0 1 .5.5v8zm11.489-7.232c-.01.247-.114.732-.989.732h-1a.25.25 0 1 0 0 .5h.969c.75 0 .849.622.8.922-.062.373-.237 1.078-1.082 1.078H12.5a.25.25 0 1 0 0 .5h.985c.844 0 .769.643.648 1.027-.16.505-.257.973-1.32.973h-.816a.25.25 0 1 0 0 .5h.784c.547 0 .572.518.515.703-.062.203-.136.354-.139.36-.151.273-.395.437-.91.437H9.514c-1.373 0-2.735-.312-2.77-.32-2.077-.478-2.187-.515-2.317-.552 0 0-.423-.072-.423-.44L4 6.78c0-.234.15-.446.397-.52.031-.013.073-.026.103-.038 2.284-.946 2.98-3.02 3-4.723.003-.24.188-.5.5-.5.528 0 1.463 1.061 1.463 2.374C9.463 4.559 9.415 4.764 9 6c5 0 4.965.072 5.406.188.547.156.594.609.594.765 0 .171-.005.146-.011.314z"/>
        <path d="M2.25 13a.75.75 0 1 0 0 1.5.75.75 0 0 0 0-1.5zm0 1a.25.25 0 0 1-.25-.25.25.25 0 0 1 .25-.25.25.25 0 0 1 .25.25.25.25 0 0 1-.25.25z"/>
    </g>
</svg>
