<svg xmlns="http://www.w3.org/2000/svg" width="32" height="30" viewBox="0 0 32 30">
    <g fill="#1F7ADC" fill-rule="evenodd">
        <path d="M6.953 14.988c-.019 4.765 4.01 8.694 8.933 8.71 5.1.016 9.138-3.822 9.157-8.704.018-4.7-4.051-8.61-8.979-8.626-5.023-.016-9.093 3.834-9.111 8.62M7.205 2.84l1.479.224c1.067.16 1.503-.028 2.056-.91.278-.443.517-.91.812-1.342.573-.84 1.122-.953 2.008-.423.494.296.965.625 1.447.937.662.43 1.323.437 1.985-.001.48-.317.95-.649 1.445-.942.891-.527 1.435-.41 2.007.43.279.41.505.851.766 1.272.594.964 1.03 1.149 2.185.97.56-.088 1.123-.184 1.688-.213.8-.04 1.199.27 1.319 1.03.095.603.13 1.217.167 1.828.047.787.441 1.298 1.236 1.521.504.142 1.009.28 1.507.438 1.167.37 1.426.88 1.005 1.986-.17.447-.367.885-.56 1.323-.343.774-.19 1.43.476 1.983.386.322.77.648 1.134.991.832.783.837 1.378.013 2.164-.423.403-.877.776-1.31 1.17-.479.439-.623.965-.393 1.566.216.561.464 1.11.669 1.675.366 1.009.118 1.507-.93 1.858-.535.18-1.084.32-1.629.474-.777.22-1.166.722-1.217 1.492-.04.597-.076 1.196-.161 1.789-.12.825-.516 1.14-1.39 1.09-.551-.031-1.098-.133-1.644-.217-1.132-.174-1.577.016-2.155.956-.267.434-.498.888-.784 1.31-.557.818-1.107.935-1.979.423-.46-.27-.896-.576-1.333-.88-.75-.518-1.49-.535-2.242-.007-.39.274-.785.541-1.189.794-1.032.646-1.593.523-2.243-.491-.23-.36-.428-.737-.649-1.102-.599-.99-1.042-1.18-2.21-.998-.574.09-1.151.187-1.73.212-.758.033-1.147-.276-1.261-.995-.098-.617-.136-1.245-.175-1.87-.05-.788-.45-1.293-1.243-1.517-.517-.146-1.037-.283-1.548-.45-1.12-.364-1.368-.863-.967-1.936.191-.512.407-1.016.618-1.52.277-.663.12-1.227-.411-1.706-.435-.392-.89-.765-1.31-1.17-.75-.721-.752-1.317-.004-2.046.358-.35.74-.678 1.13-.995.722-.587.911-1.275.516-2.114-.21-.445-.398-.902-.56-1.366-.357-1.014-.11-1.494.947-1.847.535-.18 1.082-.326 1.626-.482.781-.223 1.154-.738 1.206-1.502.04-.583.073-1.17.158-1.748.126-.853.51-1.138 1.622-1.116"/>
        <path d="M14.81 15.887c1.478-1.465 2.9-2.873 4.32-4.282.334-.332.73-.524 1.22-.469.54.061.928.341 1.125.823.197.482.11.936-.247 1.328-.177.194-.38.368-.572.549l-5.602 5.255c-.11.104-.226.203-.385.346-.708-.684-1.404-1.358-2.103-2.03-.552-.529-1.109-1.054-1.661-1.583-.61-.585-.645-1.387-.087-1.92.559-.531 1.41-.504 2.018.075.613.583 1.217 1.175 1.975 1.908"/>
    </g>
</svg>
