<svg width="21" height="23" viewBox="0 0 21 23" xmlns="http://www.w3.org/2000/svg"><title>icon-device</title><g fill="#FFF" fill-rule="evenodd"><path d="M13.663 19.827v-.002c-.526 0-1.053-.003-1.58 0-.518.005-.885.325-.898.778-.013.463.363.81.9.814 1.04.005 2.08.006 3.122-.002.514-.004.853-.32.86-.773.006-.463-.348-.805-.86-.813-.515-.01-1.03-.003-1.544-.003m5.2-1.38V3.725H8.342c0 .767-.01 1.527.008 2.287.007.256-.09.39-.284.55-.594.495-1.155 1.028-1.724 1.542v-.995c0-1.55 0-3.102.003-4.653.004-1.45.95-2.383 2.424-2.384 3.282-.003 6.564-.003 9.846 0 1.345.002 2.348.98 2.344 2.302-.02 6.102-.042 12.205-.07 18.307-.006 1.313-.985 2.287-2.32 2.29-3.327.013-6.654.01-9.982 0-1.047 0-1.922-.647-2.178-1.583-.032-.12.016-.315.103-.403.788-.798 1.59-1.585 2.4-2.36.107-.102.297-.167.45-.168 2.972-.01 5.945-.007 8.918-.008h.586"/><path d="M13.168 7.445l-2.624 2.568 2.49 2.43c.84-.83 1.715-1.69 2.62-2.584.472 1.25.432 2.434-.146 3.59-.975 1.95-3.22 2.903-5.382 2.277-.295-.085-.466-.04-.68.172-2.134 2.113-4.28 4.218-6.425 6.322-.717.703-1.65.77-2.375.183-.797-.645-.87-1.81-.138-2.54.84-.842 1.7-1.668 2.55-2.5 1.32-1.293 2.64-2.59 3.968-3.874.185-.178.23-.32.152-.578-.522-1.722-.162-3.26 1.148-4.518 1.31-1.26 2.89-1.544 4.633-1.045.063.017.12.053.21.095"/></g></svg>