<svg xmlns="http://www.w3.org/2000/svg" width="16" height="13" viewBox="0 0 16 13">
    <path fill="#1F7ADC" fill-rule="nonzero" d="M13.09 2.889h-.29c-.29 0-.51-.145-.655-.433L11.273.794C11.055.29 10.545 0 9.963 0h-4c-.508 0-1.018.289-1.308.794l-.8 1.662c-.146.288-.364.433-.655.433h-.29c-1.6 0-2.91 1.3-2.91 2.889v4.333C0 11.7 1.31 13 2.91 13h10.18c1.6 0 2.91-1.3 2.91-2.889V5.778c0-1.59-1.31-2.89-2.91-2.89zM8 10.11c-1.6 0-2.91-1.3-2.91-2.889C5.09 5.633 6.4 4.333 8 4.333s2.91 1.3 2.91 2.89C10.91 8.81 9.6 10.11 8 10.11z"/>
</svg>
