<svg xmlns="http://www.w3.org/2000/svg" width="80" height="92" viewBox="0 0 80 92">
 <path class="st0" d="M34.9 10v2h44v-2h-44zm0 62l1 2h43l-1-2h-43z" id="Smartphone_1_"/>
  <path class="st0" d="M56.9 78c-2.2 0-4 1.8-4 4s1.8 4 4 4 4-1.8 4-4-1.7-4-4-4zm0 6c-1.1 0-2-.9-2-2s.9-2 2-2 2 .9 2 2-.9 2-2 2z" id="Слой_15_copy"/>
  <path class="st0" d="M74 0H40c-3.3 0-6 2.7-6 6v12.1h2V7c0-3.4 1.5-5 5-5h32c3.5 0 5 1.7 5 5v78c0 3.5-1.5 5-5 5H41c-3.5 0-5-1.5-5-5V66h-2v20c0 3.3 2.7 6 6 6h34c3.3 0 6-2.7 6-6V6c0-3.3-2.7-6-6-6z"/>
  <circle class="st0" cx="49.9" cy="6" r="1"/>
  <path class="st0" d="M64.9 6c0 .6-.4 1-1 1h-9c-.6 0-1-.4-1-1s.4-1 1-1h9c.6 0 1 .4 1 1z"/>
  <g id="Arrow_2_">
    <path class="st1" d="M65 58c-.6 0-1-.4-1-1V41H44c-.6 0-1-.4-1-1s.4-1 1-1h22v18c0 .6-.4 1-1 1z"/>
    <path class="st1" d="M51 48c-.3 0-.5-.1-.7-.3l-7-7c-.4-.4-.4-1 0-1.4s1-.4 1.4 0l7 7c.4.4.4 1 0 1.4-.2.2-.4.3-.7.3z"/>
    <path class="st1" d="M44 41c-.3 0-.5-.1-.7-.3-.4-.4-.4-1 0-1.4l7-7c.4-.4 1-.4 1.4 0s.4 1 0 1.4l-7 7c-.2.2-.4.3-.7.3z"/>
  </g>
  <g id="Arrow_1_">
    <path class="st1" d="M26 82H4V64c0-.6.4-1 1-1s1 .4 1 1v16h20c.6 0 1 .4 1 1s-.4 1-1 1z"/>
    <path class="st1" d="M26 82c-.3 0-.5-.1-.7-.3l-7-7c-.4-.4-.4-1 0-1.4s1-.4 1.4 0l7 7c.4.4.4 1 0 1.4-.2.2-.4.3-.7.3z"/>
    <path class="st1" d="M19 89c-.3 0-.5-.1-.7-.3-.4-.4-.4-1 0-1.4l7-7c.4-.4 1-.4 1.4 0s.4 1 0 1.4l-7 7c-.2.2-.4.3-.7.3z"/>
  </g>
  <g id="Home_copy">
    <path class="st0" d="M20 21C9 21 0 30 0 41s9 20 20 20 20-9 20-20-9-20-20-20zm0 38c-9.9 0-18-8.1-18-18s8.1-18 18-18 18 8.1 18 18-8.1 18-18 18z"/>
    <path class="st1" d="M25.4 33H14.7c-1.5 0-2.7 1.2-2.7 2.7v10.7c0 1.5 1.2 2.7 2.7 2.7h10.7c1.5 0 2.7-1.2 2.7-2.7V35.7c-.1-1.5-1.3-2.7-2.7-2.7zm.7 13.5c0 .3-.2.5-.5.5h-11c-.3 0-.5-.2-.5-.5v-11c0-.3.2-.5.5-.5h11c.3 0 .5.2.5.5v11z"/>
  </g>
</svg>
