<svg xmlns="http://www.w3.org/2000/svg" width="89" height="92" viewBox="0 0 89 92">
  <g id="Arrow_2_">
    <path class="st0" d="M50 69H35"/>
    <path class="st1" d="M50 70H35c-.6 0-1-.4-1-1s.4-1 1-1h15c.6 0 1 .4 1 1s-.4 1-1 1z"/>
    <path class="st0" d="M35 69l7 7"/>
    <path class="st1" d="M42 77c-.3 0-.5-.1-.7-.3l-7-7c-.4-.4-.4-1 0-1.4s1-.4 1.4 0l7 7c.4.4.4 1 0 1.4-.2.2-.4.3-.7.3z"/>
    <g>
      <path class="st0" d="M42 62l-7 7"/>
      <path class="st1" d="M35 70c-.3 0-.5-.1-.7-.3-.4-.4-.4-1 0-1.4l7-7c.4-.4 1-.4 1.4 0s.4 1 0 1.4l-7 7c-.2.2-.4.3-.7.3z"/>
    </g>
  </g>
  <g id="Arrow_1_">
    <path class="st0" d="M35 49h15"/>
    <path class="st1" d="M50 50H35c-.6 0-1-.4-1-1s.4-1 1-1h15c.6 0 1 .4 1 1s-.4 1-1 1z"/>
    <path class="st0" d="M50 49l-7-7"/>
    <path class="st1" d="M50 50c-.3 0-.5-.1-.7-.3l-7-7c-.4-.4-.4-1 0-1.4s1-.4 1.4 0l7 7c.4.4.4 1 0 1.4-.2.2-.4.3-.7.3z"/>
    <g>
      <path class="st0" d="M43 56l7-7"/>
      <path class="st1" d="M43 57c-.3 0-.5-.1-.7-.3-.4-.4-.4-1 0-1.4l7-7c.4-.4 1-.4 1.4 0s.4 1 0 1.4l-7 7c-.2.2-.4.3-.7.3z"/>
    </g>
  </g>
  <path class="st0" d="M55.6 19.9c-.8 0-1.5-.7-1.5-1.5s.7-1.5 1.5-1.5 1.5.7 1.5 1.5-.7 1.5-1.5 1.5zm0-5c-.8 0-1.5-.7-1.5-1.5s.7-1.5 1.5-1.5 1.5.7 1.5 1.5-.7 1.5-1.5 1.5z"/>
  <path class="st1" d="M55.5 7.5c2.5 0 4.5 2 4.5 4.5v7c0 2.5-2 4.5-4.5 4.5S51 21.5 51 19v-7c0-2.5 2-4.5 4.5-4.5m0-2C51.9 5.5 49 8.4 49 12v7c0 3.6 2.9 6.5 6.5 6.5S62 22.6 62 19v-7c0-3.6-2.9-6.5-6.5-6.5zM69 38c-.3 0-.5-.1-.7-.3-.4-.4-.4-1 0-1.4l3-3c.4-.4 1-.4 1.4 0s.4 1 0 1.4l-3 3c-.2.2-.4.3-.7.3zM70 58c-1.5 0-2.2-.5-2.6-.8-.3-.2-.3-.2-.4-.2s-.1 0-.4.2c-.4.3-1.1.8-2.6.8-3.8 0-7-6.7-7-10 0-2.7 1.4-7 5-7 1.2 0 2 .3 2.8.6.7.2 1.3.4 2.2.4.9 0 1.8-.2 2.8-.5 1-.3 2.1-.5 3.2-.5 1.3 0 2 1 2 2 0 1.5-.9 2.6-1.5 3.3-.2.3-.5.6-.5.7 0 .8.9 1.8 1.6 2.6.8.9 1.4 1.6 1.4 2.3 0 2.5-2.3 6.1-6 6.1zm-3-3c.7 0 1.2.3 1.5.6.3.2.6.4 1.5.4 2.4 0 4-2.5 4-3.9-.1-.2-.6-.7-.9-1.1-.9-1.1-2.1-2.4-2.1-4 0-.8.5-1.4 1-2 .5-.6 1-1.2 1-2-.9 0-1.8.2-2.8.5-1 .3-2.1.5-3.2.5-1.2 0-2-.3-2.8-.6-.7-.2-1.4-.4-2.2-.4-2.2 0-3 3.4-3 5 0 2.6 2.8 8 5 8 .9 0 1.1-.2 1.5-.4.3-.3.8-.6 1.5-.6z"/>
  <path class="st0" d="M83 0H49c-3.3 0-6 2.7-6 6v30h2V7.1C45 3.5 46.5 2 50 2h32c3.5 0 5 1.5 5 5v78c0 3.6-1.5 5-5 5H50c-3.4 0-5-1.5-5-5v-1h-2v2c0 3.3 2.7 6 6 6h34c3.3 0 6-2.7 6-6V6c0-3.3-2.7-6-6-6z"/>
  <g>
    <path class="st1" d="M25 29H3c-1.7 0-3 1.3-3 3v51c0 1.7 1.3 3 3 3h22c1.7 0 3-1.3 3-3V32c0-1.7-1.3-3-3-3zm1 53.9c0 .6-.5 1.1-1.1 1.1H3.1c-.6 0-1.1-.5-1.1-1.1V32c0-.6.4-1 1-1h22c.6 0 1 .4 1 1v50.9z"/>
  </g>
  <path class="st0" d="M19.1 46.5l-6.7 1.2-4 10.9 4.2-.6-4.8 11.5 13-14.9-5.6.5"/>
</svg>
