<svg xmlns="http://www.w3.org/2000/svg" width="76" height="92" viewBox="0 0 76 92">
  <g id="Слой_18_copy">
    <path class="st0" d="M43.9 72H.9l1 2h43l-1-2zm-6.2-62H.9v2h36.8v-2zM22.9 78c-2.2 0-4 1.8-4 4s1.8 4 4 4 4-1.8 4-4-1.7-4-4-4zm0 6c-1.1 0-2-.9-2-2s.9-2 2-2 2 .9 2 2-.8 2-2 2z" id="Smartphone_1_"/>
    <circle class="st0" cx="15.9" cy="6" r="1"/>
    <path class="st0" d="M30.9 6c0 .6-.4 1-1 1h-9c-.6 0-1-.4-1-1s.4-1 1-1h9c.6 0 1 .4 1 1z"/>
  </g>
  <path class="st0" d="M72 5H40c-2.2 0-4 1.8-4 4v56c0 2.2 1.8 4 4 4h32c2.2 0 4-1.8 4-4V9c0-2.2-1.8-4-4-4zm2 60c0 1.2-.9 2.1-2.1 2.1H40.1c-1.2 0-2.1-.9-2.1-2.1V9.1c0-1.2.9-2.1 2.1-2.1h31.8c1.2 0 2.1.9 2.1 2.1V65z"/>
  <g id="Arrow_copy">
    <g id="Arrow_2_">
      <path class="st0" d="M18 38h15"/>
      <path class="st1" d="M33 39H18c-.6 0-1-.4-1-1s.4-1 1-1h15c.6 0 1 .4 1 1s-.4 1-1 1z"/>
      <path class="st0" d="M33 38l-7-7"/>
      <path class="st1" d="M33 39c-.3 0-.5-.1-.7-.3l-7-7c-.4-.4-.4-1 0-1.4s1-.4 1.4 0l7 7c.4.4.4 1 0 1.4-.2.2-.4.3-.7.3z"/>
      <g>
        <path class="st0" d="M26 45l7-7"/>
        <path class="st1" d="M26 46c-.3 0-.5-.1-.7-.3-.4-.4-.4-1 0-1.4l7-7c.4-.4 1-.4 1.4 0s.4 1 0 1.4l-7 7c-.2.2-.4.3-.7.3z"/>
      </g>
    </g>
  </g>
  <path class="st0" d="M44 67.6V85c0 3.6-1.5 5-5 5H7c-3.5 0-5-1.5-5-5V7c0-3.4 1.6-5 5-5h32c3.4 0 4.9 1.5 5 4.6h2V6c0-3.3-2.7-6-6-6H6C2.7 0 0 2.7 0 6v80c0 3.3 2.7 6 6 6h34c3.3 0 6-2.7 6-6V67.6h-2z"/>
</svg>
