<?xml version="1.0" encoding="UTF-8" standalone="no"?>
<svg width="219px" height="70px" viewBox="0 0 219 70" version="1.1" xmlns="http://www.w3.org/2000/svg" xmlns:xlink="http://www.w3.org/1999/xlink">
    <!-- Generator: Sketch 47.1 (45422) - http://www.bohemiancoding.com/sketch -->
    <title>15 avtor</title>
    <desc>Created with Sketch.</desc>
    <defs></defs>
    <g id="Service" stroke="none" stroke-width="1" fill="none" fill-rule="evenodd">
        <g id="SERVICE-desk" transform="translate(-151.000000, -514.000000)" fill="#FFFFFF">
            <g id="CONTENT" transform="translate(63.000000, 118.000000)">
                <g id="illustration" transform="translate(66.000000, 153.000000)">
                    <g id="15-avtor" transform="translate(22.000000, 243.000000)">
                        <path d="M18.4354361,17.0322786 C31.5125817,6.97293576 40.4354361,-5.96772143 80.4354361,3.03227857 C120.435436,12.0322786 141.435436,15.2979036 145.435436,12.0322786 C149.435436,8.76665357 192.435436,8.03227857 204.435436,21.0322786 C216.435436,34.0322786 235.435436,62.0322786 186.435436,64.0322786 C137.435436,66.0322786 40.4354361,79.0322786 15.4354361,53.0322786 C-9.56456394,27.0322786 -0.987418297,31.9729358 18.4354361,17.0322786 Z" id="Path-2"></path>
                        <path d="M24.3113019,18.8009385 C36.5910449,10.0594355 44.9698121,-1.18591084 82.5307396,6.63503022 C120.091667,14.4559713 139.811154,17.293778 143.567247,14.4559713 C147.32334,11.6181645 187.701337,10.9799975 198.969615,22.2769123 C210.237893,33.5738272 228.079334,57.9056438 182.067198,59.6436307 C136.055061,61.3816176 44.9698121,72.6785325 21.4942324,50.0847028 C-1.98134733,27.490873 6.07279132,31.7842718 24.3113019,18.8009385 Z" id="Path-2" stroke="#BCBCC4" stroke-width="0.883599996" stroke-dasharray="4.699999988079071"></path>
                    </g>
                </g>
            </g>
        </g>
    </g>
</svg>