<svg width="38" height="40" viewBox="0 0 38 40" xmlns="http://www.w3.org/2000/svg" xmlns:xlink="http://www.w3.org/1999/xlink"><title>Page 1</title><defs><path id="a" d="M0 40h37.143V0H0z"/></defs><g fill="none" fill-rule="evenodd"><path d="M3.57 30H.715C.32 30 0 29.68 0 29.286V14.98c0-.396.32-.716.714-.716H3.57c.396 0 .716.32.716.715 0 .393-.32.713-.715.713H1.43V28.57h2.14c.396 0 .716.32.716.716 0 .394-.32.714-.715.714zM36.43 30h-2.86c-.393 0-.713-.32-.713-.714 0-.395.32-.715.714-.715h2.144V15.694H33.57c-.393 0-.713-.32-.713-.714 0-.396.32-.716.714-.716h2.86c.393 0 .713.32.713.715v14.306c0 .394-.32.714-.714.714" fill="#2C2B3A"/><mask id="b" fill="#fff"><use xlink:href="#a"/></mask><path d="M4.286 32.857h28.57V10H4.287v22.857zm29.285 1.43h-30c-.393 0-.713-.32-.713-.716V9.287c0-.395.32-.715.714-.715h30c.396 0 .716.32.716.716V33.57c0 .396-.32.716-.715.716z" fill="#2C2B3A" mask="url(#b)"/><path d="M6.43 10c-.396 0-.716-.32-.716-.714V3.57c0-.393.32-.713.715-.713.393 0 .713.32.713.714v5.716c0 .394-.32.714-.714.714M30.714 10C30.32 10 30 9.68 30 9.286V3.57c0-.393.32-.713.714-.713.395 0 .715.32.715.714v5.716c0 .394-.32.714-.716.714" fill="#2C2B3A" mask="url(#b)"/><path d="M6.43 1.43c-.395 0-.716.32-.716.713 0 .393.32.714.715.714.392 0 .713-.32.713-.714 0-.394-.32-.714-.714-.714m0 2.856c-1.183 0-2.144-.962-2.144-2.143C4.286.96 5.246 0 6.43 0c1.18 0 2.14.96 2.14 2.143 0 1.18-.96 2.143-2.14 2.143M30.714 1.43c-.393 0-.714.32-.714.713 0 .393.32.714.714.714.394 0 .715-.32.715-.714 0-.394-.322-.714-.716-.714m0 2.856c-1.18 0-2.143-.962-2.143-2.143C28.57.96 29.534 0 30.715 0c1.182 0 2.143.96 2.143 2.143 0 1.18-.96 2.143-2.143 2.143" fill="#2C2B3A" mask="url(#b)"/><path d="M17.857 4.286c-.183 0-.366-.07-.505-.21l-1.22-1.22H7.858c-.394 0-.714-.32-.714-.713 0-.394.32-.714.714-.714h8.572c.188 0 .37.074.504.208l.923.923L20.21.21c.28-.28.73-.28 1.01 0l1.22 1.22h6.846c.394 0 .714.32.714.713 0 .394-.32.714-.714.714h-7.143c-.19 0-.372-.075-.505-.21l-.924-.923-2.352 2.352c-.14.14-.322.21-.505.21M11.43 12.857c-2.365 0-4.287 1.922-4.287 4.286 0 2.363 1.922 4.286 4.286 4.286 2.362 0 4.284-1.924 4.284-4.287 0-2.364-1.922-4.286-4.285-4.286m0 10c-3.152 0-5.716-2.563-5.716-5.714 0-3.15 2.564-5.714 5.715-5.714 3.15 0 5.713 2.562 5.713 5.713 0 3.15-2.564 5.714-5.714 5.714" fill="#2C2B3A" mask="url(#b)"/><path d="M11.43 15.714c-.79 0-1.43.64-1.43 1.43 0 .787.64 1.427 1.43 1.427.786 0 1.427-.64 1.427-1.427 0-.788-.64-1.43-1.428-1.43m0 4.287c-1.577 0-2.86-1.28-2.86-2.857 0-1.576 1.283-2.857 2.86-2.857 1.574 0 2.856 1.28 2.856 2.857 0 1.576-1.282 2.857-2.857 2.857M25.714 15.714c-.788 0-1.428.64-1.428 1.43 0 .787.64 1.427 1.428 1.427.788 0 1.43-.64 1.43-1.427 0-.788-.642-1.43-1.43-1.43m0 4.287c-1.575 0-2.857-1.28-2.857-2.857 0-1.576 1.282-2.857 2.857-2.857 1.576 0 2.857 1.28 2.857 2.857 0 1.576-1.28 2.857-2.856 2.857" fill="#2C2B3A" mask="url(#b)"/><path d="M25.714 12.857c-2.363 0-4.285 1.922-4.285 4.286 0 2.363 1.92 4.286 4.284 4.286S30 19.505 30 17.142c0-2.364-1.922-4.286-4.286-4.286m0 10c-3.15 0-5.714-2.563-5.714-5.714 0-3.15 2.564-5.714 5.714-5.714 3.15 0 5.715 2.562 5.715 5.713 0 3.15-2.565 5.714-5.716 5.714M7.143 30H30v-4.286H7.143V30zm23.57 1.43H6.43c-.396 0-.716-.32-.716-.716V25c0-.394.32-.714.715-.714h24.284c.395 0 .715.32.715.714v5.714c0 .395-.32.715-.716.715z" fill="#2C2B3A" mask="url(#b)"/><path d="M30.714 28.57H6.43c-.396 0-.716-.32-.716-.713 0-.394.32-.714.715-.714h24.284c.395 0 .715.32.715.714 0 .394-.32.714-.716.714M30.714 40c-.394 0-.714-.32-.714-.714V33.57c0-.393.32-.713.714-.713.395 0 .715.32.715.714v5.716c0 .394-.32.714-.716.714M6.43 40c-.396 0-.716-.32-.716-.714V33.57c0-.393.32-.713.715-.713.393 0 .713.32.713.714v5.716c0 .394-.32.714-.714.714" fill="#2C2B3A" mask="url(#b)"/><path d="M30.714 37.143H6.43c-.396 0-.716-.32-.716-.714 0-.396.32-.716.715-.716h24.284c.395 0 .715.32.715.715 0 .393-.32.713-.716.713" fill="#2C2B3A" mask="url(#b)"/></g></svg>