<svg width="35" height="40" viewBox="0 0 35 40" xmlns="http://www.w3.org/2000/svg"><title>Page 1</title><g fill="#2C2B3A" fill-rule="evenodd"><path d="M7.143 25c.393 0 .714.32.714.714 0 .393-.32.715-.714.715-.393 0-.714-.323-.714-.716 0-.393.32-.714.713-.714M27.143 25c.393 0 .714.32.714.714 0 .393-.32.715-.714.715-.393 0-.714-.323-.714-.716 0-.393.32-.714.713-.714M29.286 40c-.395 0-.715-.32-.715-.714V33.57c0-.393.32-.713.716-.713.395 0 .714.32.714.714v5.716c0 .394-.32.714-.714.714M5 40c-.394 0-.714-.32-.714-.714V33.57c0-.393.32-.713.714-.713.394 0 .714.32.714.714v5.716c0 .394-.32.714-.714.714"/><path d="M1.43 32.857h31.427v-7.143c0-7.133-4.822-12.62-12.284-13.983-2.228-.402-4.68-.4-6.855.008-7.467 1.354-12.29 6.84-12.29 13.976v7.143zm32.14 1.43H.715c-.394 0-.714-.32-.714-.716v-7.856c0-7.86 5.283-13.898 13.46-15.38 2.336-.44 4.97-.443 7.368-.008 8.175 1.49 13.458 7.53 13.458 15.388v7.857c0 .396-.32.716-.715.716z"/><path d="M7.143 25.714v.002l.714-.002h-.714zm0 1.43c-.788 0-1.43-.642-1.43-1.43 0-.788.642-1.428 1.43-1.428.788 0 1.428.64 1.428 1.428 0 .788-.64 1.43-1.427 1.43zM27.143 25.714v.002l.714-.002h-.714zm0 1.43c-.788 0-1.43-.642-1.43-1.43 0-.788.642-1.428 1.43-1.428.787 0 1.428.64 1.428 1.428 0 .788-.64 1.43-1.427 1.43zM17.143 31.43c-2.364 0-4.286-1.924-4.286-4.287 0-.394.32-.714.714-.714.396 0 .716.32.716.713 0 1.576 1.28 2.857 2.857 2.857C18.72 30 20 28.72 20 27.143c0-.394.32-.714.714-.714.395 0 .715.32.715.713 0 2.363-1.924 4.286-4.287 4.286M13.586 11.75c-.02 0-.042 0-.065-.003-.39-.035-.68-.383-.646-.775.197-2.183 2.032-3.83 4.27-3.83 2.235 0 4.07 1.644 4.268 3.822.035.393-.255.74-.648.776-.388.035-.74-.254-.775-.647-.13-1.438-1.354-2.52-2.847-2.52-1.492 0-2.716 1.086-2.846 2.527-.033.37-.345.65-.71.65"/><path d="M17.143 8.57c-.394 0-.714-.32-.714-.713V3.57c0-.393.32-.713.713-.713.394 0 .714.32.714.714v4.287c0 .394-.32.714-.714.714"/><path d="M17.143 1.43c-.394 0-.714.32-.714.713 0 .393.32.714.713.714.393 0 .714-.32.714-.714 0-.394-.32-.714-.714-.714m0 2.856C15.96 4.286 15 3.324 15 2.143 15 .96 15.96 0 17.143 0c1.18 0 2.143.96 2.143 2.143 0 1.18-.962 2.143-2.143 2.143M29.286 37.143H5c-.394 0-.714-.32-.714-.714 0-.396.32-.716.714-.716h24.286c.395 0 .714.32.714.715 0 .393-.32.713-.714.713M27.143 22.857c-1.576 0-2.857 1.282-2.857 2.857 0 1.576 1.28 2.857 2.857 2.857 1.576 0 2.857-1.28 2.857-2.856 0-1.575-1.28-2.857-2.857-2.857m0 7.143c-2.364 0-4.286-1.922-4.286-4.286 0-2.363 1.922-4.285 4.286-4.285 2.363 0 4.286 1.92 4.286 4.284S29.505 30 27.142 30M7.143 22.857c-1.576 0-2.857 1.282-2.857 2.857 0 1.576 1.28 2.857 2.857 2.857C8.72 28.57 10 27.29 10 25.715c0-1.575-1.28-2.857-2.857-2.857m0 7.143c-2.364 0-4.286-1.922-4.286-4.286 0-2.363 1.922-4.285 4.286-4.285 2.363 0 4.286 1.92 4.286 4.284S9.505 30 7.142 30"/></g></svg>