<svg width="28" height="29" xmlns="http://www.w3.org/2000/svg" xmlns:xlink="http://www.w3.org/1999/xlink"><defs><path d="M.073.059v5.578h7.664a6.639 6.639 0 0 1-2.842 4.352v3.618h4.602c2.693-2.51 4.247-6.207 4.247-10.599 0-1.022-.09-2.005-.26-2.95H.074z" id="a"/><path d="M.066.074V3.81c2.344 4.713 7.16 7.944 12.727 7.944 3.845 0 7.068-1.291 9.424-3.493l-4.602-3.618c-1.275.865-2.906 1.376-4.822 1.376-3.71 0-6.85-2.537-7.969-5.945H.066z" id="c"/><path d="M1.586.012A14.562 14.562 0 0 0 .072 6.488c0 2.327.55 4.53 1.514 6.476l4.758-3.736a8.765 8.765 0 0 1-.447-2.74c0-.95.162-1.875.447-2.74V.012H1.586z" id="e"/><path d="M.066 7.95l4.758 3.737c1.12-3.409 4.26-5.945 7.969-5.945 2.09 0 3.968.727 5.443 2.156l4.085-4.136C19.855 1.436 16.631.007 12.793.007 7.226.007 2.41 3.238.066 7.95z" id="g"/></defs><g fill="none" fill-rule="evenodd"><g transform="translate(14.24 11.812)"><mask id="b" fill="#fff"><use xlink:href="#a"/></mask><path fill="#3E82F1" mask="url(#b)" d="M-7.84 21.618h29.495v-29.57H-7.839z"/></g><g transform="translate(1.52 17.158)"><mask id="d" fill="#fff"><use xlink:href="#c"/></mask><path fill="#32A753" mask="url(#d)" d="M-7.845 19.765h37.974V-7.937H-7.845z"/></g><g transform="translate(0 8.004)"><mask id="f" fill="#fff"><use xlink:href="#e"/></mask><path fill="#F9BB00" mask="url(#f)" d="M-7.84 20.975h22.096V-8H-7.84z"/></g><g transform="translate(1.52 .066)"><mask id="h" fill="#fff"><use xlink:href="#g"/></mask><path fill="#E74133" mask="url(#h)" d="M-7.845 19.698h38.078V-8.004H-7.845z"/></g></g></svg>