<svg width="86" height="88" xmlns="http://www.w3.org/2000/svg"><g fill="none" fill-rule="evenodd"><path d="M52.476 0H5.831C2.624 0 0 2.624 0 5.83v52.477l11.661-11.661h40.815c3.207 0 5.831-2.624 5.831-5.831V5.83c0-3.207-2.624-5.831-5.83-5.831z" fill="#1F7ADC"/><path d="M66.129 13.652H19.483c-3.207 0-5.83 2.624-5.83 5.831V71.96l11.66-11.661H66.13c3.207 0 5.83-2.624 5.83-5.83V19.482c0-3.207-2.623-5.83-5.83-5.83z" fill="#EDF500"/><path d="M79.781 29.011H33.135c-3.206 0-5.83 2.624-5.83 5.831v52.476l11.661-11.661h40.815c3.207 0 5.83-2.624 5.83-5.83V34.841c0-3.207-2.623-5.83-5.83-5.83z" fill="#FF3E3E"/></g></svg>