<svg width="38" height="40" viewBox="0 0 38 40" xmlns="http://www.w3.org/2000/svg"><title>Page 1</title><g fill="#2C2B3A" fill-rule="evenodd"><path d="M27.143 13.57c.393 0 .714.323.714.716 0 .393-.32.714-.714.714-.393 0-.714-.32-.714-.714 0-.393.32-.715.713-.715M21.43 13.57c.39 0 .713.323.713.716 0 .393-.322.714-.714.714-.394 0-.716-.32-.716-.714 0-.393.322-.715.715-.715M10 13.57c.393 0 .714.323.714.716 0 .393-.32.714-.714.714-.393 0-.714-.32-.714-.714 0-.393.32-.715.714-.715M15.714 13.57c.393 0 .715.323.715.716 0 .393-.323.714-.716.714-.393 0-.714-.32-.714-.714 0-.393.32-.715.714-.715M29.286 40c-.395 0-.715-.32-.715-.714v-7.172c0-.394.32-.714.716-.714.395 0 .714.32.714.714v7.172c0 .394-.32.714-.714.714M7.857 40c-.395 0-.714-.32-.714-.714v-7.172c0-.394.32-.714.714-.714.395 0 .714.32.714.714v7.172c0 .394-.318.714-.713.714M3.57 24.286h-.713C1.28 24.286 0 23.004 0 21.43v-4.287c0-1.576 1.28-2.857 2.857-2.857h.714c.396 0 .716.32.716.714 0 .394-.32.714-.715.714h-.713c-.788 0-1.428.64-1.428 1.43v4.285c0 .786.64 1.427 1.427 1.427h.714c.396 0 .716.32.716.714 0 .396-.32.716-.715.716M34.286 24.286h-.715c-.394 0-.713-.32-.713-.715 0-.393.32-.713.714-.713h.716c.787 0 1.428-.64 1.428-1.428v-4.287c0-.788-.64-1.43-1.428-1.43h-.715c-.394 0-.713-.32-.713-.713 0-.394.32-.714.714-.714h.716c1.575 0 2.857 1.28 2.857 2.857v4.286c0 1.574-1.282 2.856-2.857 2.856"/><path d="M17.857 1.43c-7.483 0-13.57 6.086-13.57 13.57v9.286c0 2.94 1.48 5.638 3.96 7.22 1.377.884 2.97 1.35 4.61 1.35h11.43c1.64 0 3.232-.466 4.605-1.35h.003c2.48-1.582 3.962-4.28 3.962-7.22V15c0-7.484-6.088-13.57-13.57-13.57h-1.43zm6.43 32.856h-11.43c-1.915 0-3.775-.546-5.38-1.578-2.89-1.844-4.62-4.992-4.62-8.422V15c0-8.27 6.73-15 15-15h1.43c8.27 0 15 6.73 15 15v9.286c0 3.43-1.73 6.578-4.623 8.423-1.604 1.03-3.463 1.576-5.378 1.576z"/><path d="M10 14.286v.002l.714-.002H10zm0 1.428c-.788 0-1.43-.64-1.43-1.428 0-.788.642-1.43 1.43-1.43.787 0 1.43.642 1.43 1.43 0 .788-.643 1.428-1.43 1.428zM27.143 14.286v.002l.714-.002h-.714zm0 1.428c-.788 0-1.43-.64-1.43-1.428 0-.788.642-1.43 1.43-1.43.787 0 1.428.642 1.428 1.43 0 .788-.64 1.428-1.427 1.428zM15.714 14.286v.002l.715-.002h-.716zm0 1.428c-.788 0-1.428-.64-1.428-1.428 0-.788.64-1.43 1.428-1.43.787 0 1.43.642 1.43 1.43 0 .788-.643 1.428-1.43 1.428zM21.43 14.286v.002l.713-.002h-.714zm0 1.428c-.79 0-1.43-.64-1.43-1.428 0-.788.64-1.43 1.43-1.43.786 0 1.427.642 1.427 1.43 0 .788-.64 1.428-1.428 1.428zM7.143 21.43v2.14c0 3.546 2.883 6.43 6.428 6.43h10c3.546 0 6.43-2.884 6.43-6.43v-2.14H7.143zm16.428 10h-10c-4.33 0-7.856-3.526-7.856-7.86v-2.856c0-.394.32-.714.715-.714h24.284c.395 0 .715.32.715.714v2.857c0 4.334-3.526 7.86-7.86 7.86z"/><path d="M30.714 24.286H6.43c-.396 0-.716-.32-.716-.715 0-.393.32-.713.715-.713h24.284c.395 0 .715.32.715.714 0 .396-.32.716-.716.716M10 11.43c-1.576 0-2.857 1.28-2.857 2.856 0 1.575 1.28 2.857 2.857 2.857h17.143c1.576 0 2.857-1.282 2.857-2.857 0-1.576-1.28-2.857-2.857-2.857H10zm17.143 7.14H10c-2.364 0-4.286-1.92-4.286-4.284S7.636 10 10 10h17.143c2.363 0 4.286 1.922 4.286 4.286 0 2.363-1.924 4.285-4.287 4.285zM29.286 37.143H7.856c-.394 0-.713-.32-.713-.714 0-.396.32-.716.714-.716h21.43c.394 0 .713.32.713.715 0 .393-.32.713-.714.713"/></g></svg>