<svg width="54" height="15" xmlns="http://www.w3.org/2000/svg"><path d="M0 6.201c3.255-2.604 6.152-4.289 8.691-5.054C11.231.382 13.298 0 14.893 0c1.985 0 4.028.399 6.128 1.196 2.1.798 4.199 1.677 6.298 2.637 2.1.96 4.15 1.847 6.153 2.661 2.002.814 3.914 1.22 5.737 1.22 1.53 0 3.02-.26 4.468-.78a27.101 27.101 0 0 0 4.126-1.88c1.302-.733 3.271-2.19 5.908-4.37v7.812c-.553.39-1.294.92-2.222 1.587-.927.667-2.01 1.35-3.247 2.05-1.237.7-2.62 1.303-4.15 1.807-1.53.505-3.093.757-4.688.757-2.018 0-4.142-.398-6.372-1.196a95.713 95.713 0 0 1-6.64-2.661 154.467 154.467 0 0 0-6.348-2.661c-2.035-.798-3.817-1.197-5.347-1.197-2.148 0-4.492.61-7.031 1.831-2.54 1.221-5.094 2.955-7.666 5.2V6.202z" fill="#DFE1EA" fill-rule="evenodd"/></svg>