<svg xmlns="http://www.w3.org/2000/svg" xmlns:xlink="http://www.w3.org/1999/xlink" width="18" height="18" viewBox="0 0 18 18">
    <defs>
        <path id="a" d="M0 0h24v24H0z"/>
        <path id="c" d="M0 0h24v24H0z"/>
    </defs>
    <g fill="none" fill-rule="evenodd">
        <g transform="translate(-3 -3)">
            <mask id="b" fill="#fff">
                <use xlink:href="#a"/>
            </mask>
            <path fill="#FFF" d="M15 3l2.3 2.3-2.89 2.87 1.42 1.42L18.7 6.7 21 9V3h-6zM3 9l2.3-2.3 2.87 2.89 1.42-1.42L6.7 5.3 9 3H3v6zm6 12l-2.3-2.3 2.89-2.87-1.42-1.42L5.3 17.3 3 15v6h6zm12-6l-2.3 2.3-2.87-2.89-1.42 1.42 2.89 2.87L15 21h6v-6z" mask="url(#b)"/>
        </g>
        <g transform="translate(-3 -3)">
            <mask id="d" fill="#fff">
                <use xlink:href="#c"/>
            </mask>
            <path d="M0 0h24v24H0z" mask="url(#d)"/>
        </g>
    </g>
</svg>
