<svg viewBox="0 0 100 60" xmlns="http://www.w3.org/2000/svg">
  <title>
    img-macbook
  </title>
  <g fill="none" fill-rule="evenodd">
    <path d="M11.61 0h76.78c1.188 0 2.15.962 2.15 2.15v52.395H9.46V2.15C9.46.962 10.42 0 11.61 0z" fill="#1F7ADC"/>
    <path fill="#FFF" d="M12.162 2.727h75.714v49.09H12.162z"/>
    <ellipse fill="#FFF" cx="50.673" cy="1.386" rx="1" ry="1"/>
    <path d="M0 55.91v1.817C1.167 59.242 2.205 60 3.113 60H50v-2.612c-3.693.06-5.77.06-6.23 0-.458-.06-.716-.552-.774-1.48H0zM100 55.91v1.817C98.833 59.242 97.795 60 96.887 60H50v-2.612c3.693.06 5.77.06 6.23 0 .458-.06.716-.552.774-1.48H100z" fill="#1F7ADC"/>
  </g>
</svg>
