<svg viewBox="0 0 64 100" xmlns="http://www.w3.org/2000/svg">
  <title>
    img-iwatch
  </title>
  <g fill="none" fill-rule="evenodd">
    <path d="M7.758 80.77h42.666c-.983 1.263-1.53 2.545-1.64 3.845-.28 3.275-.38 6.558-.302 9.848.072 2.985-2.29 5.463-5.276 5.535l-.13.002H14.864c-2.986 0-5.407-2.42-5.407-5.407v-.046c.048-5.612.03-8.923-.057-9.932-.112-1.3-.66-2.582-1.642-3.846zm0-61.54c.983-1.263 1.53-2.545 1.64-3.846.087-1.008.106-4.32.06-9.93-.002-.017-.002-.032-.002-.047C9.456 2.42 11.876 0 14.863 0h28.214c.043 0 .086 0 .13.002 2.985.07 5.347 2.55 5.275 5.534-.08 3.29.022 6.573.3 9.848.112 1.3.66 2.583 1.642 3.846H7.758zm50.26 34.616c1.07 0 1.94.868 1.94 1.94v15.352c0 1.07-.87 1.94-1.94 1.94V53.845z" fill="#1F7ADC"/>
    <rect stroke="#1F7ADC" stroke-width="1.931" x=".966" y="18.273" width="56.251" height="63.454" rx="10.814"/>
    <rect stroke="#1F7ADC" stroke-width="1.379" x="4.568" y="21.844" width="49.045" height="56.313" rx="9.269"/>
    <path d="M57.902 31.46v10.158h2.81c.9 0 1.63-.73 1.63-1.628v-6.904c0-.898-.73-1.627-1.63-1.627h-2.81z" stroke="#1F7ADC" stroke-width="1.379"/>
    <ellipse stroke="#1F7ADC" stroke-width="3.862" stroke-linecap="round" stroke-dasharray="77.241" transform="rotate(-148 29.09 50)" cx="29.091" cy="50" rx="15.515" ry="15.385"/>
    <ellipse stroke="#1F7ADC" stroke-width="3.862" stroke-linecap="round" stroke-dasharray="34.759" transform="rotate(163 29.09 50)" cx="29.091" cy="50" rx="8.271" ry="8.202"/>
  </g>
</svg>
