<svg viewBox="0 0 51 100" xmlns="http://www.w3.org/2000/svg" xmlns:xlink="http://www.w3.org/1999/xlink"><title>img-iphone</title><defs><path id="a" d="M51 100H0V0h51z"/></defs><g fill="none" fill-rule="evenodd"><mask id="b" fill="#fff"><use xlink:href="#a"/></mask><path d="M25.505 91.775c-1.144 0-2.076.9-2.076 2.006 0 1.11.93 2.007 2.075 2.007 1.147 0 2.077-.898 2.077-2.006 0-1.104-.932-2.005-2.077-2.005zM3.132 88.408h44.736V11.592H3.132v76.816zm22.37 8.812c-1.962 0-3.557-1.545-3.557-3.437 0-1.898 1.595-3.44 3.558-3.44 1.963 0 3.563 1.542 3.563 3.44 0 1.892-1.6 3.437-3.563 3.437zm-8.8-92.443c.778 0 1.4.61 1.4 1.35 0 .75-.622 1.345-1.4 1.345-.763 0-1.39-.594-1.39-1.344 0-.742.627-1.35 1.39-1.35zm4.893.727h7.815c.416 0 .76.273.76.613 0 .334-.344.614-.76.614h-7.815c-.416 0-.762-.28-.762-.613 0-.34.346-.613.762-.613zM44.067 0H6.933C3.106 0 0 2.997 0 6.697v86.606C0 97 3.106 100 6.933 100h37.134c3.83 0 6.933-3 6.933-6.697V6.697C51 2.997 47.897 0 44.067 0z" fill="#1F7ADC" mask="url(#b)"/></g></svg>