<svg viewBox="0 0 47 100" xmlns="http://www.w3.org/2000/svg">
  <title>
    img-ipod
  </title>
  <g fill="none" fill-rule="evenodd">
    <rect stroke="#1F7ADC" stroke-width="1.774" x=".887" y=".887" width="45.226" height="98.226" rx="5.323"/>
    <ellipse stroke="#1F7ADC" stroke-width="8.871" cx="23.5" cy="66.071" rx="11.834" ry="11.636"/>
    <rect stroke="#1F7ADC" stroke-width="1.774" x="6.31" y="6.244" width="34.38" height="26.797" rx="1.774"/>
    <path d="M24.624 30.357c.02-.663.044-1.31.08-1.93 4.9.03 12.837 1.297 11.242-8.117-2.11 1.994-5.01 1.662-7.337 2.973-1.856 1.044-2.66 3.143-3.88 4.643.217-3.746.362-6.614.488-7.484 0 0 1.092.03 1.092-1.22l-.008-.574v-.008l.008-.007c5.34-3.226 1.258-8.872 1.258-8.872-.185.842-.72 1.784-1.026 2.636-.263-.976-1.81-2.627-2.26-3.467 0 0-1.61 2.128-1.787 3.6-.393-.94-1.057-1.883-1.293-2.848 0 0-4.083 5.925 1.83 9.022l.064.038c-.012.264 0 1.775 1.092 1.775h.008c.02 2.103-.008 4.085-.082 5.962-1.242-1.504-2.032-3.645-3.91-4.704-2.33-1.32-5.23-.98-7.34-2.974-1.6 9.415 6.33 8.14 11.234 8.11-.004.2-.02.396-.02.59l-.22 2.855h.766z" fill="#1F7ADC"/>
  </g>
</svg>
